<?xml version="1.0" encoding="UTF-8"?>
<!-- Created with Inkscape (http://www.inkscape.org/) -->
<svg width="290" height="290" version="1.1" viewBox="0 0 76.729 76.729" xmlns="http://www.w3.org/2000/svg" xmlns:cc="http://creativecommons.org/ns#" xmlns:dc="http://purl.org/dc/elements/1.1/" xmlns:rdf="http://www.w3.org/1999/02/22-rdf-syntax-ns#" xmlns:xlink="http://www.w3.org/1999/xlink">
 <defs>
  <clipPath id="clipPath8">
   <path d="m76 2v46h-22v23h-18.419c-0.07818 0.66569-0.14148 1.3329-0.20574 2-1.1512 12.531 1.0364 24.088 6.0625 33.969l1.6875 3.0312c1.0114 1.8168 2.1912 3.523 3.4375 5.1875 1.2447 1.6625 1.6857 2.5826 2.4688 3.6875 13.289 14.936 33.098 22.125 55.969 22.125 50.648 0 93.633-22.438 112.66-72.844 13.497 1.385 26.443-2.0759 32.344-13.594-9.3986-5.4237-21.478-3.6853-28.438-0.1875l18.438-52.375-72 46h-23v-46z"/>
  </clipPath>
  <clipPath id="a">
   <path d="m239.03 226.6-42.13 24.317c-1.578 0.91-2.546 2.59-2.546 4.406v48.668c0 1.817 0.968 3.496 2.546 4.406l42.133 24.336c1.575 0.907 3.517 0.907 5.09 0l42.126-24.336c1.57-0.91 2.54-2.59 2.54-4.406v-48.668c0-1.816-0.97-3.496-2.55-4.406l-42.12-24.317c-0.79-0.453-1.67-0.68-2.55-0.68s-1.76 0.227-2.55 0.68"/>
  </clipPath>
  <linearGradient id="b" x1="-.348" x2="1.251" gradientTransform="matrix(-38.065 77.652 -77.652 -38.065 258.72 244.63)" gradientUnits="userSpaceOnUse">
   <stop stop-color="#3E863D" offset=".3"/>
   <stop stop-color="#55934F" offset=".5"/>
   <stop stop-color="#5AAD45" offset=".8"/>
  </linearGradient>
  <clipPath id="c">
   <path d="m195.4 307.09c0.403 0.523 0.907 0.976 1.5 1.316l36.14 20.875 6.02 3.46c0.9 0.52 1.926 0.74 2.934 0.665 0.336-0.027 0.672-0.09 1-0.183l44.434-81.36c-0.34-0.37-0.738-0.68-1.184-0.94l-27.586-15.93-14.582-8.39c-0.414-0.24-0.863-0.41-1.32-0.53z"/>
  </clipPath>
  <linearGradient id="d" x1="-.456" x2=".582" gradientTransform="matrix(106.81 -78.917 78.917 106.81 235.19 285.39)" gradientUnits="userSpaceOnUse">
   <stop stop-color="#3E863D" offset=".57"/>
   <stop stop-color="#619857" offset=".72"/>
   <stop stop-color="#76AC64" offset="1"/>
  </linearGradient>
  <clipPath id="e">
   <path d="m241.07 225.95c-0.707 0.07-1.398 0.29-2.035 0.652l-42.01 24.247 45.3 82.51c0.63-0.09 1.25-0.3 1.81-0.624l42.13-24.336c1.3-0.754 2.19-2.03 2.46-3.476l-46.18-78.89c-0.34-0.067-0.68-0.102-1.03-0.102-0.14 0-0.28 7e-3 -0.42 0.02"/>
  </clipPath>
  <linearGradient id="f" x1=".043" x2=".984" gradientTransform="matrix(97.417 0 0 97.417 192.86 279.65)" gradientUnits="userSpaceOnUse">
   <stop stop-color="#6BBF47" offset=".16"/>
   <stop stop-color="#79B461" offset=".38"/>
   <stop stop-color="#75AC64" offset=".47"/>
   <stop stop-color="#659E5A" offset=".7"/>
   <stop stop-color="#3E863D" offset=".9"/>
  </linearGradient>
 </defs>
 <metadata>
  <rdf:RDF>
   <cc:Work rdf:about="">
    <dc:format>image/svg+xml</dc:format>
    <dc:type rdf:resource="http://purl.org/dc/dcmitype/StillImage"/>
    <dc:title/>
   </cc:Work>
  </rdf:RDF>
 </metadata>
 <g transform="translate(0 -220.27)">
  <rect transform="scale(-1,1)" x="-76.706" y="220.16" width="76.84" height="76.84" ry="0" fill="#dd0031"/>
  <rect x="48.117" y="245.81" width="3.12" height="2.745" ry="0" fill="#fff" stroke="#000008" stroke-linecap="round" stroke-width=".26654"/>
  <path d="m37.952 223.62v70.292" fill="none" stroke="#fffffc" stroke-dasharray="2.02623306, 2.02623306" stroke-width=".33771"/>
  <g fill="#fff" stroke="#000008" stroke-linecap="round" stroke-width=".26654">
   <rect x="62.671" y="245.83" width="3.12" height="2.745" ry="0"/>
   <rect x="48.117" y="261.16" width="3.12" height="2.745" ry="0"/>
   <rect x="62.671" y="261.09" width="3.12" height="2.745" ry="0"/>
   <rect x="55.325" y="253.43" width="3.12" height="2.745" ry="0"/>
   <rect x="55.268" y="268.79" width="3.12" height="2.745" ry="0"/>
  </g>
  <g transform="translate(.8062 -1.718)">
   <rect x="42.387" y="264.84" width="12.967" height="14.088" ry="4.3788" fill="#fff" stroke="#000" stroke-linecap="round" stroke-width=".24967"/>
  </g>
  <g transform="translate(15.361 -1.718)">
   <rect x="42.387" y="264.84" width="12.967" height="14.088" ry="4.3788" fill="#fff" stroke="#000" stroke-linecap="round" stroke-width=".24967"/>
  </g>
  <g fill="#fff">
   <rect x="55.364" y="268.92" width="2.9285" height="2.4878"/>
   <rect x="57.748" y="247.76" width="12.967" height="14.088" ry="4.3788" stroke="#000" stroke-linecap="round" stroke-width=".24967"/>
   <rect x="43.914" y="232.46" width="26.08" height="13.985" ry="4.3467" stroke="#000" stroke-linecap="round" stroke-width=".35278"/>
   <rect x="62.767" y="245.78" width="2.9285" height="2.5713"/>
   <rect x="43.193" y="247.76" width="12.967" height="14.088" ry="4.3788" stroke="#000" stroke-linecap="round" stroke-width=".24967"/>
   <rect x="48.212" y="245.76" width="2.9285" height="2.5713"/>
   <rect x="48.212" y="261.11" width="2.9285" height="2.5713"/>
   <rect x="62.767" y="261.04" width="2.9285" height="2.5713"/>
  </g>
  <rect x="1.6704" y="222.5" width="73.232" height="72.163" ry="2.2718" fill="none" stroke="#fffffc" stroke-dasharray="2.11666664, 2.11666664" stroke-linecap="round" stroke-width=".35278"/>
  <rect x="17.717" y="245.88" width="3.12" height="2.745" ry="0" fill="#fff" stroke="#000008" stroke-linecap="round" stroke-width=".26654"/>
  <rect x="17.717" y="261.12" width="3.12" height="2.745" ry="0" fill="#fff" stroke="#000008" stroke-linecap="round" stroke-width=".26654"/>
  <g fill="#fff" stroke="#000" stroke-linecap="round" stroke-width=".35278">
   <rect x="6.2366" y="232.46" width="26.08" height="13.985" ry="4.3467"/>
   <rect x="6.2366" y="247.81" width="26.08" height="13.985" ry="4.3467"/>
  </g>
  <g transform="matrix(.09 0 0 .09 9.7518 235.65)" stroke-width=".53447">
   <path d="m14.701 29.703c-0.26724-0.85515-0.9086-1.55-1.7103-1.9775l-16.301-7.8032c-0.42757-0.21379-0.90859-0.26724-1.3362-0.26724-0.42757 0-0.9086 0-1.3362 0.1069l-16.301 7.8567c-0.8017 0.37413-1.3896 1.0689-1.6034 1.9775l-4.0085 17.584c-0.16034 0.9086 0.0534 1.8172 0.58791 2.5655l11.277 13.95c0.64136 0.64137 1.55 1.0689 2.4586 1.1224h17.958c0.96205 0.1069 1.8706-0.32068 2.4586-1.1224l11.277-13.95c0.53447-0.74826 0.74826-1.6569 0.64137-2.5655z" fill="#326de6"/>
   <path d="m12.189 46.485c-0.0534 0-0.10689 0-0.10689-0.0534s-0.10689-0.0534-0.21379-0.0534c-0.21379-0.0534-0.42757-0.0534-0.64136-0.0534-0.10689 0-0.21379 0-0.32068-0.0535h-0.0534c-0.58792-0.0534-1.2293-0.16034-1.8172-0.32068-0.16034-0.0534-0.32068-0.21379-0.37413-0.37413 0.0534 0 0 0 0 0l-0.42757-0.10689c0.21378-1.55 0.10689-3.1534-0.21379-4.7033-0.37413-1.55-1.0155-3.0465-1.8706-4.3826l0.32068-0.32068v-0.0534c0-0.16034 0.0534-0.37413 0.16034-0.48102 0.48102-0.42758 0.96204-0.74826 1.4965-1.0689 0.1069-0.0535 0.21379-0.10689 0.32068-0.16034 0.21379-0.10689 0.37413-0.21379 0.58792-0.32068 0.0534-0.0534 0.10689-0.0534 0.16034-0.1069 0.0534-0.0534 0-0.0534 0-0.10689 0.48103-0.37413 0.58792-1.0155 0.21379-1.4965-0.16034-0.21379-0.48102-0.37413-0.74826-0.37413-0.26723 0-0.53447 0.10689-0.74825 0.26723l-0.0534 0.0534c-0.0534 0.0534-0.1069 0.1069-0.16034 0.1069-0.16035 0.16034-0.32069 0.32068-0.42758 0.48102-0.0534 0.10689-0.16034 0.16034-0.21379 0.21379-0.37413 0.42757-0.85515 0.85515-1.3362 1.1758-0.10689 0.0534-0.21379 0.10689-0.32068 0.10689-0.0534 0-0.16034 0-0.21379-0.0534h-0.0534l-0.42757 0.26724c-0.42757-0.42757-0.90859-0.85515-1.3362-1.2827-1.9775-1.55-4.4361-2.512-6.9481-2.7792l-0.0534-0.42757v0.0534c-0.16034-0.1069-0.21379-0.26724-0.26723-0.42758 0-0.58791 0-1.1758 0.10689-1.8172v-0.0534c0-0.10689 0.0534-0.21379 0.0534-0.32068 0.0534-0.21379 0.0534-0.42758 0.10689-0.64136v-0.32069c0.0534-0.53447-0.37413-1.0689-0.9086-1.1224-0.32068-0.0534-0.64136 0.10689-0.90859 0.37413-0.21379 0.21378-0.32068 0.48102-0.32068 0.74825v0.26724c0 0.21379 0.0534 0.42757 0.10689 0.64136 0.0534 0.1069 0.0534 0.21379 0.0534 0.32068v0.0534c0.10689 0.58792 0.10689 1.1758 0.10689 1.8172-0.0534 0.16034-0.10689 0.32068-0.26723 0.42757v0.1069l-0.0534 0.42757c-0.58792 0.0534-1.1758 0.16034-1.8172 0.26724-2.512 0.53446-4.8102 1.8706-6.574 3.7413l-0.32068-0.21379h-0.0534c-0.0534 0-0.10689 0.0534-0.21379 0.0534-0.10689 0-0.21379-0.0534-0.32068-0.10689-0.48102-0.37413-0.96204-0.80171-1.3362-1.2293-0.0534-0.10689-0.16034-0.16034-0.21379-0.21379-0.16034-0.16034-0.26724-0.32068-0.42758-0.48102-0.0534-0.0534-0.10689-0.0534-0.16034-0.10689l-0.0534-0.0534c-0.21378-0.16035-0.48102-0.26724-0.74825-0.26724-0.32069 0-0.58792 0.10689-0.74826 0.37413-0.32068 0.48102-0.21379 1.1224 0.21379 1.4965 0.0534 0 0.0534 0.0534 0.0534 0.0534s0.1069 0.1069 0.16034 0.1069c0.16034 0.10689 0.37413 0.21379 0.58792 0.32068 0.10689 0.0534 0.21379 0.10689 0.32068 0.16034 0.53447 0.32068 1.0689 0.64136 1.4965 1.0689 0.10689 0.10689 0.21378 0.32068 0.16034 0.48102v-0.0535l0.32068 0.32068c-0.0534 0.1069-0.1069 0.16034-0.16034 0.26724-1.6569 2.6189-2.3517 5.7188-1.8706 8.7653l-0.42757 0.10689c0 0.0534-0.0534 0.0534-0.0534 0.0534-0.0534 0.16034-0.21379 0.26724-0.37413 0.37413-0.58792 0.16034-1.1758 0.26724-1.8172 0.32068-0.10689 0-0.21378 0-0.32068 0.0534-0.21378 0-0.42757 0.0534-0.64136 0.0534-0.0534 0-0.10689 0.0534-0.21379 0.0534-0.0534 0-0.0534 0-0.10689 0.0534-0.58792 0.1069-0.96205 0.64137-0.85515 1.2293 0.10689 0.48102 0.58791 0.80171 1.0689 0.74826 0.10689 0 0.16034 0 0.26723-0.0534 0.0534 0 0.0534 0 0.0534-0.0534s0.16034 0 0.21379 0c0.21378-0.0534 0.42757-0.16034 0.58791-0.21379 0.1069-0.0534 0.21379-0.10689 0.32068-0.10689h0.0534c0.58792-0.21379 1.1224-0.37413 1.7638-0.48102h0.0534c0.16034 0 0.32068 0.0534 0.42757 0.16034 0.0534 0 0.0534 0.0534 0.0534 0.0534l0.48102-0.0534c0.80171 2.4586 2.2982 4.6499 4.3826 6.2533 0.48102 0.37413 0.9086 0.69481 1.4431 0.96204l-0.26724 0.37413c0 0.0534 0.0534 0.0534 0.0534 0.0534 0.1069 0.16034 0.1069 0.37413 0.0534 0.53447-0.21378 0.53447-0.53446 1.0689-0.85515 1.55v0.0534c-0.0534 0.1069-0.10689 0.16034-0.21378 0.26724-0.1069 0.10689-0.21379 0.32068-0.37413 0.53446-0.0534 0.0534-0.0534 0.1069-0.1069 0.16035 0 0 0 0.0535-0.0534 0.0535-0.26723 0.53447-0.0534 1.1758 0.42758 1.4431 0.10689 0.0535 0.26723 0.1069 0.37413 0.1069 0.42757 0 0.8017-0.26724 1.0155-0.64136 0 0 0-0.0534 0.0534-0.0534 0-0.0534 0.0534-0.1069 0.10689-0.16034 0.0534-0.21379 0.16034-0.37413 0.21379-0.58792l0.10689-0.32069c0.16034-0.58791 0.42758-1.1224 0.69481-1.6568 0.1069-0.16034 0.26724-0.26723 0.42758-0.32068 0.0534 0 0.0534 0 0.0534-0.0534l0.21379-0.42758c1.4965 0.58792 3.0465 0.85515 4.6499 0.85515 0.96204 0 1.9241-0.10689 2.8861-0.37412 0.58792-0.1069 1.1758-0.32069 1.7103-0.48103l0.21378 0.37413c0.0534 0 0.0534 0 0.0534 0.0534 0.16034 0.0534 0.32068 0.16034 0.42758 0.32068 0.26723 0.53447 0.53447 1.0689 0.69481 1.6569v0.0534l0.10689 0.32068c0.0534 0.21379 0.10689 0.42757 0.21379 0.58792 0.0534 0.0534 0.0534 0.10689 0.10689 0.16034 0 0 0 0.0534 0.0534 0.0534 0.21379 0.37412 0.58792 0.64136 1.0155 0.64136 0.16034 0 0.26723-0.0534 0.42757-0.10689 0.21379-0.1069 0.42758-0.32069 0.48102-0.58792 0.0534-0.26723 0.0534-0.53447-0.0534-0.8017 0-0.0534-0.0534-0.0534-0.0534-0.0534 0-0.0535-0.0534-0.1069-0.10689-0.16034-0.1069-0.21379-0.21379-0.37413-0.37413-0.53447-0.0534-0.1069-0.10689-0.16034-0.21379-0.26724v-0.10689c-0.37413-0.48102-0.64136-1.0155-0.85515-1.55-0.0534-0.16034-0.0534-0.37413 0.0534-0.53447 0-0.0534 0.0534-0.0534 0.0534-0.0534l-0.16034-0.42758c2.7258-1.6568 4.8102-4.2223 5.7723-7.2688l0.42758 0.0534c0.0534 0 0.0534-0.0534 0.0534-0.0534 0.10689-0.10689 0.26723-0.16034 0.42757-0.16034h0.0534c0.58791 0.10689 1.1758 0.26724 1.7103 0.48102h0.0534c0.10689 0.0534 0.21379 0.1069 0.32068 0.1069 0.21379 0.10689 0.37413 0.21379 0.58792 0.26723 0.0534 0 0.10689 0.0534 0.21378 0.0534 0.0534 0 0.0534 0 0.1069 0.0534 0.10689 0.0534 0.16034 0.0534 0.26723 0.0534 0.48103 0 0.9086-0.32068 1.0689-0.74825-0.0534-0.58792-0.48102-1.0155-0.96204-1.1224zm-15.446-1.6568-1.4431 0.69481-1.4431-0.69481-0.37413-1.55 1.0155-1.2827h1.6034l1.0155 1.2827zm8.7118-3.474c0.26724 1.1224 0.32068 2.2448 0.21379 3.3672l-5.0775-1.4431c-0.48102-0.1069-0.74826-0.58792-0.64136-1.0689 0.0534-0.16034 0.10689-0.26724 0.21379-0.37413l4.0085-3.6344c0.58792 0.96204 1.0155 2.031 1.2827 3.1534zm-2.8861-5.1309-4.3826 3.0999c-0.37413 0.21379-0.9086 0.16035-1.1758-0.21378-0.1069-0.1069-0.16034-0.21379-0.16034-0.37413l-0.32069-5.3981c2.3517 0.26723 4.4361 1.2827 6.0395 2.8861zm-9.6739-2.7258 1.0689-0.21379-0.26723 5.3447c0 0.48103-0.42758 0.85516-0.9086 0.85516-0.16034 0-0.26724-0.0535-0.42758-0.1069l-4.4361-3.1534c1.3896-1.3362 3.0999-2.2982 4.9706-2.7258zm-6.5205 4.7033 3.9551 3.5275c0.37413 0.32068 0.42758 0.85515 0.10689 1.2293-0.10689 0.16034-0.21378 0.21378-0.42757 0.26723l-5.1844 1.4965c-0.16034-2.2448 0.37412-4.543 1.55-6.5205zm-0.9086 9.0325 5.2913-0.9086c0.42757 0 0.85515 0.26724 0.90859 0.69481 0.0534 0.16034 0.0534 0.37413-0.0534 0.53447l-2.031 4.9171c-1.8706-1.2293-3.3672-3.0999-4.1154-5.2378zm12.132 6.6274c-0.74825 0.16034-1.4965 0.26723-2.2982 0.26723-1.1224 0-2.2982-0.21379-3.3672-0.53447l2.6189-4.7568c0.26723-0.32068 0.69481-0.42758 1.0689-0.21379 0.16034 0.10689 0.26723 0.21379 0.42757 0.37413l2.5654 4.6499c-0.32068 0.0534-0.64136 0.10689-1.0155 0.21379zm6.5205-4.6499c-0.80171 1.2827-1.9241 2.4051-3.2068 3.2068l-2.0844-5.024c-0.10689-0.42757 0.10689-0.85515 0.48102-1.0155 0.16034-0.0534 0.32069-0.1069 0.48103-0.1069l5.3447 0.9086c-0.26724 0.74826-0.58792 1.4431-1.0155 2.031z" fill="#fff"/>
   <path d="m231 53.059c0.74826 0.0534 1.55-0.0534 2.2448-0.32069 0.42758-0.21378 0.69481-0.69481 0.64137-1.1758-0.0534-0.53447-0.37413-1.0155-0.85516-1.1758-0.8017-0.48102-1.7103-0.9086-2.6189-1.1758-0.90859-0.32069-1.7103-0.69481-2.4586-1.0689-0.69481-0.32068-1.2827-0.74826-1.8706-1.2827-0.53447-0.53447-0.90859-1.1224-1.1758-1.8172-0.32068-0.80171-0.42757-1.6569-0.42757-2.512-0.0534-1.7638 0.74825-3.474 2.1379-4.543 1.4431-1.1224 3.3672-1.6568 5.8257-1.6568 1.1758 0 2.4051 0.10689 3.5809 0.37412 0.90859 0.16035 1.8172 0.37413 2.7258 0.69481l-1.0155 4.543c-0.74824-0.26723-1.4431-0.42757-2.1913-0.64136-0.85515-0.21379-1.7638-0.26723-2.6189-0.26723-1.8172 0-2.7258 0.48102-2.7258 1.4965 0 0.21379 0.0534 0.42758 0.10689 0.64136 0.10689 0.21379 0.26723 0.37413 0.48102 0.53447s0.53447 0.32068 0.9086 0.53447 0.9086 0.42758 1.55 0.64136c1.0689 0.37413 2.1379 0.85516 3.0999 1.3896 0.74827 0.37413 1.3896 0.85516 1.9241 1.4965 0.48101 0.48102 0.80168 1.0689 1.0155 1.7638 0.21378 0.74825 0.3207 1.4965 0.3207 2.2448 0.10689 1.8172-0.74827 3.5809-2.2982 4.5964-1.4965 1.0155-3.6344 1.55-6.4136 1.55-1.55 0.0534-3.0465-0.10689-4.543-0.48102-0.85515-0.21378-1.6569-0.48102-2.4586-0.74825l0.96204-4.7033c0.96205 0.37412 1.9775 0.69481 2.993 0.9086 1.0689 0.0534 2.0844 0.16034 3.1534 0.16034m-29.449-5.8792c-0.0534-1.6034 0.26724-3.2068 0.80171-4.7033 0.48102-1.2827 1.2293-2.4051 2.1913-3.4206 0.9086-0.9086 1.9241-1.6034 3.0999-2.031 1.1758-0.48103 2.4051-0.69481 3.6344-0.69481 2.8861 0 5.1844 0.90859 6.8412 2.6723 1.6569 1.7638 2.512 4.3826 2.512 7.8032 0 0.32069 0 0.69482-0.0534 1.1224 0 0.42757-0.0534 0.74826-0.0534 1.0689h-13.041c0.1069 1.1224 0.69481 2.1913 1.6569 2.8327 1.1758 0.74826 2.5654 1.1224 3.9551 1.069 1.0155 0 2.0844-0.1069 3.0999-0.26724 0.85515-0.16034 1.7103-0.42758 2.512-0.80171l0.8017 4.7033c-0.37413 0.21378-0.8017 0.32068-1.2293 0.48102-0.58791 0.16034-1.1758 0.32068-1.7638 0.37413-0.64136 0.10689-1.2827 0.21378-2.031 0.32068-0.69481 0.0534-1.4431 0.10689-2.1913 0.10689-1.6569 0.0534-3.2603-0.21379-4.8102-0.8017-1.2827-0.48102-2.4051-1.2293-3.3672-2.1913-0.90859-0.96204-1.55-2.1379-1.9775-3.3672-0.37413-1.4431-0.58792-2.8861-0.58792-4.2758m13.522-2.1913c0-0.48102-0.1069-0.96205-0.26724-1.4431-0.10689-0.48102-0.37413-0.85515-0.64136-1.2293-0.32068-0.37413-0.69481-0.69481-1.1224-0.9086-0.53447-0.26723-1.0689-0.37412-1.6568-0.37412-0.58792 0-1.1224 0.10689-1.6569 0.37412-0.42757 0.21379-0.85515 0.48103-1.1758 0.85516-0.32068 0.37412-0.58792 0.8017-0.74826 1.2827s-0.26723 0.96205-0.32068 1.4431h7.5895m-29.182-13.255 5.7723-0.9086v5.9861h6.9481v4.8102h-6.9481v7.1619c-0.0534 1.0155 0.16034 2.031 0.64137 2.8861 0.42757 0.69481 1.2827 1.0689 2.6189 1.0689 0.64137 0 1.2827-0.0534 1.8706-0.16034 0.64136-0.10689 1.2293-0.26723 1.8172-0.48102l0.80171 4.4895c-0.74826 0.32068-1.55 0.53447-2.3517 0.74826-1.0155 0.21379-2.0844 0.32068-3.1534 0.32068-1.3362 0.0534-2.6723-0.16034-3.9016-0.64136-0.96205-0.37413-1.8172-1.0155-2.4586-1.7638-0.64137-0.8017-1.0689-1.7638-1.3362-2.7792-0.26724-1.1758-0.37413-2.4051-0.32069-3.581v-17.156m-23.356 15.446c-0.0534-1.6034 0.26724-3.2068 0.80171-4.7033 0.48102-1.2827 1.2293-2.4051 2.1913-3.4206 0.9086-0.9086 1.9241-1.6034 3.0999-2.031 1.1758-0.48103 2.4051-0.69481 3.6344-0.69481 2.8861 0 5.1844 0.90859 6.8412 2.6723 1.6569 1.7638 2.512 4.3826 2.512 7.8032 0 0.32069 0 0.69482-0.0534 1.1224s-0.0534 0.74826-0.0534 1.0689h-13.094c0.10689 1.1224 0.69481 2.1913 1.6568 2.8327 1.1758 0.74826 2.5655 1.1224 3.9551 1.069 1.0155 0 2.0844-0.1069 3.0999-0.26724 0.85515-0.16034 1.7103-0.42758 2.5654-0.80171l0.8017 4.7033c-0.37412 0.21378-0.8017 0.32068-1.2293 0.48102-0.58791 0.16034-1.1758 0.32068-1.7638 0.37413-0.64136 0.10689-1.2827 0.21378-2.031 0.32068-0.69481 0.0534-1.4431 0.10689-2.1913 0.10689-1.6569 0.0534-3.2603-0.21379-4.8102-0.8017-1.2827-0.48102-2.4051-1.2293-3.3672-2.1913-0.9086-0.96204-1.55-2.1379-1.9775-3.3672-0.42757-1.4431-0.64136-2.8861-0.58792-4.2758m13.522-2.1913c0-0.48102-0.1069-0.96205-0.26724-1.4431-0.10689-0.48102-0.37412-0.85515-0.64136-1.2293-0.32068-0.37413-0.69481-0.69481-1.1224-0.9086-0.53446-0.26723-1.0689-0.37412-1.6568-0.37412s-1.1224 0.10689-1.6568 0.37412c-0.42758 0.21379-0.80171 0.48103-1.1224 0.85516-0.32068 0.37412-0.58792 0.8017-0.74826 1.2827s-0.26723 0.96205-0.32068 1.4431h7.536m-35.435-7.4826c1.2293-0.32068 2.512-0.58792 3.7947-0.80171 1.6034-0.26723 3.2603-0.37412 4.8637-0.37412 1.4431-0.0534 2.8861 0.21378 4.2758 0.69481 1.0689 0.37412 2.031 1.0155 2.7258 1.8706 0.6948 0.85515 1.1758 1.8706 1.4431 2.9396 0.32068 1.2293 0.42758 2.512 0.42758 3.7947v11.491h-5.7188v-10.743c0-1.8706-0.26724-3.1534-0.74826-3.9551-0.48102-0.74826-1.3896-1.1758-2.7258-1.1758-0.42758 0-0.85515 0-1.3362 0.0534-0.48102 0-0.85515 0.0534-1.2293 0.1069v15.713h-5.7723v-19.615m-4.062 4.4361c-0.53447-0.10689-1.1224-0.26723-1.8172-0.37412-0.74826-0.16035-1.4965-0.21379-2.2448-0.21379-0.42757 0-0.85515 0.0534-1.3362 0.10689-0.37413 0.0534-0.74826 0.1069-1.1224 0.21379v15.553h-5.7723v-19.348c1.1758-0.42758 2.4051-0.74826 3.6344-1.0155 1.55-0.37413 3.1534-0.53447 4.7033-0.48103 0.37412 0 0.74825 0.0534 1.1224 0.0534 0.42758 0 0.85515 0.0534 1.3362 0.16034 0.42757 0.0535 0.85514 0.1069 1.3362 0.21379 0.37413 0.0534 0.74826 0.16034 1.1224 0.32068l-0.96204 4.8102m-35.863 5.2378c-0.0534-1.6034 0.26723-3.2068 0.8017-4.7033 0.48102-1.2827 1.2293-2.4051 2.1913-3.4206 0.9086-0.9086 1.9241-1.6034 3.0999-2.031 1.1758-0.48102 2.4051-0.69481 3.6344-0.69481 2.8861 0 5.1844 0.9086 6.8412 2.6724 1.6568 1.7637 2.512 4.3826 2.512 7.7498 0 0.32068 0 0.69481-0.0534 1.1224-0.0535 0.42757-0.0535 0.74825-0.0535 1.0689h-13.094c0.1069 1.1224 0.69481 2.1913 1.6569 2.8327 1.1758 0.74826 2.5654 1.1224 3.9551 1.0689 1.0155 0 2.0844-0.10689 3.0999-0.26723 0.85515-0.16034 1.7103-0.42758 2.512-0.74826l0.8017 4.7033c-0.37413 0.21379-0.8017 0.32068-1.2293 0.48102-0.58792 0.16034-1.1758 0.32068-1.7638 0.37413-0.64136 0.10689-1.2827 0.21379-2.031 0.32068-0.69481 0.0534-1.4431 0.1069-2.1913 0.1069-1.6568 0.0535-3.2603-0.21379-4.8102-0.80171-1.2827-0.48102-2.4051-1.2293-3.3672-2.1913-0.9086-0.96205-1.55-2.1379-1.9775-3.3672-0.32068-1.4431-0.53447-2.8327-0.53447-4.2758m13.576-2.1913c0-0.48102-0.10689-0.96204-0.26724-1.4431-0.10689-0.48102-0.37412-0.85515-0.64136-1.2293-0.32068-0.37413-0.69481-0.69481-1.1224-0.9086-0.53447-0.26724-1.0689-0.37413-1.6569-0.37413s-1.1224 0.10689-1.6568 0.37413c-0.42758 0.21379-0.85515 0.48102-1.1758 0.85515-0.32068 0.37413-0.58791 0.8017-0.74825 1.2827-0.16034 0.48103-0.26724 0.96205-0.32068 1.4431h7.5895m-22.929 1.8706c0-3.7413-1.3896-5.5585-4.1154-5.5585-0.58791 0-1.1758 0.0534-1.7638 0.21379-0.48102 0.1069-0.96204 0.32068-1.3896 0.58792v10.476c0.26723 0.0534 0.64136 0.10689 1.0689 0.16034 0.42758 0.0534 0.9086 0.0534 1.4431 0.0534 1.3896 0.10689 2.7258-0.48103 3.5809-1.6034 0.80171-1.2827 1.2293-2.7792 1.1758-4.3292m5.8792 0.21378c0 1.4965-0.21379 2.993-0.74826 4.4361-0.42757 1.2827-1.1224 2.4051-2.031 3.3672-0.96205 0.96205-2.0844 1.7103-3.3137 2.1913-1.4431 0.53447-2.9396 0.74826-4.4895 0.74826-0.69481 0-1.4431-0.0534-2.1913-0.1069-0.74825-0.0534-1.4965-0.16034-2.2448-0.21379-0.69481-0.10689-1.3896-0.21378-2.0844-0.37413-0.69481-0.10689-1.2827-0.26723-1.7638-0.48102v-28.594l5.7723-0.9086v10.155c0.64136-0.26723 1.3362-0.48102 2.031-0.64136 0.74825-0.16034 1.4965-0.21379 2.2448-0.21379 1.3362 0 2.6189 0.21379 3.8482 0.8017 1.0689 0.48103 2.031 1.2293 2.7792 2.1379 0.80171 1.0155 1.3896 2.1379 1.7103 3.3672 0.32068 1.3362 0.48102 2.8327 0.48102 4.3292m-24.372 9.4067c-1.2293 0.32068-2.512 0.58792-3.7947 0.74826-1.6034 0.26723-3.2603 0.37412-4.8637 0.37412-1.4965 0.0534-2.9396-0.21378-4.3292-0.69481-1.0689-0.42757-1.9775-1.0689-2.7258-1.9241-0.69481-0.9086-1.1758-1.9241-1.4431-3.0465-0.32069-1.2293-0.42758-2.5654-0.42758-3.8482v-11.277h5.7723v10.636c0 1.8706 0.26723 3.2068 0.74826 4.0085 0.48102 0.8017 1.3896 1.2293 2.7258 1.2293 0.42757 0 0.85515 0 1.3362-0.0534s0.85515-0.0534 1.2293-0.16034v-15.66h5.7723v19.668m-33.672-12.293c0.58791-0.64136 1.1224-1.2827 1.7637-1.9241 0.58792-0.69481 1.1758-1.3362 1.7638-1.9775 0.58792-0.69481 1.1224-1.2827 1.6034-1.8706 0.48102-0.58792 0.96204-1.1224 1.3362-1.55h6.8412c-1.3896 1.55-2.7258 3.0999-4.0085 4.543-1.3362 1.4431-2.7258 2.9396-4.2758 4.4361 0.85515 0.8017 1.6568 1.6034 2.4051 2.512 0.8017 0.96205 1.6034 1.9241 2.4051 2.993 0.74826 1.0155 1.4965 2.0844 2.1379 3.0999 0.64136 1.0155 1.1758 1.9775 1.6034 2.8327h-6.6274c-0.42758-0.69481-0.9086-1.3896-1.4431-2.1913-0.53447-0.80171-1.1224-1.6034-1.6569-2.4586-0.58791-0.80171-1.2293-1.6034-1.9241-2.3517-0.58791-0.69481-1.2293-1.3362-1.9241-1.8706v8.9256h-5.7723v-29.289l5.7723-0.9086v17.05"/>
  </g>
  <rect x="17.717" y="276.68" width="3.12" height="2.745" ry="0" fill="#fff" stroke="#000008" stroke-linecap="round" stroke-width=".26654"/>
  <g transform="translate(-60.044 3.8747)">
   <rect x="66.281" y="259.29" width="26.08" height="13.985" ry="4.3467" fill="#fff" stroke="#000" stroke-linecap="round" stroke-width=".35278"/>
   <g transform="matrix(.15 0 0 .15 63.971 251.6)">
    <path d="m142.86 108.99-0.0112-6.7622-0.0336-12.08m6.8406 5.206-6.807 6.8741 6.8406 6.7846m-45.6-6.695c0.0329-1.4502-0.38868-2.932-1.2427-4.1312-1.2306-1.7281-3.2224-2.9079-5.4075-2.9333-0.14568 0-0.28988 0-0.43664 0.0112-0.86381 0.0534-1.7004 0.1734-2.4406 0.48142-4.8685 2.0256-5.7311 8.7863-1.6234 11.845 3.5572 2.6488 8.7317 1.5673 10.524-2.4742 0.37873-0.85404 0.62695-1.9307 0.62695-2.7989v-12.226m32.848 5.9673c-1.008-0.65135-2.184-0.88634-3.3475-0.88446-0.12616 0-0.25587 6e-3 -0.36946 0.0112-3.3636 0.14467-6.4823 2.5216-6.4823 7.1316 0 5.4505 5.8441 8.3922 10.21 5.8217m19.615-0.59337c3.4401-2.9468 10.334-8.8557 10.334-8.8557s-0.25132-0.4755-0.41424-0.69414c-1.391-1.8668-3.5161-2.7989-5.7546-2.7989-5.5321 0-9.6789 7.1534-4.1648 12.349 0.38179 0.35973 0.90626 0.64149 1.489 0.88445 2.0234 0.84359 4.7933 0.7744 6.292-0.33587m-48.949-12.875c-0.15682 3e-3 -0.31272 0.0195-0.47022 0.0224-4.1949 0.0771-7.2195 4.4342-6.3032 8.4751 0.89291 3.9378 5.1948 6.2695 8.9118 4.9821 4.3282-1.1349 6.0935-6.5852 3.717-10.266-1.2998-2.0134-3.5029-3.2579-5.8553-3.2132zm63.692 0.13434c-1.6986 5e-3 -3.353 0.5995-4.579 1.7465-1.9335 1.5958-2.3533 3.6109-2.3287 6.1576l0.056 5.7882" fill="none" stroke="#394d54" stroke-linecap="round" stroke-linejoin="round" stroke-width="2.7781"/>
    <path d="m58.101 91.126h6.05v6.1846h3.059c1.4126 0 2.8656-0.25166 4.2034-0.70497 0.65736-0.22289 1.3952-0.53308 2.0436-0.92318-0.85403-1.115-1.29-2.523-1.4184-3.9108-0.17429-1.8876 0.20646-4.3446 1.484-5.822l0.63596-0.73558 0.75782 0.60918c1.908 1.5329 3.5126 3.6749 3.7955 6.1167 2.2974-0.67578 4.9947-0.51594 7.0198 0.65282l0.83079 0.47937-0.43729 0.85347c-1.7126 3.3426-5.293 4.378-8.7934 4.1948-5.238 13.046-16.642 19.223-30.469 19.223-7.1435 0-13.697-2.6704-17.43-9.0082-0.21882-0.3937-0.4062-0.80537-0.60493-1.2097-1.2616-2.7898-1.6806-5.846-1.3963-8.8997l0.0853-0.91469h5.1734v-6.1846h6.05v-6.05h12.1v-6.05h7.2601v12.1" fill="#394d54" stroke-width=".26458"/>
    <g transform="matrix(.26458 0 0 .26458 19.078 79.026)" clip-path="url(#clipPath8)">
     <g id="g18">
      <g id="g20" transform="translate(0,-22.866)">
       <path d="m123.86 3.8111h19.818v19.817h-19.818z" fill="#00acd3"/>
       <path d="m123.86 26.676h19.818v19.818h-19.818z" fill="#20c2ef"/>
       <path id="path26" d="m126.29 21.977v-16.516m2.9718 16.516v-16.516m3.0018 16.516v-16.516m3.0034 16.516v-16.516m3.0029 16.516v-16.516m2.9713 16.516v-16.516" stroke="#394d54" stroke-width="1.56"/>
       <use transform="translate(0,22.866)" width="100%" height="100%" xlink:href="#path26"/>
      </g>
      <use transform="matrix(1 0 0 -1 22.866 4.5727)" width="100%" height="100%" xlink:href="#g20"/>
     </g>
     <use transform="translate(-91.464,45.732)" width="100%" height="100%" xlink:href="#g18"/>
     <use transform="translate(-45.732,45.732)" width="100%" height="100%" xlink:href="#g18"/>
     <use transform="translate(0,45.732)" width="100%" height="100%" xlink:href="#g18"/>
    </g>
    <path transform="matrix(.26458 0 0 .26458 19.078 79.026)" d="m221.57 54.38c1.5333-11.915-7.3838-21.275-12.914-25.718-6.3727 7.3678-7.363 26.678 2.635 34.807-5.5795 4.9561-17.337 9.4484-29.376 9.4484h-147.92c-1.1707 12.567 0 73.083 0 73.083h217l-0.98657-91.424c-9.3986-5.4237-21.484-3.6943-28.443-0.19655" clip-path="url(#clipPath8)" fill="#17b5eb"/>
    <path transform="matrix(.26458 0 0 .26458 19.078 79.026)" d="m34 89v57h217v-57" clip-path="url(#clipPath8)" fill-opacity=".17"/>
    <path transform="matrix(.26458 0 0 .26458 19.078 79.026)" d="m111.24 140.89c-13.54-6.4252-20.972-15.159-25.107-24.694l-41.131 1.8044 21 28 45.237-5.11" clip-path="url(#clipPath8)" fill="#d4edf1"/>
    <path transform="matrix(.26458 0 0 .26458 19.078 79.026)" d="m222.5 53.938v0.03125c-20.861 26.889-50.783 50.379-82.906 62.719-28.655 11.008-53.638 11.06-70.875 2.2188-1.8561-1.0483-3.6757-2.2115-5.5-3.3125-12.637-8.832-19.754-23.441-19.156-42.688h-10.062v73.094h217v-96h-25z" clip-path="url(#clipPath8)" fill-opacity=".085"/>
    <path d="m31.15 109.99c3.7479 0.20513 7.7476 0.24191 11.237-0.85163" fill="none" stroke="#394d54" stroke-linecap="round" stroke-width=".89958"/>
    <g stroke-width=".26458">
     <path d="m46.111 107.33c0 0.79877-0.64758 1.4463-1.4464 1.4463-0.79891 0-1.4466-0.64757-1.4466-1.4463s0.64772-1.4466 1.4466-1.4466c0.79877 0 1.4464 0.64786 1.4464 1.4466z" fill="#d4edf1"/>
     <path d="m45.04 106.36c-0.12625 0.073-0.2117 0.20972-0.2117 0.36615 0 0.23353 0.18931 0.42256 0.42284 0.42256 0.15998 0 0.29899-0.0888 0.37083-0.22007 0.0507 0.12229 0.0789 0.25663 0.0789 0.39748 0 0.57205-0.46379 1.0358-1.036 1.0358-0.57205 0-1.0361-0.46379-1.0361-1.0358 0-0.57233 0.46407-1.0363 1.0361-1.0363 0.13235 0 0.25861 0.0249 0.37509 0.0701z" fill="#394d54"/>
     <path d="m19.078 102.88h67.291c-1.4652-0.37168-4.6358-0.87373-4.1129-2.7939-2.6641 3.0829-9.0892 2.1628-10.711 0.64262-1.8057 2.6189-12.318 1.6235-13.051-0.41674-2.2637 2.6566-9.2782 2.6566-11.542 0-0.73345 2.0402-11.245 3.0357-13.051 0.41674-1.6215 1.5202-8.046 2.4402-10.71-0.64262 0.52288 1.9202-2.6477 2.4222-4.1132 2.7939" fill="#394d54"/>
    </g>
   </g>
  </g>
  <rect x="17.813" y="261.07" width="2.9285" height="2.5713" fill="#fff"/>
  <g transform="translate(-18.71 32.128)">
   <rect x="24.946" y="246.39" width="26.08" height="13.985" ry="4.3467" fill="#fff" stroke="#000" stroke-linecap="round" stroke-width=".35278"/>
   <g transform="matrix(.1215 0 0 .1215 31.256 224)">
    <g stroke-width=".35278">
     <path d="m57.313 291.12c-0.51505 0-1.0266-0.13512-1.4781-0.39511l-4.705-2.7855c-0.70273-0.393-0.35983-0.53199-0.12806-0.61207 0.93698-0.32808 1.1271-0.40217 2.1272-0.97014 0.10513-0.06 0.24271-0.0388 0.35031 0.0247l3.6146 2.1449c0.13053 0.0705 0.31574 0.0705 0.43674 0l14.093-8.135c0.13053-0.0741 0.21519-0.22577 0.21519-0.381v-16.263c0-0.16228-0.08467-0.30692-0.21802-0.38806l-14.088-8.128c-0.13053-0.0776-0.30339-0.0776-0.43391 0l-14.085 8.128c-0.13652 0.0776-0.22331 0.22931-0.22331 0.38453v16.263c0 0.15522 0.08467 0.30338 0.21872 0.37747l3.8594 2.2296c2.0955 1.0478 3.3761-0.18697 3.3761-1.4288v-16.051c0-0.2293 0.17992-0.40569 0.40922-0.40569h1.7851c0.22225 0 0.40569 0.17639 0.40569 0.40569v16.058c0 2.794-1.524 4.3991-4.1734 4.3991-0.81491 0-1.457 0-3.2491-0.88194l-3.6971-2.1308c-0.91369-0.52916-1.4781-1.5169-1.4781-2.5717v-16.263c0-1.0583 0.56444-2.0461 1.4781-2.5682l14.108-8.1386c0.89253-0.50448 2.0779-0.50448 2.9633 0l14.09 8.1421c0.91016 0.52564 1.4781 1.5099 1.4781 2.5682v16.263c0 1.0548-0.56797 2.0391-1.4781 2.5682l-14.09 8.1386c-0.45155 0.26106-0.96308 0.39511-1.4852 0.39511" fill="#689f63"/>
     <path d="m61.666 279.91c-6.1665 0-7.4595-2.8307-7.4595-5.2049 0-0.22578 0.18203-0.4057 0.40816-0.4057h1.8203c0.20108 0 0.37042 0.1464 0.40217 0.34502 0.27517 1.8549 1.0936 2.7905 4.8225 2.7905 2.9704 0 4.2333-0.67098 4.2333-2.2461 0-0.90664-0.35983-1.5804-4.9742-2.032-3.8594-0.381-6.2442-1.2312-6.2442-4.318 0-2.8434 2.3989-4.5367 6.417-4.5367 4.512 0 6.7486 1.5663 7.0308 4.9318 0.01058 0.11642-0.03175 0.22931-0.10936 0.31397-0.07761 0.0811-0.18697 0.13053-0.29986 0.13053h-1.8309c-0.1905 0-0.35631-0.13405-0.39511-0.3175-0.44097-1.9508-1.5064-2.5753-4.4027-2.5753-3.242 0-3.6195 1.1289-3.6195 1.9756 0 1.0266 0.4445 1.3264 4.8189 1.905 4.3321 0.57503 6.3888 1.3864 6.3888 4.4309 0 3.0692-2.5612 4.8295-7.0273 4.8295m17.166-17.247h0.47272c0.38805 0 0.46214-0.27163 0.46214-0.43038 0-0.41628-0.28575-0.41628-0.4445-0.41628h-0.48683zm-0.57503-1.3335h1.0478c0.35983 0 1.0654 0 1.0654 0.80433 0 0.56091-0.35984 0.67733-0.57503 0.74789 0.4198 0.0282 0.44803 0.30338 0.50447 0.69144 0.0282 0.24342 0.0741 0.66322 0.15875 0.80433h-0.64558c-0.01765-0.14111-0.11642-0.91722-0.11642-0.95955-0.04233-0.17286-0.1023-0.25753-0.3175-0.25753h-0.53269v1.2206h-0.58914zm-1.2594 1.5169c0 1.2629 1.0195 2.286 2.2719 2.286 1.2629 0 2.2825-1.0442 2.2825-2.286 0-1.2665-1.0336-2.2719-2.286-2.2719-1.2347 0-2.2719 0.99131-2.2719 2.2684m4.9953 0.0106c0 1.4958-1.2241 2.7164-2.7164 2.7164-1.4817 0-2.7164-1.2065-2.7164-2.7164 0-1.5381 1.2629-2.7164 2.7164-2.7164 1.464 0 2.7129 1.1818 2.7129 2.7164" fill="#689f63"/>
     <path d="m13.671 227.48c0-0.64911-0.34219-1.2453-0.9024-1.5681l-14.942-8.5972c-0.25224-0.14816-0.53481-0.22577-0.82126-0.23636h-0.15452c-0.28646 0.0106-0.56903 0.0882-0.8255 0.23636l-14.942 8.5972c-0.55668 0.32456-0.90382 0.92075-0.90382 1.5699l0.03281 23.156c0 0.32103 0.1658 0.62089 0.44803 0.77964 0.27517 0.16933 0.62089 0.16933 0.89605 0l8.8829-5.087c0.56092-0.33372 0.90311-0.92357 0.90311-1.5663v-10.818c0-0.64558 0.34219-1.2418 0.90134-1.5628l3.7818-2.178c0.28081-0.16227 0.58914-0.24271 0.90311-0.24271 0.30903 0 0.62442 0.0797 0.89746 0.24236l3.78 2.1773c0.5595 0.32103 0.90311 0.91722 0.90311 1.5628v10.817c0 0.64205 0.34678 1.2347 0.90487 1.5663l8.8773 5.0835c0.27869 0.1658 0.62547 0.1658 0.90311 0 0.27375-0.15875 0.44732-0.45861 0.44732-0.77964zm70.509 12.057c0 0.16122-0.0857 0.31044-0.22578 0.39017l-5.1322 2.9584c-0.13934 0.0801-0.3115 0.0801-0.4505 0l-5.1329-2.9584c-0.14111-0.0801-0.22578-0.2293-0.22578-0.39017v-5.9252c0-0.16158 0.08467-0.31045 0.22225-0.39159l5.1294-2.9633c0.14111-0.0811 0.31397-0.0811 0.45508 0l5.1329 2.9633c0.14111 0.0811 0.22578 0.23001 0.22578 0.39159zm1.3864-43.886c-0.2801-0.15593-0.62088-0.1517-0.89746 0.01-0.27517 0.16228-0.4452 0.45861-0.4452 0.77964v22.931c0 0.22578-0.11995 0.43392-0.31539 0.54681-0.19402 0.11289-0.43568 0.11289-0.63147 0l-3.743-2.1558c-0.55739-0.32244-1.2439-0.32244-1.8034 0l-14.947 8.6265c-0.55845 0.32102-0.90311 0.91722-0.90311 1.5593v17.258c0 0.64558 0.34466 1.2382 0.90311 1.5628l14.947 8.6325c0.55809 0.32102 1.2453 0.32102 1.8052 0l14.947-8.636c0.55738-0.32455 0.90311-0.91722 0.90311-1.5628v-43.011c0-0.65475-0.35631-1.2569-0.92781-1.5769zm49.774 37.805c0.55527-0.32244 0.89711-0.91793 0.89711-1.56v-4.1825c0-0.64346-0.34219-1.2372-0.89852-1.561l-14.852-8.6219c-0.56092-0.32456-1.2488-0.32456-1.8098 0l-14.944 8.6254c-0.56091 0.32455-0.90311 0.91722-0.90311 1.5628v17.251c0 0.64911 0.34925 1.2488 0.91017 1.5699l14.848 8.4631c0.5468 0.31398 1.2171 0.3175 1.7709 0.0106l8.9817-4.9918c0.28222-0.15875 0.46213-0.45861 0.46213-0.78317 0-0.32455-0.17286-0.62794-0.45508-0.78669l-15.035-8.6289c-0.28222-0.15875-0.45508-0.45861-0.45508-0.77964v-5.4116c0-0.32314 0.16933-0.62088 0.45155-0.78175l4.6778-2.6987c0.27869-0.16228 0.62088-0.16228 0.89958 0l4.6814 2.6987c0.2787 0.15875 0.45156 0.45861 0.45156 0.77964v4.2545c0 0.32103 0.17286 0.62089 0.45155 0.78316 0.27869 0.15875 0.62442 0.15875 0.90311-4e-3z" fill="#333" fill-rule="evenodd"/>
     <path d="m119.36 232.65c0.10583-0.0624 0.23847-0.0624 0.34572 0l2.8681 1.6545c0.10725 0.0621 0.17286 0.17639 0.17286 0.29986v3.3126c0 0.12348-0.0656 0.23778-0.17286 0.29986l-2.8681 1.6545c-0.10725 0.0624-0.23989 0.0624-0.34572 0l-2.8663-1.6545c-0.10936-0.0621-0.17639-0.17638-0.17639-0.29986v-3.3126c0-0.12347 0.0635-0.23777 0.17286-0.29986z" fill="#689f63" fill-rule="evenodd"/>
    </g>
    <g transform="matrix(.35278 0 0 .35278 -47.445 137.68)" clip-path="url(#a)">
     <path d="m331.36 246.79-118.72-58.19-60.87 124.17 118.71 58.193z" fill="url(#b)"/>
    </g>
    <g transform="matrix(.35278 0 0 .35278 -47.445 137.68)" clip-path="url(#c)">
     <path d="m144.07 264 83.825 113.45 110.86-81.906-83.83-113.45z" fill="url(#d)"/>
    </g>
    <g transform="matrix(.35278 0 0 .35278 -47.445 137.68)" clip-path="url(#e)">
     <path d="m197.02 225.93v107.43h91.683v-107.43z" fill="url(#f)"/>
    </g>
   </g>
  </g>
  <rect x="17.813" y="276.63" width="2.9285" height="2.5713" fill="#fff"/>
  <g transform="matrix(.18 0 0 .18 9.3944 193.84)">
   <g transform="matrix(.35278 0 0 -.35278 15.843 336.23)">
    <path d="m0 0h-30.267c-0.781 0-1.415-0.634-1.415-1.415v-14.798c0-0.781 0.634-1.416 1.415-1.416h11.807v-18.386s-2.651-0.903-9.981-0.903c-8.647 0-20.727 3.159-20.727 29.723 0 26.569 12.579 30.065 24.388 30.065 10.222 0 14.626-1.8 17.428-2.667 0.881-0.269 1.695 0.607 1.695 1.388l3.377 14.298c0 0.366-0.124 0.806-0.54 1.105-1.138 0.812-8.081 4.697-25.621 4.697-20.205 0-40.932-8.597-40.932-49.922 0-41.326 23.73-47.484 43.727-47.484 16.557 0 26.601 7.075 26.601 7.075 0.414 0.228 0.459 0.807 0.459 1.072v46.153c0 0.781-0.633 1.415-1.414 1.415" fill="#0f0e0f"/>
   </g>
   <g transform="matrix(.35278 0 0 -.35278 70.871 323.27)">
    <path d="m0 0c0 0.787-0.624 1.423-1.405 1.423h-17.042c-0.779 0-1.411-0.636-1.411-1.423 0-4e-3 4e-3 -32.935 4e-3 -32.935h-26.564v32.935c0 0.787-0.627 1.423-1.407 1.423h-17.041c-0.775 0-1.407-0.636-1.407-1.423v-89.178c0-0.786 0.632-1.426 1.407-1.426h17.041c0.78 0 1.407 0.64 1.407 1.426v38.145h26.564s-0.046-38.142-0.046-38.145c0-0.786 0.631-1.426 1.412-1.426h17.082c0.78 0 1.404 0.64 1.406 1.426z" fill="#0f0e0f"/>
   </g>
   <g transform="matrix(.35278 0 0 -.35278 27.188 327.4)">
    <path d="m0 0c0 6.136-4.92 11.095-10.99 11.095-6.064 0-10.987-4.959-10.987-11.095 0-6.13 4.923-11.103 10.987-11.103 6.07 0 10.99 4.973 10.99 11.103" fill="#0f0e0f"/>
   </g>
   <g transform="matrix(.35278 0 0 -.35278 26.758 348.09)">
    <path d="m0 0v41.165c0 0.781-0.63 1.42-1.41 1.42h-16.988c-0.78 0-1.477-0.803-1.477-1.585v-58.977c0-1.732 1.08-2.248 2.478-2.248h15.306c1.679 0 2.091 0.825 2.091 2.276z" fill="#0f0e0f"/>
   </g>
   <g transform="matrix(.35278 0 0 -.35278 93.719 333.12)">
    <path d="m0 0h-16.911c-0.776 0-1.407-0.639-1.407-1.426v-43.726s-4.297-3.144-10.395-3.144-7.716 2.767-7.716 8.738v38.132c0 0.787-0.63 1.426-1.406 1.426h-17.164c-0.774 0-1.409-0.639-1.409-1.426v-41.019c0-17.735 9.884-22.074 23.481-22.074 11.156 0 20.15 6.163 20.15 6.163s0.427-3.248 0.622-3.633c0.193-0.384 0.698-0.772 1.244-0.772l10.919 0.048c0.774 0 1.409 0.64 1.409 1.424l-6e-3 59.863c0 0.787-0.632 1.426-1.411 1.426" fill="#0f0e0f"/>
   </g>
   <g transform="matrix(.35278 0 0 -.35278 107.67 350.14)">
    <path d="m0 0c-5.866 0.179-9.845 2.84-9.845 2.84v28.241s3.925 2.406 8.741 2.836c6.09 0.545 11.958-1.294 11.958-15.822 0-15.319-2.648-18.343-10.854-18.095m6.67 50.245c-9.605 0-16.138-4.286-16.138-4.286v30.198c0 0.787-0.63 1.423-1.406 1.423h-17.091c-0.777 0-1.408-0.636-1.408-1.423v-89.178c0-0.787 0.631-1.427 1.41-1.427h11.858c0.534 0 0.938 0.276 1.237 0.758 0.295 0.479 0.72 4.111 0.72 4.111s6.988-6.622 20.217-6.622c15.532 0 24.439 7.878 24.439 35.366s-14.226 31.08-23.838 31.08" fill="#0f0e0f"/>
   </g>
   <g transform="matrix(.35278 0 0 -.35278 44.037 333.07)">
    <path d="m0 0h-12.784s-0.019 16.885-0.019 16.889c0 0.639-0.329 0.959-1.069 0.959h-17.42c-0.677 0-1.041-0.299-1.041-0.95v-17.452s-8.73-2.107-9.32-2.278c-0.588-0.17-1.021-0.712-1.021-1.359v-10.967c0-0.788 0.63-1.425 1.409-1.425h8.932v-26.384c0-19.596 13.746-21.521 23.021-21.521 4.239 0 9.309 1.361 10.146 1.67 0.506 0.186 0.801 0.71 0.801 1.278l0.014 12.065c0 0.787-0.665 1.424-1.413 1.424-0.745 0-2.651-0.303-4.613-0.303-6.279 0-8.407 2.919-8.407 6.698 0 3.777-1e-3 25.073-1e-3 25.073h12.785c0.779 0 1.411 0.637 1.411 1.425v13.737c0 0.787-0.632 1.421-1.411 1.421" fill="#0f0e0f"/>
   </g>
  </g>
  <g transform="translate(.58093 .52917)">
   <g transform="matrix(.11638 .02172 -.023376 .11764 2.598 209.81)">
    <g transform="translate(14.288 -2.249)" fill="#fff">
     <g shape-rendering="auto">
      <path d="m77.812 110.3c-5.5213 0-10 4.4787-10 10 2e-6 5.5213 4.4787 10 10 10s10-4.4787 10-10c3e-6 -5.5213-4.4787-10-10-10zm0 0.26563c5.3782 0 9.7363 4.3562 9.7363 9.7344-2e-6 5.3782-4.3581 9.7344-9.7363 9.7344s-9.7344-4.3562-9.7344-9.7344c-3e-6 -5.3782 4.3562-9.7344 9.7344-9.7344z" color="#000000" color-rendering="auto" dominant-baseline="auto" fill="#010000" image-rendering="auto" solid-color="#000000" style="font-feature-settings:normal;font-variant-alternates:normal;font-variant-caps:normal;font-variant-ligatures:normal;font-variant-numeric:normal;font-variant-position:normal;isolation:auto;mix-blend-mode:normal;shape-padding:0;text-decoration-color:#000000;text-decoration-line:none;text-decoration-style:solid;text-indent:0;text-orientation:mixed;text-transform:none;white-space:normal"/>
      <path d="m98.994 105.48-0.12695 0.0215s-4.6846 0.82689-11.9 4.541c-3.0181 1.5535-6.4823 3.6126-10.234 6.3281-6.357 4.6008-11.352 8.8979-14.682 11.984-1.6648 1.5432-2.9125 2.7846-3.707 3.6094-0.39725 0.41237-0.68066 0.72001-0.84766 0.91211-0.0835 0.096-0.13621 0.15936-0.16797 0.20703-0.0079 0.0119-0.01466 0.0214-0.02344 0.043-0.0022 5e-3 -0.0036 0.0105-0.0059 0.0195s-0.0039 0.0385-0.0039 0.0391c2.1e-5 6.1e-4 0.02318 0.0738 0.02344 0.0742 2.59e-4 3.6e-4 0.07958 0.0526 0.08008 0.0527 3.59e-4 8e-5 0.02493-2.3e-4 0.04102 0l8.8379 6.9629 34.896-23.623zm-0.20703 0.31641 2.0938 10.734-34.592 23.416-8.6562-6.8203c0.02337-0.0285 0.02817-0.0367 0.0625-0.0762 0.16158-0.18586 0.44466-0.4921 0.83984-0.90234 0.79038-0.82047 2.034-2.0576 3.6953-3.5977 3.3227-3.08 8.3112-7.3714 14.658-11.965 3.7409-2.7074 7.1925-4.759 10.199-6.3066 7.0491-3.6283 11.524-4.4506 11.699-4.4824z" color="#000000" color-rendering="auto" dominant-baseline="auto" fill="#010000" image-rendering="auto" solid-color="#000000" style="font-feature-settings:normal;font-variant-alternates:normal;font-variant-caps:normal;font-variant-ligatures:normal;font-variant-numeric:normal;font-variant-position:normal;isolation:auto;mix-blend-mode:normal;shape-padding:0;text-decoration-color:#000000;text-decoration-line:none;text-decoration-style:solid;text-indent:0;text-orientation:mixed;text-transform:none;white-space:normal"/>
      <path d="m68.439 117.51s-2.3213 2.0689-4.2031 4.6875c-1.8833 2.6207-6.8867 10.895-6.8867 10.895l0.22656 0.13672s5.0163-8.2905 6.875-10.877c1.8601-2.5885 4.1641-4.6445 4.1641-4.6445z" color="#000000" color-rendering="auto" dominant-baseline="auto" fill="#000" image-rendering="auto" solid-color="#000000" stroke="#010000" stroke-width=".5845" style="font-feature-settings:normal;font-variant-alternates:normal;font-variant-caps:normal;font-variant-ligatures:normal;font-variant-numeric:normal;font-variant-position:normal;isolation:auto;mix-blend-mode:normal;shape-padding:0;text-decoration-color:#000000;text-decoration-line:none;text-decoration-style:solid;text-indent:0;text-orientation:mixed;text-transform:none;white-space:normal"/>
      <path d="m98.873 105.5s-7.2512 0.89306-10.621 1.7168c-3.3684 0.82335-9.4531 3.125-9.4531 3.125l0.09375 0.2461s6.0928-2.3015 9.4219-3.1152c3.3275-0.81336 10.592-1.7109 10.592-1.7109z" color="#000000" color-rendering="auto" dominant-baseline="auto" fill="#000" image-rendering="auto" solid-color="#000000" stroke="#010000" stroke-width=".45916" style="font-feature-settings:normal;font-variant-alternates:normal;font-variant-caps:normal;font-variant-ligatures:normal;font-variant-numeric:normal;font-variant-position:normal;isolation:auto;mix-blend-mode:normal;shape-padding:0;text-decoration-color:#000000;text-decoration-line:none;text-decoration-style:solid;text-indent:0;text-orientation:mixed;text-transform:none;white-space:normal"/>
     </g>
     <path transform="scale(.26458)" d="m258.35 462.99c-0.20075-0.49312-0.48413-3.4096-0.62974-6.4811-0.31054-6.5509 0.56736-11.307 3.1333-16.974 2.1007-4.6394 3.5732-6.76 7.3665-10.608 5.739-5.8224 13.342-9.5294 21.746-10.603 4.5587-0.58218 8.4597-0.26913 13.625 1.0934 3.7505 0.98924 10 3.7498 10 4.4173 0 0.19473-1.9688 1.5471-4.375 3.0053-11.701 7.0906-38.203 26.478-49.688 36.348-0.70534 0.60617-0.86165 0.57994-1.1782-0.1977z" fill="#fff" stroke="#010000" stroke-linecap="round" stroke-width="2.813"/>
    </g>
    <g transform="translate(15.478 7.4083)">
     <path d="m56.442 123.47 8.7357 6.6861 34.512-23.282-2.0078-11.029s-12.969 3.8891-23.055 11.602c-10.086 7.7128-18.185 16.023-18.185 16.023z" fill="#fff" stroke="#000" stroke-width=".71893"/>
    </g>
   </g>
   <g>
    <g transform="matrix(.17605 0 0 .16051 -4.7719 204.43)" fill="#3a7fff">
     <path d="m90.504 146.77s1.6836 4.1597-1.0848 9.0417l-7.8706 5.0897s2.4959-6.6183 4.1232-8.964c1.6273-2.3457 4.8322-5.1673 4.8322-5.1673z" stroke="#000" stroke-width=".54095"/>
     <path d="m92.621 146.77s-1.816 4.1037 0.79462 9.0718l7.7036 5.3391s-2.2826-6.6949-3.834-9.0915c-1.5513-2.3966-4.6642-5.3194-4.6642-5.3194z" stroke="#000" stroke-width=".54095"/>
     <ellipse cx="91.215" cy="145.99" rx="3.3734" ry="3.5057" stroke="#010000" stroke-linecap="round" stroke-width=".5124"/>
    </g>
    <g transform="matrix(.026385 0 0 .025571 6.6677 222.14)" aria-label="firstmate">
     <path d="m390.95 173.83q0 2.0508-1.582 3.75-1.582 1.6406-3.5742 1.6406-0.46875 0-6.3867-2.6953-5.918-2.6953-12.246-2.6953-9.9023 0-13.887 8.1445-1.875 3.8672-2.2852 11.602-0.23437 8.2031-0.46875 16.406 15.938 1.2891 21.035 2.5781 6.7969 1.7578 6.7969 5.8008 0 2.2852-1.2305 3.8086-1.1719 1.4648-2.7539 1.4648-0.9375 0-8.0859-1.2305-8.3203-1.4062-15.879-1.9922-0.87891 26.367-1.8164 32.52-1.582 10.547-6.8555 10.547-5.625 0-5.625-6.5039 0 0 1.2305-12.012 1.2891-12.48 1.5234-25.137-7.1484-0.11719-9.4336-0.9961-2.9297-1.1133-2.9297-4.6875 0-5.0391 5.3906-5.0391h0.23438l6.8555 0.23438q0.23437-7.793 0.41015-15.527 0.35156-7.3242 1.5234-11.074 6.0938-19.688 25.664-19.688 10.84 0 17.93 3.457 6.4453 3.1641 6.4453 7.3242z"/>
     <path d="m409.94 162.17q0 8.3203-8.1445 8.3203-3.2812 0-5.5664-2.2852-2.2266-2.2852-2.2266-5.5078 0-3.5156 2.4609-5.9766 2.4609-2.4609 6.0352-2.4609 3.3398 0 5.3906 2.168 2.0508 2.168 2.0508 5.7422zm-2.5195 22.324q0 35.332-2.5195 52.207-0.99609 6.7969-2.2266 9.1406-1.582 3.1055-5.0976 3.1055-2.3438 0-3.9844-1.5234-1.6406-1.582-1.6406-3.75 0 0.29297 0.9375-4.043 1.1133-4.9219 1.8164-11.191 0.9375-8.9062 0.9375-19.922 0-4.8047-0.11719-10.137-0.11718-5.332-0.11718-5.8008 0-7.9102 1.3476-11.016 1.4062-3.3984 5.2734-3.3984 5.3906 0 5.3906 6.3281z"/>
     <path d="m469.99 192.58q0 2.2266-1.3477 3.75-1.3476 1.5234-3.2226 1.5234-1.4062 0-4.1602-2.0508-2.7539-2.0508-4.9805-2.0508-5.5664 0-9.0234 4.9219-3.457 4.8633-3.457 13.184v7.6758q0 12.832-2.6953 20.391-2.5195 7.0898-6.5039 7.0898-5.332 0-5.332-5.2734 0-1.0547 1.6406-7.7344 1.6406-6.7383 1.6406-12.656 0-16.406-4.6875-26.25-0.11718-0.29297-3.2226-5.918-1.582-2.8711-1.582-4.5703 0-1.875 1.8164-3.5156 1.8164-1.6406 3.9258-1.6406 6.2109 0 10.312 15.234 6.0938-11.719 17.754-11.719 5.8594 0 9.4922 2.7539 3.6328 2.6953 3.6328 6.8555z"/>
     <path d="m523.9 187.54q0 5.8594-5.918 5.8594-2.0508 0-3.2226-1.4648-0.82032-1.3476-1.6992-2.7539-3.6328-4.6875-9.668-4.6875-10.371 0-10.371 11.777 0 4.1016 1.875 7.0312 1.582 2.5195 5.6836 5.6836 9.2578 7.0898 11.543 9.7852 4.8047 5.5078 4.8047 12.656 0 9.375-6.0938 15.293-6.0938 5.8594-15.879 5.8594-9.3164 0-15.293-4.8633-5.8008-4.6875-5.8008-11.836 0-7.207 6.2109-7.207 5.2148 0 5.3906 8.0274 4.2188 5.0391 9.4922 5.0391 4.3945 0 7.1484-2.6367 2.8125-2.6953 2.8125-6.6797 0-3.6328-3.3984-6.8555-0.0586-0.11719-8.6133-6.8555-11.836-9.375-11.836-21.973 0-10.254 6.2695-16.582 6.3281-6.3281 16.523-6.3281 8.3789 0 14.355 4.3945 5.6836 4.1602 5.6836 9.3164z"/>
     <path d="m582.08 196.39q0 2.0508-1.2891 3.5156-1.2891 1.4062-3.0469 1.4062-0.87891 0-6.7383-2.2852-5.8008-2.2852-11.367-2.2852-1.7578 0-3.6914 0.23438-2.168 9.5508-2.168 17.52 0 10.254 3.457 15.762 3.457 5.5078 9.6094 5.5078 1.875 0 4.9219-1.1719 3.1055-1.2305 4.4531-1.2305 4.6875 0 4.6875 5.5078 0 3.5742-3.8672 5.8008t-10.547 2.2266q-24.844 0-24.844-33.105 0-6.9726 1.6992-15.352-1.6406 0.23437-7.0898 1.3477-3.5742 0.70312-5.2734 0.70312-6.2695 0-6.2695-4.8047 0-6.5625 21.621-8.5547 4.4531-14.121 10.898-14.121 1.9922 0 3.3984 1.4648 1.4062 1.4062 1.4062 3.457 0 1.5234-0.8789 3.8672-0.87891 2.2852-1.7578 4.6289 22.676 0.76172 22.676 9.9609z"/>
     <path d="m673.02 210.22q0 44.883-10.664 44.883-4.1016 0-4.1016-5.1562 0-0.0586 1.9922-13.359 1.9922-13.359 1.9922-26.602 0-22.09-10.43-22.09-9.1406 0-12.012 11.133-2.168 8.5547-2.168 33.633 0 3.8672 0.58594 8.5547 0.58593 4.6289 0.58593 5.4492 0 5.8008-5.5078 5.8008-6.6211 0-6.6211-21.152 0-8.9062 0.64453-18.574 0.70312-9.7266 0.70312-10.43 0-8.6719-9.1406-8.6719-8.5547 0-12.422 7.6758-3.75 7.4414-3.75 23.555 0 10.371 0.58594 19.336 0.58594 8.9062 0.58594 7.5 0 2.2266-1.6406 3.6914-1.582 1.4648-4.1016 1.4648-5.2148 0-6.4453-9.9609-0.41016-2.8711-0.41016-14.883 0-25.137 4.1016-47.988 1.3476-7.5 2.6953-9.9609 1.582-2.9883 5.0976-2.9883 5.5078 0 5.5078 5.8594 0 0-2.6367 13.242 5.0391-7.0898 14.414-7.0898 7.5 0 11.777 6.2109 7.4414-12.246 20.977-12.246 19.805 0 19.805 33.164z"/>
     <path d="m738.59 215.49q0 16.055-4.6875 33.574-2.3438 8.7891-6.9727 8.7891-4.7461 0-4.7461-5.3906 0-1.2305 0.11719-1.8164-5.9766 3.2227-12.363 3.2227-11.309 0-17.695-6.3867-6.3281-6.3867-6.3281-17.871 0-11.66 6.8555-18.457 6.8555-6.8555 18.223-6.8555 9.9024 0 16.699 6.6211-1.1133-23.145-17.168-23.145-3.5742 0-7.6758 2.168-4.043 2.1094-5.2734 2.1094-1.9922 0-3.5742-1.6406-1.582-1.6406-1.582-3.75 0-3.5156 5.0976-6.5039 5.4492-3.2227 13.008-3.2227 28.066 0 28.066 38.555zm-11.895 13.77q0-14.883-14.004-14.883-15.352 0-15.352 14.766 0 14.883 15.234 14.883 6.6211 0 10.371-3.8672 3.75-3.9258 3.75-10.898z"/>
     <path d="m802.4 196.39q0 2.0508-1.2891 3.5156-1.2891 1.4062-3.0469 1.4062-0.87891 0-6.7383-2.2852-5.8008-2.2852-11.367-2.2852-1.7578 0-3.6914 0.23438-2.168 9.5508-2.168 17.52 0 10.254 3.457 15.762 3.457 5.5078 9.6094 5.5078 1.875 0 4.9219-1.1719 3.1055-1.2305 4.4531-1.2305 4.6875 0 4.6875 5.5078 0 3.5742-3.8672 5.8008t-10.547 2.2266q-24.844 0-24.844-33.105 0-6.9726 1.6992-15.352-1.6406 0.23437-7.0898 1.3477-3.5742 0.70312-5.2734 0.70312-6.2695 0-6.2695-4.8047 0-6.5625 21.621-8.5547 4.4531-14.121 10.898-14.121 1.9922 0 3.3984 1.4648 1.4062 1.4062 1.4062 3.457 0 1.5234-0.8789 3.8672-0.87891 2.2852-1.7578 4.6289 22.676 0.76172 22.676 9.9609z"/>
     <path d="m867.79 200.96q0 6.0938-4.2188 9.0234-1.875 1.2891-11.895 3.3398-13.301 2.7539-22.676 2.7539-4.2774 0-10.312-0.58594 0 22.09 16.816 22.09 4.6289 0 8.3789-2.6367 1.875-1.2891 6.7383-6.2695 1.7578-1.8164 3.6914-1.8164 2.4609 0 4.2188 1.875 1.8164 1.8164 1.8164 4.5117 0 2.2266-1.6992 4.1016-10.078 11.016-23.613 11.016-28.008 0-28.008-32.402 0-16.699 8.9062-28.828 10.137-13.77 25.078-13.77 11.66 0 19.219 7.793 7.5586 7.793 7.5586 19.805zm-11.66 0.70313q-0.35156-8.1445-4.2773-12.891-3.8672-4.7461-9.7266-4.7461-7.6172 0-13.418 5.4492-5.9766 5.5078-8.9062 15.586 4.1602 0.46875 8.8476 0.46875 11.367 0 27.48-3.8672z"/>
    </g>
    <path d="m8.3628 226.33c0.15464-0.18838 0.79876-0.82102 0.92482-0.90833 0.12386-0.0858 0.1273-0.0866 0.11031-0.0258-0.0096 0.0345-0.02511 0.13904-0.03437 0.23232-0.01683 0.1695-0.01691 0.16963-0.14064 0.23704-0.06809 0.0371-0.30146 0.17863-0.5186 0.31453-0.21714 0.13589-0.40069 0.24708-0.4079 0.24708-0.0072 0 0.02268-0.0436 0.0664-0.0968z" fill="#fff"/>
    <path d="m11.236 224.69-0.1553-0.10834 0.2849-0.0441c0.45788-0.0709 0.76237-0.098 1.0837-0.0966l0.30077 1e-3 -0.50619 0.12563c-0.2784 0.0691-0.577 0.14982-0.66355 0.17939-0.08655 0.0296-0.16448 0.0532-0.17317 0.0524-0.0087-7.6e-4 -0.0857-0.0501-0.17111-0.10973z" fill="#fff"/>
   </g>
  </g>
  <rect x="17.813" y="245.83" width="2.9285" height="2.5713" fill="#fff"/>
  <rect x="55.421" y="253.56" width="2.9285" height="2.4878" fill="#fff"/>
  <g transform="matrix(.052917 0 0 .052917 43.062 247.93)">
   <polygon class="st0" points="203.9 186.3 218.1 63.2 125 30 31.9 63.2 46.1 186.3 125 230" fill="#dd0031"/>
   <polygon class="st1" points="125 153.4 125 230 203.9 186.3 218.1 63.2 125 30 125 52.2 125 52.1" fill="#c3002f"/>
   <path class="st2" d="m125 52.1-58.2 130.5h21.7l11.7-29.2h49.4l11.7 29.2h21.7zm17 83.3h-34l17-40.9z" fill="#fff"/>
  </g>
  <g>
   <g transform="matrix(.26458 0 0 .26458 69.871 202.04)" aria-label="Universal, Router, Compiler &amp; More">
    <path d="m-79.781 135.75q0 0.63281-0.14062 1.1055-0.13672 0.46875-0.45312 0.78125-0.30078 0.29687-0.70312 0.43359t-0.9375 0.13672q-0.54688 0-0.95312-0.14453t-0.68359-0.42578q-0.31641-0.32032-0.45703-0.77344-0.13672-0.45313-0.13672-1.1133v-3.4805h0.77344v3.5195q0 0.47266 0.0625 0.74609 0.06641 0.27344 0.21875 0.4961 0.17188 0.2539 0.46484 0.38281 0.29688 0.12891 0.71094 0.12891 0.41797 0 0.71094-0.125 0.29297-0.12891 0.46875-0.38672 0.15234-0.22266 0.21484-0.50781 0.06641-0.28907 0.06641-0.71485v-3.5391h0.77344z"/>
    <path d="m-74.711 138.09h-0.73438v-2.4844q0-0.30078-0.03516-0.5625-0.03516-0.26562-0.12891-0.41406-0.09766-0.16406-0.28125-0.24219-0.18359-0.082-0.47656-0.082-0.30078 0-0.62891 0.14844-0.32812 0.14843-0.62891 0.3789v3.2578h-0.73438v-4.3633h0.73438v0.48438q0.34375-0.28516 0.71094-0.44531 0.36719-0.16016 0.75391-0.16016 0.70703 0 1.0781 0.42578t0.37109 1.2266z"/>
    <path d="m-72.508 133h-0.82812v-0.76172h0.82812zm-0.04687 5.0938h-0.73438v-4.3633h0.73438z"/>
    <path d="m-67.32 133.73-1.7656 4.3633h-0.73828l-1.7539-4.3633h0.79688l1.3516 3.4727 1.3398-3.4727z"/>
    <path d="m-62.77 135.98h-3.2148q0 0.40234 0.12109 0.70312 0.12109 0.29688 0.33203 0.48828 0.20312 0.1875 0.48047 0.28125 0.28125 0.0937 0.61719 0.0937 0.44531 0 0.89453-0.17578 0.45312-0.17969 0.64453-0.35156h0.03906v0.80078q-0.37109 0.15625-0.75781 0.26172t-0.8125 0.10547q-1.0859 0-1.6953-0.58594-0.60938-0.58984-0.60938-1.6719 0-1.0703 0.58203-1.6992 0.58594-0.62891 1.5391-0.62891 0.88281 0 1.3594 0.51563 0.48047 0.51562 0.48047 1.4648zm-0.71484-0.5625q-0.0039-0.57813-0.29297-0.89453-0.28516-0.31641-0.87109-0.31641-0.58984 0-0.94141 0.34766-0.34766 0.34765-0.39453 0.86328z"/>
    <path d="m-58.934 134.53h-0.03906q-0.16406-0.0391-0.32031-0.0547-0.15234-0.0195-0.36328-0.0195-0.33984 0-0.65625 0.15234-0.31641 0.14844-0.60938 0.38672v3.0977h-0.73438v-4.3633h0.73438v0.64454q0.4375-0.35157 0.76953-0.4961 0.33594-0.14844 0.68359-0.14844 0.19141 0 0.27734 0.0117 0.08594 8e-3 0.25781 0.0352z"/>
    <path d="m-55.117 136.83q0 0.59766-0.49609 0.98047-0.49219 0.38281-1.3477 0.38281-0.48438 0-0.89062-0.11328-0.40234-0.11718-0.67578-0.2539v-0.82422h0.03906q0.34766 0.26172 0.77344 0.41797 0.42578 0.15234 0.81641 0.15234 0.48438 0 0.75781-0.15625 0.27344-0.15625 0.27344-0.49219 0-0.25781-0.14844-0.39062-0.14844-0.13281-0.57031-0.22656-0.15625-0.0352-0.41016-0.082-0.25-0.0469-0.45703-0.10156-0.57422-0.15234-0.81641-0.44531-0.23828-0.29688-0.23828-0.72656 0-0.26953 0.10938-0.50782 0.11328-0.23828 0.33984-0.42578 0.21875-0.18359 0.55469-0.28906 0.33984-0.10937 0.75781-0.10937 0.39062 0 0.78906 0.0977 0.40234 0.0937 0.66797 0.23047v0.78516h-0.03906q-0.28125-0.20703-0.68359-0.34766-0.40234-0.14453-0.78906-0.14453-0.40234 0-0.67969 0.15625-0.27734 0.15234-0.27734 0.45703 0 0.26953 0.16797 0.40625 0.16406 0.13672 0.53125 0.22266 0.20312 0.0469 0.45312 0.0937 0.25391 0.0469 0.42188 0.0859 0.51172 0.11719 0.78906 0.40235 0.27734 0.28906 0.27734 0.76562z"/>
    <path d="m-50.672 138.09h-0.73047v-0.46485q-0.09766 0.0664-0.26562 0.1875-0.16406 0.11719-0.32031 0.1875-0.18359 0.0898-0.42188 0.14844-0.23828 0.0625-0.55859 0.0625-0.58984 0-1-0.39063-0.41016-0.39062-0.41016-0.99609 0-0.49609 0.21094-0.80078 0.21484-0.30859 0.60938-0.48438 0.39844-0.17578 0.95703-0.23828 0.55859-0.0625 1.1992-0.0937v-0.11328q0-0.25-0.08984-0.41406-0.08594-0.16406-0.25-0.25781-0.15625-0.0898-0.375-0.1211-0.21875-0.0312-0.45703-0.0312-0.28906 0-0.64453 0.0781-0.35547 0.0742-0.73438 0.21875h-0.03906v-0.7461q0.21484-0.0586 0.62109-0.1289t0.80078-0.0703q0.46094 0 0.80078 0.0781 0.34375 0.0742 0.59375 0.25781 0.24609 0.17969 0.375 0.46485 0.12891 0.28515 0.12891 0.70703zm-0.73047-1.0742v-1.2148q-0.33594 0.0195-0.79297 0.0586-0.45312 0.0391-0.71875 0.11328-0.31641 0.0898-0.51172 0.28125-0.19531 0.1875-0.19531 0.51953 0 0.375 0.22656 0.56641 0.22656 0.1875 0.69141 0.1875 0.38672 0 0.70703-0.14844 0.32031-0.15235 0.59375-0.36328z"/>
    <path d="m-48.508 138.09h-0.73438v-6.0781h0.73438z"/>
    <path d="m-45.523 136.98-1.1016 2.5586h-0.57031l0.67969-2.5586z"/>
    <path d="m-36.457 138.09h-1.0039l-1.9453-2.3125h-1.0898v2.3125h-0.77344v-5.8164h1.6289q0.52734 0 0.87891 0.0703 0.35156 0.0664 0.63281 0.24219 0.31641 0.19922 0.49219 0.50391 0.17969 0.30078 0.17969 0.76562 0 0.62891-0.31641 1.0547-0.31641 0.42187-0.87109 0.63672zm-1.8086-4.1797q0-0.25-0.08984-0.44141-0.08594-0.19531-0.28906-0.32812-0.16797-0.11328-0.39844-0.15625-0.23047-0.0469-0.54297-0.0469h-0.91016v2.1953h0.78125q0.36719 0 0.64062-0.0625 0.27344-0.0664 0.46484-0.24218 0.17578-0.16407 0.25781-0.375 0.08594-0.21485 0.08594-0.54297z"/>
    <path d="m-32.234 135.91q0 1.0664-0.54688 1.6836t-1.4648 0.61719q-0.92578 0-1.4727-0.61719-0.54297-0.61719-0.54297-1.6836 0-1.0664 0.54297-1.6836 0.54688-0.62109 1.4727-0.62109 0.91797 0 1.4648 0.62109 0.54688 0.61719 0.54688 1.6836zm-0.75781 0q0-0.84766-0.33203-1.2578-0.33203-0.41407-0.92188-0.41407-0.59766 0-0.92969 0.41407-0.32812 0.41015-0.32812 1.2578 0 0.82031 0.33203 1.2461 0.33203 0.42188 0.92578 0.42188 0.58594 0 0.91797-0.41797 0.33594-0.42188 0.33594-1.25z"/>
    <path d="m-27.477 138.09h-0.73438v-0.48438q-0.37109 0.29297-0.71094 0.44922t-0.75 0.15625q-0.6875 0-1.0703-0.41797-0.38281-0.42187-0.38281-1.2344v-2.832h0.73438v2.4844q0 0.33203 0.03125 0.57031 0.03125 0.23438 0.13281 0.40235 0.10547 0.17187 0.27344 0.25 0.16797 0.0781 0.48828 0.0781 0.28516 0 0.62109-0.14844 0.33984-0.14843 0.63281-0.3789v-3.2578h0.73438z"/>
    <path d="m-23.766 138.05q-0.20703 0.0547-0.45312 0.0898-0.24219 0.0352-0.43359 0.0352-0.66797 0-1.0156-0.35937-0.34766-0.35938-0.34766-1.1524v-2.3203h-0.49609v-0.61719h0.49609v-1.2539h0.73438v1.2539h1.5156v0.61719h-1.5156v1.9883q0 0.34375 0.01563 0.53907 0.01563 0.1914 0.10938 0.35937 0.08594 0.15625 0.23438 0.23047 0.15234 0.0703 0.46094 0.0703 0.17969 0 0.375-0.0508 0.19531-0.0547 0.28125-0.0898h0.03906z"/>
    <path d="m-19.223 135.98h-3.2148q0 0.40234 0.12109 0.70312 0.12109 0.29688 0.33203 0.48828 0.20312 0.1875 0.48047 0.28125 0.28125 0.0937 0.61719 0.0937 0.44531 0 0.89453-0.17578 0.45312-0.17969 0.64453-0.35156h0.03906v0.80078q-0.37109 0.15625-0.75781 0.26172t-0.8125 0.10547q-1.0859 0-1.6953-0.58594-0.60938-0.58984-0.60938-1.6719 0-1.0703 0.58203-1.6992 0.58594-0.62891 1.5391-0.62891 0.88281 0 1.3594 0.51563 0.48047 0.51562 0.48047 1.4648zm-0.71484-0.5625q-0.0039-0.57813-0.29297-0.89453-0.28516-0.31641-0.87109-0.31641-0.58984 0-0.94141 0.34766-0.34766 0.34765-0.39453 0.86328z"/>
    <path d="m-15.387 134.53h-0.03906q-0.16406-0.0391-0.32031-0.0547-0.15234-0.0195-0.36328-0.0195-0.33984 0-0.65625 0.15234-0.31641 0.14844-0.60938 0.38672v3.0977h-0.73438v-4.3633h0.73437v0.64454q0.4375-0.35157 0.76953-0.4961 0.33594-0.14844 0.68359-0.14844 0.19141 0 0.27734 0.0117 0.08594 8e-3 0.25781 0.0352z"/>
    <path d="m-14.289 136.98-1.1016 2.5586h-0.57031l0.67969-2.5586z"/>
    <path d="m-77.535 151.03q-0.21484 0.0937-0.39062 0.17578-0.17188 0.082-0.45312 0.17187-0.23828 0.0742-0.51953 0.125-0.27734 0.0547-0.61328 0.0547-0.63281 0-1.1523-0.17578-0.51562-0.17969-0.89844-0.5586-0.375-0.37109-0.58594-0.9414-0.21094-0.57422-0.21094-1.332 0-0.71875 0.20312-1.2852t0.58594-0.95703q0.37109-0.37891 0.89453-0.57813 0.52734-0.19921 1.168-0.19921 0.46875 0 0.93359 0.11328 0.46875 0.11328 1.0391 0.39843v0.91797h-0.05859q-0.48047-0.40234-0.95312-0.58593-0.47266-0.1836-1.0117-0.1836-0.44141 0-0.79688 0.14453-0.35156 0.14063-0.62891 0.44141-0.26953 0.29297-0.42188 0.74219-0.14844 0.44531-0.14844 1.0312 0 0.61328 0.16406 1.0547 0.16797 0.44141 0.42969 0.71875 0.27344 0.28907 0.63672 0.42969 0.36719 0.13672 0.77344 0.13672 0.55859 0 1.0469-0.19141 0.48828-0.1914 0.91406-0.57421h0.05469z"/>
    <path d="m-72.773 149.27q0 1.0664-0.54688 1.6836-0.54688 0.61718-1.4648 0.61718-0.92578 0-1.4727-0.61718-0.54297-0.61719-0.54297-1.6836 0-1.0664 0.54297-1.6836 0.54688-0.62109 1.4727-0.62109 0.91797 0 1.4648 0.62109 0.54688 0.61719 0.54688 1.6836zm-0.75781 0q0-0.84765-0.33203-1.2578-0.33203-0.41406-0.92188-0.41406-0.59766 0-0.92969 0.41406-0.32812 0.41016-0.32812 1.2578 0 0.82032 0.33203 1.2461 0.33203 0.42187 0.92578 0.42187 0.58594 0 0.91797-0.41797 0.33594-0.42187 0.33594-1.25z"/>
    <path d="m-65.266 151.45h-0.73438v-2.4844q0-0.28125-0.02734-0.54297-0.02344-0.26172-0.10547-0.41797-0.08984-0.16797-0.25781-0.25391-0.16797-0.0859-0.48438-0.0859-0.30859 0-0.61719 0.15625-0.30859 0.15235-0.61719 0.39063 0.01172 0.0898 0.01953 0.21094 0.0078 0.11718 0.0078 0.23437v2.793h-0.73438v-2.4844q0-0.28907-0.02734-0.54688-0.02344-0.26172-0.10547-0.41797-0.08984-0.16797-0.25781-0.25-0.16797-0.0859-0.48438-0.0859-0.30078 0-0.60547 0.14844-0.30078 0.14844-0.60156 0.37891v3.2578h-0.73438v-4.3633h0.73438v0.48437q0.34375-0.28515 0.68359-0.44531 0.34375-0.16015 0.73047-0.16015 0.44531 0 0.75391 0.1875 0.3125 0.1875 0.46484 0.51953 0.44531-0.375 0.8125-0.53907 0.36719-0.16796 0.78516-0.16796 0.71875 0 1.0586 0.4375 0.34375 0.43359 0.34375 1.2148z"/>
    <path d="m-60.012 149.22q0 0.53125-0.15234 0.97265-0.15234 0.4375-0.42969 0.74219-0.25781 0.28906-0.60938 0.44922-0.34766 0.15625-0.73828 0.15625-0.33984 0-0.61719-0.0742-0.27344-0.0742-0.55859-0.23047v1.8281h-0.73438v-5.9727h0.73438v0.45703q0.29297-0.24609 0.65625-0.41016 0.36719-0.16796 0.78125-0.16796 0.78906 0 1.2266 0.59765 0.44141 0.59375 0.44141 1.6524zm-0.75781 0.0195q0-0.78907-0.26953-1.1797-0.26953-0.39063-0.82812-0.39063-0.31641 0-0.63672 0.13672-0.32031 0.13672-0.61328 0.35938v2.4726q0.3125 0.14063 0.53516 0.19141 0.22656 0.0508 0.51172 0.0508 0.61328 0 0.95703-0.41406t0.34375-1.2266z"/>
    <path d="m-58.078 146.36h-0.82812v-0.76172h0.82812zm-0.04687 5.0938h-0.73438v-4.3633h0.73437z"/>
    <path d="m-55.922 151.45h-0.73438v-6.0781h0.73438z"/>
    <path d="m-50.809 149.35h-3.2148q0 0.40235 0.12109 0.70313 0.12109 0.29687 0.33203 0.48828 0.20312 0.1875 0.48047 0.28125 0.28125 0.0937 0.61719 0.0937 0.44531 0 0.89453-0.17578 0.45312-0.17969 0.64453-0.35157h0.03906v0.80079q-0.37109 0.15625-0.75781 0.26171-0.38672 0.10547-0.8125 0.10547-1.0859 0-1.6953-0.58593-0.60938-0.58985-0.60938-1.6719 0-1.0703 0.58203-1.6992 0.58594-0.6289 1.5391-0.6289 0.88281 0 1.3594 0.51562 0.48047 0.51563 0.48047 1.4648zm-0.71484-0.5625q-0.0039-0.57812-0.29297-0.89453-0.28516-0.31641-0.87109-0.31641-0.58984 0-0.94141 0.34766-0.34766 0.34766-0.39453 0.86328z"/>
    <path d="m-46.973 147.89h-0.03906q-0.16406-0.0391-0.32031-0.0547-0.15234-0.0195-0.36328-0.0195-0.33984 0-0.65625 0.15235-0.31641 0.14843-0.60938 0.38671v3.0977h-0.73438v-4.3633h0.73438v0.64453q0.4375-0.35156 0.76953-0.49609 0.33594-0.14844 0.68359-0.14844 0.19141 0 0.27734 0.0117 0.08594 8e-3 0.25781 0.0351z"/>
    <path d="m-41.09 146.8q0-0.3711-0.22266-0.58203-0.21875-0.21485-0.5625-0.21485-0.35938 0-0.58594 0.24219-0.22656 0.23828-0.22656 0.58594 0 0.29297 0.15234 0.51953 0.15625 0.22656 0.66797 0.53515 0.38281-0.13671 0.57812-0.39843 0.19922-0.26563 0.19922-0.6875zm0.75781 3.4219-1.8672-1.8203q-0.12109 0.0586-0.24219 0.15625-0.12109 0.0937-0.24219 0.25781-0.10938 0.15235-0.17969 0.36719-0.07031 0.21484-0.07031 0.48437 0 0.57032 0.33203 0.92188 0.33594 0.34766 0.94922 0.34766 0.36328 0 0.71875-0.17579 0.35938-0.17968 0.60156-0.53906zm1.1758-2.3203v0.375q0 0.375-0.09766 0.84375t-0.33203 0.89453l1.4766 1.4375h-0.96094l-0.89453-0.875q-0.44922 0.55469-0.91797 0.77734-0.46875 0.21875-0.96484 0.21875-0.8125 0-1.3516-0.47265-0.53516-0.47656-0.53516-1.2461 0-0.35937 0.10156-0.62109 0.10156-0.26172 0.23828-0.45312 0.13672-0.1836 0.33984-0.34375 0.20312-0.16407 0.41016-0.28516-0.42969-0.28125-0.62109-0.56641-0.1875-0.28515-0.1875-0.71875 0-0.26172 0.10156-0.49609 0.10547-0.23828 0.3125-0.43359 0.19531-0.1875 0.50781-0.30469 0.31641-0.11719 0.69531-0.11719 0.67578 0 1.0938 0.34375 0.41797 0.33984 0.41797 0.86328 0 0.17188-0.04687 0.39063-0.04687 0.21484-0.16016 0.38672-0.125 0.1914-0.35547 0.36718-0.23047 0.17578-0.59766 0.30078l1.4492 1.4141q0.05469-0.15625 0.08203-0.34375t0.03125-0.39063q0.0078-0.21875 0.0039-0.48828 0-0.26953 0-0.45703z"/>
    <path d="m-29.598 151.45h-0.77344v-5.0117l-1.6172 3.4102h-0.46094l-1.6055-3.4102v5.0117h-0.72266v-5.8164h1.0547l1.5508 3.2383 1.5-3.2383h1.0742z"/>
    <path d="m-24.367 149.27q0 1.0664-0.54688 1.6836-0.54688 0.61718-1.4648 0.61718-0.92578 0-1.4727-0.61718-0.54297-0.61719-0.54297-1.6836 0-1.0664 0.54297-1.6836 0.54688-0.62109 1.4727-0.62109 0.91797 0 1.4648 0.62109 0.54688 0.61719 0.54688 1.6836zm-0.75781 0q0-0.84765-0.33203-1.2578-0.33203-0.41406-0.92188-0.41406-0.59766 0-0.92969 0.41406-0.32812 0.41016-0.32812 1.2578 0 0.82032 0.33203 1.2461 0.33203 0.42187 0.92578 0.42187 0.58594 0 0.91797-0.41797 0.33594-0.42187 0.33594-1.25z"/>
    <path d="m-20.504 147.89h-0.03906q-0.16406-0.0391-0.32031-0.0547-0.15234-0.0195-0.36328-0.0195-0.33984 0-0.65625 0.15235-0.31641 0.14843-0.60938 0.38671v3.0977h-0.73438v-4.3633h0.73438v0.64453q0.4375-0.35156 0.76953-0.49609 0.33594-0.14844 0.68359-0.14844 0.19141 0 0.27734 0.0117 0.08594 8e-3 0.25781 0.0351z"/>
    <path d="m-16.152 149.35h-3.2148q0 0.40235 0.12109 0.70313 0.12109 0.29687 0.33203 0.48828 0.20312 0.1875 0.48047 0.28125 0.28125 0.0937 0.61719 0.0937 0.44531 0 0.89453-0.17578 0.45312-0.17969 0.64453-0.35157h0.03906v0.80079q-0.37109 0.15625-0.75781 0.26171-0.38672 0.10547-0.8125 0.10547-1.0859 0-1.6953-0.58593-0.60938-0.58985-0.60938-1.6719 0-1.0703 0.58203-1.6992 0.58594-0.6289 1.5391-0.6289 0.88281 0 1.3594 0.51562 0.48047 0.51563 0.48047 1.4648zm-0.71484-0.5625q-0.0039-0.57812-0.29297-0.89453-0.28516-0.31641-0.87109-0.31641-0.58984 0-0.94141 0.34766-0.34766 0.34766-0.39453 0.86328z"/>
   </g>
   <g transform="matrix(.26458 0 0 .26458 82.787 219.06)" aria-label="Materials">
    <path d="m-82.545 138.09h-0.77344v-5.0117l-1.6172 3.4102h-0.46094l-1.6055-3.4102v5.0117h-0.72266v-5.8164h1.0547l1.5508 3.2383 1.5-3.2383h1.0742z"/>
    <path d="m-77.643 138.09h-0.73047v-0.46485q-0.09766 0.0664-0.26562 0.1875-0.16406 0.11719-0.32031 0.1875-0.18359 0.0898-0.42188 0.14844-0.23828 0.0625-0.55859 0.0625-0.58984 0-1-0.39063-0.41016-0.39062-0.41016-0.99609 0-0.49609 0.21094-0.80078 0.21484-0.30859 0.60938-0.48438 0.39844-0.17578 0.95703-0.23828 0.55859-0.0625 1.1992-0.0937v-0.11328q0-0.25-0.08984-0.41406-0.08594-0.16406-0.25-0.25781-0.15625-0.0898-0.375-0.1211-0.21875-0.0312-0.45703-0.0312-0.28906 0-0.64453 0.0781-0.35547 0.0742-0.73438 0.21875h-0.03906v-0.7461q0.21484-0.0586 0.62109-0.1289t0.80078-0.0703q0.46094 0 0.80078 0.0781 0.34375 0.0742 0.59375 0.25781 0.24609 0.17969 0.375 0.46485 0.12891 0.28515 0.12891 0.70703zm-0.73047-1.0742v-1.2148q-0.33594 0.0195-0.79297 0.0586-0.45312 0.0391-0.71875 0.11328-0.31641 0.0898-0.51172 0.28125-0.19531 0.1875-0.19531 0.51953 0 0.375 0.22656 0.56641 0.22656 0.1875 0.69141 0.1875 0.38672 0 0.70703-0.14844 0.32031-0.15235 0.59375-0.36328z"/>
    <path d="m-73.955 138.05q-0.20703 0.0547-0.45312 0.0898-0.24219 0.0352-0.43359 0.0352-0.66797 0-1.0156-0.35937-0.34766-0.35938-0.34766-1.1524v-2.3203h-0.49609v-0.61719h0.49609v-1.2539h0.73438v1.2539h1.5156v0.61719h-1.5156v1.9883q0 0.34375 0.01563 0.53907 0.01563 0.1914 0.10938 0.35937 0.08594 0.15625 0.23438 0.23047 0.15234 0.0703 0.46094 0.0703 0.17969 0 0.375-0.0508 0.19531-0.0547 0.28125-0.0898h0.03906z"/>
    <path d="m-69.412 135.98h-3.2148q0 0.40234 0.12109 0.70312 0.12109 0.29688 0.33203 0.48828 0.20312 0.1875 0.48047 0.28125 0.28125 0.0937 0.61719 0.0937 0.44531 0 0.89453-0.17578 0.45312-0.17969 0.64453-0.35156h0.03906v0.80078q-0.37109 0.15625-0.75781 0.26172-0.38672 0.10547-0.8125 0.10547-1.0859 0-1.6953-0.58594-0.60938-0.58984-0.60938-1.6719 0-1.0703 0.58203-1.6992 0.58594-0.62891 1.5391-0.62891 0.88281 0 1.3594 0.51563 0.48047 0.51562 0.48047 1.4648zm-0.71484-0.5625q-0.0039-0.57813-0.29297-0.89453-0.28516-0.31641-0.87109-0.31641-0.58984 0-0.94141 0.34766-0.34766 0.34765-0.39453 0.86328z"/>
    <path d="m-65.576 134.53h-0.03906q-0.16406-0.0391-0.32031-0.0547-0.15234-0.0195-0.36328-0.0195-0.33984 0-0.65625 0.15234-0.31641 0.14844-0.60938 0.38672v3.0977h-0.73438v-4.3633h0.73438v0.64454q0.4375-0.35157 0.76953-0.4961 0.33594-0.14844 0.68359-0.14844 0.19141 0 0.27734 0.0117 0.08594 8e-3 0.25781 0.0352z"/>
    <path d="m-64.088 133h-0.82812v-0.76172h0.82812zm-0.04687 5.0938h-0.73438v-4.3633h0.73438z"/>
    <path d="m-59.283 138.09h-0.73047v-0.46485q-0.09766 0.0664-0.26562 0.1875-0.16406 0.11719-0.32031 0.1875-0.18359 0.0898-0.42188 0.14844-0.23828 0.0625-0.55859 0.0625-0.58984 0-1-0.39063-0.41016-0.39062-0.41016-0.99609 0-0.49609 0.21094-0.80078 0.21484-0.30859 0.60938-0.48438 0.39844-0.17578 0.95703-0.23828 0.55859-0.0625 1.1992-0.0937v-0.11328q0-0.25-0.08984-0.41406-0.08594-0.16406-0.25-0.25781-0.15625-0.0898-0.375-0.1211-0.21875-0.0312-0.45703-0.0312-0.28906 0-0.64453 0.0781-0.35547 0.0742-0.73438 0.21875h-0.03906v-0.7461q0.21484-0.0586 0.62109-0.1289t0.80078-0.0703q0.46094 0 0.80078 0.0781 0.34375 0.0742 0.59375 0.25781 0.24609 0.17969 0.375 0.46485 0.12891 0.28515 0.12891 0.70703zm-0.73047-1.0742v-1.2148q-0.33594 0.0195-0.79297 0.0586-0.45312 0.0391-0.71875 0.11328-0.31641 0.0898-0.51172 0.28125-0.19531 0.1875-0.19531 0.51953 0 0.375 0.22656 0.56641 0.22656 0.1875 0.69141 0.1875 0.38672 0 0.70703-0.14844 0.32031-0.15235 0.59375-0.36328z"/>
    <path d="m-57.119 138.09h-0.73438v-6.0781h0.73438z"/>
    <path d="m-52.541 136.83q0 0.59766-0.49609 0.98047-0.49219 0.38281-1.3477 0.38281-0.48438 0-0.89062-0.11328-0.40234-0.11718-0.67578-0.2539v-0.82422h0.03906q0.34766 0.26172 0.77344 0.41797 0.42578 0.15234 0.81641 0.15234 0.48438 0 0.75781-0.15625 0.27344-0.15625 0.27344-0.49219 0-0.25781-0.14844-0.39062-0.14844-0.13281-0.57031-0.22656-0.15625-0.0352-0.41016-0.082-0.25-0.0469-0.45703-0.10156-0.57422-0.15234-0.81641-0.44531-0.23828-0.29688-0.23828-0.72656 0-0.26953 0.10938-0.50782 0.11328-0.23828 0.33984-0.42578 0.21875-0.18359 0.55469-0.28906 0.33984-0.10937 0.75781-0.10937 0.39062 0 0.78906 0.0977 0.40234 0.0937 0.66797 0.23047v0.78516h-0.03906q-0.28125-0.20703-0.68359-0.34766-0.40234-0.14453-0.78906-0.14453-0.40234 0-0.67969 0.15625-0.27734 0.15234-0.27734 0.45703 0 0.26953 0.16797 0.40625 0.16406 0.13672 0.53125 0.22266 0.20312 0.0469 0.45312 0.0937 0.25391 0.0469 0.42188 0.0859 0.51172 0.11719 0.78906 0.40235 0.27734 0.28906 0.27734 0.76562z"/>
   </g>
   <g transform="matrix(.26458 0 0 .26458 68.388 234.18)" aria-label="Testing">
    <path d="m-79.639 132.96h-2.0781v5.1289h-0.77344v-5.1289h-2.0781v-0.6875h4.9297z"/>
    <path d="m-76.115 135.98h-3.2148q0 0.40234 0.12109 0.70312 0.12109 0.29688 0.33203 0.48828 0.20312 0.1875 0.48047 0.28125 0.28125 0.0937 0.61719 0.0937 0.44531 0 0.89453-0.17578 0.45312-0.17969 0.64453-0.35156h0.03906v0.80078q-0.37109 0.15625-0.75781 0.26172-0.38672 0.10547-0.8125 0.10547-1.0859 0-1.6953-0.58594-0.60938-0.58984-0.60938-1.6719 0-1.0703 0.58203-1.6992 0.58594-0.62891 1.5391-0.62891 0.88281 0 1.3594 0.51563 0.48047 0.51562 0.48047 1.4648zm-0.71484-0.5625q-0.0039-0.57813-0.29297-0.89453-0.28516-0.31641-0.87109-0.31641-0.58984 0-0.94141 0.34766-0.34766 0.34765-0.39453 0.86328z"/>
    <path d="m-71.885 136.83q0 0.59766-0.49609 0.98047-0.49219 0.38281-1.3477 0.38281-0.48438 0-0.89062-0.11328-0.40234-0.11718-0.67578-0.2539v-0.82422h0.03906q0.34766 0.26172 0.77344 0.41797 0.42578 0.15234 0.81641 0.15234 0.48438 0 0.75781-0.15625 0.27344-0.15625 0.27344-0.49219 0-0.25781-0.14844-0.39062-0.14844-0.13281-0.57031-0.22656-0.15625-0.0352-0.41016-0.082-0.25-0.0469-0.45703-0.10156-0.57422-0.15234-0.81641-0.44531-0.23828-0.29688-0.23828-0.72656 0-0.26953 0.10938-0.50782 0.11328-0.23828 0.33984-0.42578 0.21875-0.18359 0.55469-0.28906 0.33984-0.10937 0.75781-0.10937 0.39062 0 0.78906 0.0977 0.40234 0.0937 0.66797 0.23047v0.78516h-0.03906q-0.28125-0.20703-0.68359-0.34766-0.40234-0.14453-0.78906-0.14453-0.40234 0-0.67969 0.15625-0.27734 0.15234-0.27734 0.45703 0 0.26953 0.16797 0.40625 0.16406 0.13672 0.53125 0.22266 0.20312 0.0469 0.45312 0.0937 0.25391 0.0469 0.42188 0.0859 0.51172 0.11719 0.78906 0.40235 0.27734 0.28906 0.27734 0.76562z"/>
    <path d="m-68.564 138.05q-0.20703 0.0547-0.45312 0.0898-0.24219 0.0352-0.43359 0.0352-0.66797 0-1.0156-0.35937-0.34766-0.35938-0.34766-1.1524v-2.3203h-0.49609v-0.61719h0.49609v-1.2539h0.73438v1.2539h1.5156v0.61719h-1.5156v1.9883q0 0.34375 0.01563 0.53907 0.01563 0.1914 0.10938 0.35937 0.08594 0.15625 0.23438 0.23047 0.15234 0.0703 0.46094 0.0703 0.17969 0 0.375-0.0508 0.19531-0.0547 0.28125-0.0898h0.03906z"/>
    <path d="m-66.885 133h-0.82812v-0.76172h0.82812zm-0.04687 5.0938h-0.73438v-4.3633h0.73438z"/>
    <path d="m-61.822 138.09h-0.73438v-2.4844q0-0.30078-0.03516-0.5625-0.03516-0.26562-0.12891-0.41406-0.09766-0.16406-0.28125-0.24219-0.18359-0.082-0.47656-0.082-0.30078 0-0.62891 0.14844-0.32812 0.14843-0.62891 0.3789v3.2578h-0.73438v-4.3633h0.73438v0.48438q0.34375-0.28516 0.71094-0.44531 0.36719-0.16016 0.75391-0.16016 0.70703 0 1.0781 0.42578 0.37109 0.42578 0.37109 1.2266z"/>
    <path d="m-56.869 137.59q0 1.1094-0.50391 1.6289t-1.5508 0.51953q-0.34766 0-0.67969-0.0508-0.32812-0.0469-0.64844-0.13672v-0.75h0.03906q0.17969 0.0703 0.57031 0.17187 0.39062 0.10547 0.78125 0.10547 0.375 0 0.62109-0.0898 0.24609-0.0898 0.38281-0.25 0.13672-0.15234 0.19531-0.36719 0.05859-0.21484 0.05859-0.48047v-0.39843q-0.33203 0.26562-0.63672 0.39843-0.30078 0.12891-0.76953 0.12891-0.78125 0-1.2422-0.5625-0.45703-0.56641-0.45703-1.5938 0-0.5625 0.15625-0.96875 0.16016-0.41016 0.43359-0.70703 0.25391-0.27735 0.61719-0.42969 0.36328-0.15625 0.72266-0.15625 0.37891 0 0.63281 0.0781 0.25781 0.0742 0.54297 0.23046l0.04687-0.1875h0.6875zm-0.73438-0.70312v-2.3789q-0.29297-0.13281-0.54688-0.1875-0.25-0.0586-0.5-0.0586-0.60547 0-0.95312 0.40625-0.34766 0.40625-0.34766 1.1797 0 0.73438 0.25781 1.1133 0.25781 0.3789 0.85547 0.3789 0.32031 0 0.64062-0.12109 0.32422-0.125 0.59375-0.33203z"/>
   </g>
   <g transform="matrix(.26458 0 0 .26458 82.839 234.18)" aria-label="Linting">
    <path d="m-79.459 138.09h-3.6797v-5.8164h0.77344v5.1289h2.9062z"/>
    <path d="m-77.955 133h-0.82812v-0.76172h0.82812zm-0.04687 5.0938h-0.73438v-4.3633h0.73438z"/>
    <path d="m-72.893 138.09h-0.73438v-2.4844q0-0.30078-0.03516-0.5625-0.03516-0.26562-0.12891-0.41406-0.09766-0.16406-0.28125-0.24219-0.18359-0.082-0.47656-0.082-0.30078 0-0.62891 0.14844-0.32812 0.14843-0.62891 0.3789v3.2578h-0.73438v-4.3633h0.73438v0.48438q0.34375-0.28516 0.71094-0.44531 0.36719-0.16016 0.75391-0.16016 0.70703 0 1.0781 0.42578t0.37109 1.2266z"/>
    <path d="m-69.213 138.05q-0.20703 0.0547-0.45312 0.0898-0.24219 0.0352-0.43359 0.0352-0.66797 0-1.0156-0.35937-0.34766-0.35938-0.34766-1.1524v-2.3203h-0.49609v-0.61719h0.49609v-1.2539h0.73438v1.2539h1.5156v0.61719h-1.5156v1.9883q0 0.34375 0.01563 0.53907 0.01563 0.1914 0.10938 0.35937 0.08594 0.15625 0.23438 0.23047 0.15234 0.0703 0.46094 0.0703 0.17969 0 0.375-0.0508 0.19531-0.0547 0.28125-0.0898h0.03906z"/>
    <path d="m-67.533 133h-0.82812v-0.76172h0.82812zm-0.04687 5.0938h-0.73438v-4.3633h0.73438z"/>
    <path d="m-62.471 138.09h-0.73438v-2.4844q0-0.30078-0.03516-0.5625-0.03516-0.26562-0.12891-0.41406-0.09766-0.16406-0.28125-0.24219-0.18359-0.082-0.47656-0.082-0.30078 0-0.62891 0.14844-0.32812 0.14843-0.62891 0.3789v3.2578h-0.73438v-4.3633h0.73438v0.48438q0.34375-0.28516 0.71094-0.44531 0.36719-0.16016 0.75391-0.16016 0.70703 0 1.0781 0.42578t0.37109 1.2266z"/>
    <path d="m-57.518 137.59q0 1.1094-0.50391 1.6289-0.50391 0.51953-1.5508 0.51953-0.34766 0-0.67969-0.0508-0.32812-0.0469-0.64844-0.13672v-0.75h0.03906q0.17969 0.0703 0.57031 0.17187 0.39062 0.10547 0.78125 0.10547 0.375 0 0.62109-0.0898t0.38281-0.25q0.13672-0.15234 0.19531-0.36719 0.05859-0.21484 0.05859-0.48047v-0.39843q-0.33203 0.26562-0.63672 0.39843-0.30078 0.12891-0.76953 0.12891-0.78125 0-1.2422-0.5625-0.45703-0.56641-0.45703-1.5938 0-0.5625 0.15625-0.96875 0.16016-0.41016 0.43359-0.70703 0.25391-0.27735 0.61719-0.42969 0.36328-0.15625 0.72266-0.15625 0.37891 0 0.63281 0.0781 0.25781 0.0742 0.54297 0.23046l0.04687-0.1875h0.6875zm-0.73438-0.70312v-2.3789q-0.29297-0.13281-0.54688-0.1875-0.25-0.0586-0.5-0.0586-0.60547 0-0.95312 0.40625t-0.34766 1.1797q0 0.73438 0.25781 1.1133 0.25781 0.3789 0.85547 0.3789 0.32031 0 0.64062-0.12109 0.32422-0.125 0.59375-0.33203z"/>
   </g>
  </g>
 </g>
</svg>
