<?xml version="1.0" encoding="UTF-8" standalone="no"?>
<!-- Created with Inkscape (http://www.inkscape.org/) -->

<svg
   xmlns:dc="http://purl.org/dc/elements/1.1/"
   xmlns:cc="http://creativecommons.org/ns#"
   xmlns:rdf="http://www.w3.org/1999/02/22-rdf-syntax-ns#"
   xmlns:svg="http://www.w3.org/2000/svg"
   xmlns="http://www.w3.org/2000/svg"
   xmlns:xlink="http://www.w3.org/1999/xlink"
   xmlns:sodipodi="http://sodipodi.sourceforge.net/DTD/sodipodi-0.dtd"
   xmlns:inkscape="http://www.inkscape.org/namespaces/inkscape"
   width="290"
   height="290"
   viewBox="0 0 76.729165 76.729169"
   version="1.1"
   id="svg7374"
   inkscape:version="0.92.2 (5c3e80d, 2017-08-06)"
   sodipodi:docname="postgres.svg">
  <defs
     id="defs7368">
    <clipPath
       id="clipPath8">
      <path
         inkscape:connector-curvature="0"
         d="M 76,2 V 48 H 54 V 71 H 35.580737 c -0.07818,0.665694 -0.141485,1.332869 -0.205737,2 -1.151162,12.530963 1.036422,24.087546 6.0625,33.96875 L 43.125,110 c 1.011403,1.81678 2.191241,3.52297 3.4375,5.1875 1.244725,1.66248 1.685716,2.58262 2.46875,3.6875 C 62.319911,133.81083 82.129473,141 105,141 155.64836,141 198.63299,118.56201 217.65625,68.15625 231.15302,69.54122 244.09968,66.080358 250,54.5625 240.60137,49.138835 228.52163,50.877226 221.5625,54.375 L 240,2 168,48 H 145 V 2 Z"
         id="path10" />
    </clipPath>
    <clipPath
       id="clipPath847">
      <path
         inkscape:connector-curvature="0"
         d="M 76,2 V 48 H 54 V 71 H 35.580737 c -0.07818,0.665694 -0.141485,1.332869 -0.205737,2 -1.151162,12.530963 1.036422,24.087546 6.0625,33.96875 L 43.125,110 c 1.011403,1.81678 2.191241,3.52297 3.4375,5.1875 1.244725,1.66248 1.685716,2.58262 2.46875,3.6875 C 62.319911,133.81083 82.129473,141 105,141 155.64836,141 198.63299,118.56201 217.65625,68.15625 231.15302,69.54122 244.09968,66.080358 250,54.5625 240.60137,49.138835 228.52163,50.877226 221.5625,54.375 L 240,2 168,48 H 145 V 2 Z"
         id="path845" />
    </clipPath>
    <clipPath
       id="clipPath851">
      <path
         inkscape:connector-curvature="0"
         d="M 76,2 V 48 H 54 V 71 H 35.580737 c -0.07818,0.665694 -0.141485,1.332869 -0.205737,2 -1.151162,12.530963 1.036422,24.087546 6.0625,33.96875 L 43.125,110 c 1.011403,1.81678 2.191241,3.52297 3.4375,5.1875 1.244725,1.66248 1.685716,2.58262 2.46875,3.6875 C 62.319911,133.81083 82.129473,141 105,141 155.64836,141 198.63299,118.56201 217.65625,68.15625 231.15302,69.54122 244.09968,66.080358 250,54.5625 240.60137,49.138835 228.52163,50.877226 221.5625,54.375 L 240,2 168,48 H 145 V 2 Z"
         id="path849" />
    </clipPath>
    <clipPath
       id="clipPath855">
      <path
         inkscape:connector-curvature="0"
         d="M 76,2 V 48 H 54 V 71 H 35.580737 c -0.07818,0.665694 -0.141485,1.332869 -0.205737,2 -1.151162,12.530963 1.036422,24.087546 6.0625,33.96875 L 43.125,110 c 1.011403,1.81678 2.191241,3.52297 3.4375,5.1875 1.244725,1.66248 1.685716,2.58262 2.46875,3.6875 C 62.319911,133.81083 82.129473,141 105,141 155.64836,141 198.63299,118.56201 217.65625,68.15625 231.15302,69.54122 244.09968,66.080358 250,54.5625 240.60137,49.138835 228.52163,50.877226 221.5625,54.375 L 240,2 168,48 H 145 V 2 Z"
         id="path853" />
    </clipPath>
    <clipPath
       id="clipPath859">
      <path
         inkscape:connector-curvature="0"
         d="M 76,2 V 48 H 54 V 71 H 35.580737 c -0.07818,0.665694 -0.141485,1.332869 -0.205737,2 -1.151162,12.530963 1.036422,24.087546 6.0625,33.96875 L 43.125,110 c 1.011403,1.81678 2.191241,3.52297 3.4375,5.1875 1.244725,1.66248 1.685716,2.58262 2.46875,3.6875 C 62.319911,133.81083 82.129473,141 105,141 155.64836,141 198.63299,118.56201 217.65625,68.15625 231.15302,69.54122 244.09968,66.080358 250,54.5625 240.60137,49.138835 228.52163,50.877226 221.5625,54.375 L 240,2 168,48 H 145 V 2 Z"
         id="path857" />
    </clipPath>
    <clipPath
       id="a">
      <path
         inkscape:connector-curvature="0"
         d="m 239.03,226.605 -42.13,24.317 c -1.578,0.91 -2.546,2.59 -2.546,4.406 v 48.668 c 0,1.817 0.968,3.496 2.546,4.406 l 42.133,24.336 c 1.575,0.907 3.517,0.907 5.09,0 l 42.126,-24.336 c 1.57,-0.91 2.54,-2.59 2.54,-4.406 v -48.668 c 0,-1.816 -0.97,-3.496 -2.55,-4.406 l -42.12,-24.317 c -0.79,-0.453 -1.67,-0.68 -2.55,-0.68 -0.88,0 -1.76,0.227 -2.55,0.68"
         id="path2-1" />
    </clipPath>
    <linearGradient
       id="b"
       x1="-0.34799999"
       x2="1.251"
       gradientTransform="matrix(-38.064915,77.652126,-77.652126,-38.064915,258.72325,244.62943)"
       gradientUnits="userSpaceOnUse">
      <stop
         offset=".3"
         stop-color="#3E863D"
         id="stop5" />
      <stop
         offset=".5"
         stop-color="#55934F"
         id="stop7" />
      <stop
         offset=".8"
         stop-color="#5AAD45"
         id="stop9" />
    </linearGradient>
    <clipPath
       id="c">
      <path
         inkscape:connector-curvature="0"
         d="m 195.398,307.086 c 0.403,0.523 0.907,0.976 1.5,1.316 l 36.14,20.875 6.02,3.46 c 0.9,0.52 1.926,0.74 2.934,0.665 0.336,-0.027 0.672,-0.09 1,-0.183 l 44.434,-81.36 c -0.34,-0.37 -0.738,-0.68 -1.184,-0.94 l -27.586,-15.93 -14.582,-8.39 c -0.414,-0.24 -0.863,-0.41 -1.32,-0.53 z m 0,0"
         id="path12-8" />
    </clipPath>
    <linearGradient
       id="d"
       x1="-0.456"
       x2="0.58200002"
       gradientTransform="matrix(106.8057,-78.916731,78.916731,106.8057,235.18824,285.39477)"
       gradientUnits="userSpaceOnUse">
      <stop
         offset=".57"
         stop-color="#3E863D"
         id="stop15" />
      <stop
         offset=".72"
         stop-color="#619857"
         id="stop17" />
      <stop
         offset="1"
         stop-color="#76AC64"
         id="stop19" />
    </linearGradient>
    <clipPath
       id="e">
      <path
         inkscape:connector-curvature="0"
         d="m 241.066,225.953 c -0.707,0.07 -1.398,0.29 -2.035,0.652 l -42.01,24.247 45.3,82.51 c 0.63,-0.09 1.25,-0.3 1.81,-0.624 l 42.13,-24.336 c 1.3,-0.754 2.19,-2.03 2.46,-3.476 l -46.18,-78.89 c -0.34,-0.067 -0.68,-0.102 -1.03,-0.102 -0.14,0 -0.28,0.007 -0.42,0.02"
         id="path22-2" />
    </clipPath>
    <linearGradient
       id="f"
       x1="0.043000001"
       x2="0.98400003"
       gradientTransform="matrix(97.417,0,0,97.417,192.862,279.652)"
       gradientUnits="userSpaceOnUse">
      <stop
         offset=".16"
         stop-color="#6BBF47"
         id="stop25" />
      <stop
         offset=".38"
         stop-color="#79B461"
         id="stop27" />
      <stop
         offset=".47"
         stop-color="#75AC64"
         id="stop29" />
      <stop
         offset=".7"
         stop-color="#659E5A"
         id="stop31" />
      <stop
         offset=".9"
         stop-color="#3E863D"
         id="stop33" />
    </linearGradient>
    <clipPath
       clipPathUnits="userSpaceOnUse"
       id="clipPath20">
      <path
         d="M 0,576 H 576 V 0 H 0 Z"
         id="path18"
         inkscape:connector-curvature="0" />
    </clipPath>
  </defs>
  <sodipodi:namedview
     id="base"
     pagecolor="#ffffff"
     bordercolor="#666666"
     borderopacity="1.0"
     inkscape:pageopacity="0.0"
     inkscape:pageshadow="2"
     inkscape:zoom="2.8"
     inkscape:cx="137.48466"
     inkscape:cy="135.54771"
     inkscape:document-units="mm"
     inkscape:current-layer="layer1"
     showgrid="false"
     units="px"
     inkscape:window-width="1920"
     inkscape:window-height="1017"
     inkscape:window-x="-8"
     inkscape:window-y="-8"
     inkscape:window-maximized="1" />
  <metadata
     id="metadata7371">
    <rdf:RDF>
      <cc:Work
         rdf:about="">
        <dc:format>image/svg+xml</dc:format>
        <dc:type
           rdf:resource="http://purl.org/dc/dcmitype/StillImage" />
        <dc:title></dc:title>
      </cc:Work>
    </rdf:RDF>
  </metadata>
  <g
     inkscape:label="Layer 1"
     inkscape:groupmode="layer"
     id="layer1"
     transform="translate(0,-220.27082)">
    <rect
       style="fill:#336791;fill-opacity:1;stroke:none;stroke-width:0.35277778;stroke-linecap:round;stroke-linejoin:miter;stroke-miterlimit:4;stroke-dasharray:none;stroke-dashoffset:0;stroke-opacity:1"
       id="rect8699"
       width="76.839989"
       height="76.839989"
       x="-76.706352"
       y="220.16"
       ry="0"
       transform="scale(-1,1)" />
    <path
       inkscape:connector-curvature="0"
       id="path8743"
       d="m 37.952272,223.61839 v 70.29189"
       style="fill:none;stroke:#fffffc;stroke-width:0.33770552;stroke-linecap:butt;stroke-linejoin:miter;stroke-miterlimit:4;stroke-dasharray:2.02623306, 2.02623306;stroke-dashoffset:0;stroke-opacity:1" />
    <rect
       style="fill:none;fill-opacity:1;stroke:#fffffc;stroke-width:0.35277778;stroke-linecap:round;stroke-linejoin:miter;stroke-miterlimit:4;stroke-dasharray:2.11666664, 2.11666664;stroke-dashoffset:0;stroke-opacity:1"
       id="rect8752"
       width="73.231842"
       height="72.162773"
       x="1.6704385"
       y="222.49861"
       ry="2.271791" />
    <g
       id="g9014">
      <rect
         ry="0"
         y="245.87994"
         x="17.716801"
         height="2.7449596"
         width="3.1199713"
         id="rect8799"
         style="fill:#ffffff;fill-opacity:1;stroke:#000008;stroke-width:0.26654136;stroke-linecap:round;stroke-linejoin:miter;stroke-miterlimit:4;stroke-dasharray:none;stroke-dashoffset:0;stroke-opacity:1" />
      <rect
         ry="0"
         y="261.11633"
         x="17.716799"
         height="2.7449598"
         width="3.1199715"
         id="rect8799-0"
         style="fill:#ffffff;fill-opacity:1;stroke:#000008;stroke-width:0.26654136;stroke-linecap:round;stroke-linejoin:miter;stroke-miterlimit:4;stroke-dasharray:none;stroke-dashoffset:0;stroke-opacity:1" />
      <g
         id="g8791">
        <rect
           style="fill:#ffffff;fill-opacity:1;stroke:#000000;stroke-width:0.35277778;stroke-linecap:round;stroke-linejoin:miter;stroke-miterlimit:4;stroke-dasharray:none;stroke-dashoffset:0;stroke-opacity:1"
           id="rect8146"
           width="26.080357"
           height="13.985119"
           x="6.2366076"
           y="232.46198"
           ry="4.3467131" />
        <rect
           style="fill:#ffffff;fill-opacity:1;stroke:#000000;stroke-width:0.35277778;stroke-linecap:round;stroke-linejoin:miter;stroke-miterlimit:4;stroke-dasharray:none;stroke-dashoffset:0;stroke-opacity:1"
           id="rect8146-4-8-0"
           width="26.080357"
           height="13.985119"
           x="6.2366066"
           y="247.81363"
           ry="4.3467131" />
      </g>
      <g
         transform="matrix(0.09,0,0,0.09,9.7517855,235.65258)"
         id="g8121">
        <path
           inkscape:connector-curvature="0"
           d="m 14.701151,29.702646 c -0.26724,-0.85515 -0.9086,-1.54996 -1.7103,-1.97754 l -16.3013196,-7.80325 c -0.42757,-0.21379 -0.90859,-0.26724 -1.33617,-0.26724 -0.42757,0 -0.9086,0 -1.33617,0.1069 l -16.3013204,7.8567 c -0.8017,0.37413 -1.38962,1.06894 -1.6034,1.97753 l -4.00852,17.58404 c -0.16034,0.9086 0.0534,1.8172 0.58791,2.56546 l 11.27731,13.94964 c 0.64136,0.641366 1.54996,1.068941 2.45855,1.122389 H 4.3858914 c 0.96205,0.106895 1.87064,-0.320683 2.45856,-1.122389 L 18.121751,49.745246 c 0.53447,-0.74826 0.74826,-1.65686 0.64137,-2.56546 z"
           id="path10349"
           style="fill:#326de6;stroke-width:0.53446931" />
        <path
           inkscape:connector-curvature="0"
           d="m 12.189141,46.484976 v 0 c -0.0534,0 -0.10689,0 -0.10689,-0.0534 0,-0.0534 -0.10689,-0.0534 -0.21379,-0.0534 -0.21379,-0.0534 -0.42757,-0.0534 -0.64136,-0.0534 -0.10689,0 -0.21379,0 -0.32068,-0.0535 h -0.0534 c -0.58792,-0.0534 -1.2292796,-0.16034 -1.8171996,-0.32068 -0.16034,-0.0534 -0.32068,-0.21379 -0.37413,-0.37413 0.0534,0 0,0 0,0 v 0 l -0.42757,-0.10689 c 0.21378,-1.54996 0.10689,-3.15337 -0.21379,-4.70333 -0.37413,-1.54996 -1.01549,-3.04647 -1.87064,-4.38265 l 0.32068,-0.32068 v 0 -0.0534 c 0,-0.16034 0.0534,-0.37413 0.16034,-0.48102 0.48102,-0.42758 0.96204,-0.74826 1.49651,-1.06894 v 0 c 0.1069,-0.0535 0.21379,-0.10689 0.32068,-0.16034 0.21379,-0.10689 0.37413,-0.21379 0.58792,-0.32068 0.0534,-0.0534 0.10689,-0.0534 0.16034,-0.1069 0.0534,-0.0534 0,-0.0534 0,-0.10689 v 0 c 0.48103,-0.37413 0.58792,-1.01549 0.21379,-1.49651 -0.16034,-0.21379 -0.48102,-0.37413 -0.74826,-0.37413 -0.26723,0 -0.53447,0.10689 -0.74825,0.26723 v 0 l -0.0534,0.0534 c -0.0534,0.0534 -0.1069,0.1069 -0.16034,0.1069 -0.16035,0.16034 -0.32069,0.32068 -0.42758,0.48102 -0.0534,0.10689 -0.16034,0.16034 -0.21379,0.21379 v 0 c -0.37413,0.42757 -0.85515,0.85515 -1.33617,1.17583 -0.10689,0.0534 -0.21379,0.10689 -0.32068,0.10689 -0.0534,0 -0.16034,0 -0.21379,-0.0534 h -0.0534 l -0.42757,0.26724 c -0.42757,-0.42757 -0.90859,-0.85515 -1.33617,-1.28273 -1.97754,-1.54996 -4.4361,-2.512 -6.9481,-2.77924 l -0.0534,-0.42757 v 0 0.0534 c -0.16034,-0.1069 -0.21379,-0.26724 -0.26723,-0.42758 0,-0.58791 0,-1.17583 0.10689,-1.81719 v -0.0534 c 0,-0.10689 0.0534,-0.21379 0.0534,-0.32068 0.0534,-0.21379 0.0534,-0.42758 0.10689,-0.64136 v -0.32069 0 c 0.0534,-0.53447 -0.37413,-1.06893 -0.9086,-1.12238 -0.32068,-0.0534 -0.64136,0.10689 -0.90859,0.37413 -0.21379,0.21378 -0.32068,0.48102 -0.32068,0.74825 v 0 0.26724 c 0,0.21379 0.0534,0.42757 0.10689,0.64136 0.0534,0.1069 0.0534,0.21379 0.0534,0.32068 v 0.0534 c 0.10689,0.58792 0.10689,1.17583 0.10689,1.8172 -0.0534,0.16034 -0.10689,0.32068 -0.26723,0.42757 v 0.1069 0 l -0.0534,0.42757 c -0.58792,0.0534 -1.17583,0.16034 -1.8172,0.26724 -2.5120004,0.53446 -4.8102204,1.87064 -6.5739704,3.74128 l -0.32068,-0.21379 h -0.0534 c -0.0534,0 -0.10689,0.0534 -0.21379,0.0534 -0.10689,0 -0.21379,-0.0534 -0.32068,-0.10689 -0.48102,-0.37413 -0.96204,-0.80171 -1.33617,-1.22928 v 0 c -0.0534,-0.10689 -0.16034,-0.16034 -0.21379,-0.21379 -0.16034,-0.16034 -0.26724,-0.32068 -0.42758,-0.48102 -0.0534,-0.0534 -0.10689,-0.0534 -0.16034,-0.10689 -0.0534,-0.0534 -0.0534,-0.0534 -0.0534,-0.0534 v 0 c -0.21378,-0.16035 -0.48102,-0.26724 -0.74825,-0.26724 -0.32069,0 -0.58792,0.10689 -0.74826,0.37413 -0.32068,0.48102 -0.21379,1.12239 0.21379,1.49651 v 0 c 0.0534,0 0.0534,0.0534 0.0534,0.0534 0,0 0.1069,0.1069 0.16034,0.1069 0.16034,0.10689 0.37413,0.21379 0.58792,0.32068 0.10689,0.0534 0.21379,0.10689 0.32068,0.16034 v 0 c 0.53447,0.32068 1.06894,0.64136 1.49652,1.06894 0.10689,0.10689 0.21378,0.32068 0.16034,0.48102 v -0.0535 0 l 0.32068,0.32068 c -0.0534,0.1069 -0.1069,0.16034 -0.16034,0.26724 -1.65686,2.6189 -2.35167,5.71882 -1.87064,8.76529 l -0.42757,0.10689 v 0 c 0,0.0534 -0.0534,0.0534 -0.0534,0.0534 -0.0534,0.16034 -0.21379,0.26724 -0.37413,0.37413 -0.58792,0.16034 -1.17583,0.26724 -1.8172,0.32068 v 0 c -0.10689,0 -0.21378,0 -0.32068,0.0534 -0.21378,0 -0.42757,0.0534 -0.64136,0.0534 -0.0534,0 -0.10689,0.0534 -0.21379,0.0534 -0.0534,0 -0.0534,0 -0.10689,0.0534 v 0 c -0.58792,0.1069 -0.96205,0.64137 -0.85515,1.22928 0,0 0,0 0,0 0.10689,0.48102 0.58791,0.80171 1.06894,0.74826 0.10689,0 0.16034,0 0.26723,-0.0534 v 0 c 0.0534,0 0.0534,0 0.0534,-0.0534 0,-0.0534 0.16034,0 0.21379,0 0.21378,-0.0534 0.42757,-0.16034 0.58791,-0.21379 0.1069,-0.0534 0.21379,-0.10689 0.32068,-0.10689 h 0.0534 c 0.58792,-0.21379 1.12239,-0.37413 1.76375,-0.48102 h 0.0534 c 0.16034,0 0.32068,0.0534 0.42757,0.16034 0.0534,0 0.0534,0.0534 0.0534,0.0534 v 0 l 0.48102,-0.0534 c 0.80171,2.45856 2.29822,4.64988 4.38265,6.25329 0.48102,0.37413 0.9086,0.69481 1.44307,0.96204 l -0.26724,0.37413 v 0 c 0,0.0534 0.0534,0.0534 0.0534,0.0534 0.1069,0.16034 0.1069,0.37413 0.0534,0.53447 -0.21378,0.53447 -0.53446,1.06894 -0.85515,1.54996 v 0.0534 c -0.0534,0.1069 -0.10689,0.16034 -0.21378,0.26724 -0.1069,0.10689 -0.21379,0.32068 -0.37413,0.53446 -0.0534,0.0534 -0.0534,0.1069 -0.1069,0.16035 0,0 0,0.0535 -0.0534,0.0535 v 0 c -0.26723,0.53447 -0.0534,1.17583 0.42758,1.44306 0.10689,0.0535 0.26723,0.1069 0.37413,0.1069 0.42757,0 0.8017,-0.26724 1.01549,-0.64136 v 0 c 0,0 0,-0.0534 0.0534,-0.0534 0,-0.0534 0.0534,-0.1069 0.10689,-0.16034 0.0534,-0.21379 0.16034,-0.37413 0.21379,-0.58792 l 0.10689,-0.32069 v 0 c 0.16034,-0.58791 0.42758,-1.12238 0.6948104,-1.65685 0.1069,-0.16034 0.26724,-0.26723 0.42758,-0.32068 0.0534,0 0.0534,0 0.0534,-0.0534 v 0 l 0.21379,-0.42758 c 1.49651,0.58792 3.04647,0.85515 4.64988,0.85515 0.96204,0 1.92409,-0.10689 2.88613,-0.37412 0.58792,-0.1069 1.17583998,-0.32069 1.71031003,-0.48103 l 0.21378,0.37413 v 0 c 0.0534,0 0.0534,0 0.0534,0.0534 0.16034,0.0534 0.32068,0.16034 0.42758,0.32068 0.26723,0.53447 0.53446997,1.06894 0.69480997,1.65686 v 0.0534 l 0.10689,0.32068 c 0.0534,0.21379 0.10689,0.42757 0.21379,0.58792 0.0534,0.0534 0.0534,0.10689 0.10689,0.16034 0,0 0,0.0534 0.0534,0.0534 v 0 c 0.21379,0.37412 0.58792,0.64136 1.0155,0.64136 0.16034,0 0.26723,-0.0534 0.42757,-0.10689 0.21379,-0.1069 0.42758,-0.32069 0.48102,-0.58792 0.0534,-0.26723 0.0534,-0.53447 -0.0534,-0.8017 v 0 c 0,-0.0534 -0.0534,-0.0534 -0.0534,-0.0534 0,-0.0535 -0.0534,-0.1069 -0.10689,-0.16034 -0.1069,-0.21379 -0.21379,-0.37413 -0.37413,-0.53447 -0.0534,-0.1069 -0.10689,-0.16034 -0.21379,-0.26724 v -0.10689 c -0.37413,-0.48102 -0.64136,-1.01549 -0.85515,-1.54996 -0.0534,-0.16034 -0.0534,-0.37413 0.0534,-0.53447 0,-0.0534 0.0534,-0.0534 0.0534,-0.0534 v 0 l -0.16034,-0.42758 c 2.72579,-1.65685 4.81022,-4.2223 5.77227,-7.26878 l 0.42758,0.0534 v 0 c 0.0534,0 0.0534,-0.0534 0.0534,-0.0534 0.10689,-0.10689 0.26723,-0.16034 0.42757,-0.16034 h 0.0534 c 0.58791,0.10689 1.17583,0.26724 1.7102996,0.48102 h 0.0534 c 0.10689,0.0534 0.21379,0.1069 0.32068,0.1069 0.21379,0.10689 0.37413,0.21379 0.58792,0.26723 0.0534,0 0.10689,0.0534 0.21378,0.0534 0.0534,0 0.0534,0 0.1069,0.0534 v 0 c 0.10689,0.0534 0.16034,0.0534 0.26723,0.0534 0.48103,0 0.9086,-0.32068 1.06894,-0.74825 -0.0534,-0.58792 -0.48102,-1.0155 -0.96204,-1.12239 z m -15.4461596,-1.65685 -1.44307,0.69481 -1.44306,-0.69481 -0.37413,-1.54996 1.01549,-1.28273 h 1.60341 l 1.01549,1.28273 z m 8.71185,-3.47405 c 0.26724,1.12238 0.32068,2.24477 0.21379,3.36715 l -5.07745997,-1.44306 v 0 c -0.48102,-0.1069 -0.74826,-0.58792 -0.64136,-1.06894 0.0534,-0.16034 0.10689,-0.26724 0.21379,-0.37413 l 4.00850997,-3.63439 c 0.58792,0.96204 1.0155,2.03098 1.28273,3.15337 z m -2.88613,-5.13091 -4.38265,3.09992 c -0.37413,0.21379 -0.9086,0.16035 -1.17583,-0.21378 -0.1069,-0.1069 -0.16034,-0.21379 -0.16034,-0.37413 l -0.32069,-5.39814 c 2.35167,0.26723 4.43610003,1.28272 6.03951,2.88613 z m -9.6739,-2.72579 1.06894,-0.21379 -0.26723,5.34469 v 0 c 0,0.48103 -0.42758,0.85516 -0.9086,0.85516 -0.16034,0 -0.26724,-0.0535 -0.42758,-0.1069 l -4.4360904,-3.15337 c 1.38962,-1.33617 3.0999204,-2.29822 4.9705604,-2.72579 z m -6.5205204,4.70333 3.9550704,3.5275 v 0 c 0.37413,0.32068 0.42758,0.85515 0.10689,1.22928 -0.10689,0.16034 -0.21378,0.21378 -0.42757,0.26723 l -5.1843504,1.49651 c -0.16034,-2.24477 0.37412,-4.54298 1.54996,-6.52052 z m -0.9086,9.03253 5.2912504,-0.9086 c 0.42757,0 0.85515,0.26724 0.90859,0.69481 0.0534,0.16034 0.0534,0.37413 -0.0534,0.53447 v 0 l -2.0309804,4.91712 c -1.87064,-1.22928 -3.36715,-3.09992 -4.11541,-5.2378 z m 12.1324504,6.62742 c -0.74825,0.16034 -1.49651,0.26723 -2.29822,0.26723 -1.12238,0 -2.29821,-0.21379 -3.36715,-0.53447 l 2.6189,-4.75677 c 0.26723,-0.32068 0.69481,-0.42758 1.06894,-0.21379 0.16034,0.10689 0.26723,0.21379 0.42757,0.37413 v 0 l 2.56545,4.64988 c -0.32068,0.0534 -0.64136,0.10689 -1.01549,0.21379 z m 6.52053,-4.64988 c -0.80171,1.28272 -1.92409,2.40511 -3.20681997,3.20681 l -2.08443003,-5.02401 c -0.10689,-0.42757 0.10689,-0.85515 0.48101998,-1.01549 0.16034,-0.0534 0.32069,-0.1069 0.48103005,-0.1069 l 5.34468997,0.9086 c -0.26724,0.74826 -0.58792,1.44307 -1.01549,2.03099 z"
           id="path10351"
           style="fill:#ffffff;stroke-width:0.53446931" />
        <path
           inkscape:connector-curvature="0"
           d="m 231.00087,53.058956 c 0.74826,0.0534 1.54996,-0.0534 2.24477,-0.32069 0.42758,-0.21378 0.69481,-0.69481 0.64137,-1.17583 -0.0534,-0.53447 -0.37413,-1.01549 -0.85516,-1.17583 -0.8017,-0.48102 -1.7103,-0.9086 -2.6189,-1.17583 -0.90859,-0.32069 -1.7103,-0.69481 -2.45855,-1.06894 -0.69481,-0.32068 -1.28273,-0.74826 -1.87065,-1.28273 -0.53447,-0.53447 -0.90859,-1.12238 -1.17583,-1.81719 -0.32068,-0.80171 -0.42757,-1.65686 -0.42757,-2.51201 -0.0534,-1.76375 0.74825,-3.47405 2.13787,-4.54299 1.44307,-1.12238 3.36716,-1.65685 5.82572,-1.65685 1.17583,0 2.40511,0.10689 3.58094,0.37412 0.90859,0.16035 1.81719,0.37413 2.7258,0.69481 l -1.0155,4.54299 c -0.74824,-0.26723 -1.44306,-0.42757 -2.19132,-0.64136 -0.85515,-0.21379 -1.76375,-0.26723 -2.6189,-0.26723 -1.81719,0 -2.72579,0.48102 -2.72579,1.49651 0,0.21379 0.0534,0.42758 0.10689,0.64136 0.10689,0.21379 0.26723,0.37413 0.48102,0.53447 0.21379,0.16034 0.53447,0.32068 0.9086,0.53447 0.37413,0.21379 0.9086,0.42758 1.54996,0.64136 1.06894,0.37413 2.13788,0.85516 3.09992,1.38962 0.74827,0.37413 1.38962,0.85516 1.92411,1.49652 0.48101,0.48102 0.80168,1.06894 1.01547,1.76375 0.21378,0.74825 0.3207,1.49651 0.3207,2.24477 0.10689,1.81719 -0.74827,3.58094 -2.29822,4.59643 -1.49652,1.0155 -3.6344,1.54996 -6.41364,1.54996 -1.54996,0.0534 -3.04648,-0.10689 -4.54299,-0.48102 -0.85515,-0.21378 -1.65686,-0.48102 -2.45856,-0.74825 l 0.96204,-4.70333 c 0.96205,0.37412 1.97754,0.69481 2.99303,0.9086 1.06894,0.0534 2.08443,0.16034 3.15337,0.16034 m -29.44926,-5.87917 c -0.0534,-1.60341 0.26724,-3.20681 0.80171,-4.70333 0.48102,-1.28272 1.22928,-2.40511 2.19132,-3.4206 0.9086,-0.9086 1.92409,-1.60341 3.09992,-2.03098 1.17584,-0.48103 2.40511,-0.69481 3.63439,-0.69481 2.88614,0 5.18436,0.90859 6.84121,2.67234 1.65686,1.76375 2.51201,4.38265 2.51201,7.80325 0,0.32069 0,0.69482 -0.0534,1.12239 0,0.42757 -0.0534,0.74826 -0.0534,1.06894 h -13.04105 c 0.1069,1.12238 0.69481,2.19132 1.65686,2.83268 1.17583,0.74826 2.56545,1.12239 3.95507,1.06895 1.01549,0 2.08443,-0.1069 3.09992,-0.26724 0.85515,-0.16034 1.7103,-0.42758 2.51201,-0.80171 l 0.8017,4.70334 c -0.37413,0.21378 -0.8017,0.32068 -1.22928,0.48102 -0.58791,0.16034 -1.17583,0.32068 -1.76375,0.37413 -0.64136,0.10689 -1.28272,0.21378 -2.03098,0.32068 -0.69481,0.0534 -1.44307,0.10689 -2.19132,0.10689 -1.65686,0.0534 -3.26027,-0.21379 -4.81023,-0.8017 -1.28272,-0.48102 -2.40511,-1.22928 -3.36716,-2.19133 -0.90859,-0.96204 -1.54996,-2.13787 -1.97753,-3.36715 -0.37413,-1.44307 -0.58792,-2.88614 -0.58792,-4.27576 m 13.52208,-2.19132 c 0,-0.48102 -0.1069,-0.96205 -0.26724,-1.44307 -0.10689,-0.48102 -0.37413,-0.85515 -0.64136,-1.22928 -0.32068,-0.37413 -0.69481,-0.69481 -1.12239,-0.9086 -0.53447,-0.26723 -1.06894,-0.37412 -1.65685,-0.37412 -0.58792,0 -1.12239,0.10689 -1.65686,0.37412 -0.42757,0.21379 -0.85515,0.48103 -1.17583,0.85516 -0.32068,0.37412 -0.58792,0.8017 -0.74826,1.28272 -0.16034,0.48102 -0.26723,0.96205 -0.32068,1.44307 h 7.58947 m -29.18203,-13.25484 5.77227,-0.9086 v 5.98606 h 6.9481 v 4.81022 h -6.9481 v 7.16189 c -0.0534,1.01549 0.16034,2.03098 0.64137,2.88613 0.42757,0.69481 1.28272,1.06894 2.61889,1.06894 0.64137,0 1.28273,-0.0534 1.87065,-0.16034 0.64136,-0.10689 1.22928,-0.26723 1.81719,-0.48102 l 0.80171,4.48954 c -0.74826,0.32068 -1.54996,0.53447 -2.35167,0.74826 -1.01549,0.21379 -2.08443,0.32068 -3.15337,0.32068 -1.33617,0.0534 -2.67234,-0.16034 -3.90162,-0.64136 -0.96205,-0.37413 -1.8172,-1.01549 -2.45856,-1.76375 -0.64137,-0.8017 -1.06894,-1.76375 -1.33617,-2.77924 -0.26724,-1.17583 -0.37413,-2.40511 -0.32069,-3.58095 v -17.15646 m -23.35631,15.44616 c -0.0534,-1.60341 0.26724,-3.20681 0.80171,-4.70333 0.48102,-1.28272 1.22928,-2.40511 2.19132,-3.4206 0.9086,-0.9086 1.92409,-1.60341 3.09993,-2.03098 1.17583,-0.48103 2.40511,-0.69481 3.63439,-0.69481 2.88613,0 5.18435,0.90859 6.8412,2.67234 1.65686,1.76375 2.51201,4.38265 2.51201,7.80325 0,0.32069 0,0.69482 -0.0534,1.12239 -0.0534,0.42757 -0.0534,0.74826 -0.0534,1.06894 h -13.09449 c 0.10689,1.12238 0.69481,2.19132 1.65685,2.83268 1.17584,0.74826 2.56546,1.12239 3.95507,1.06895 1.0155,0 2.08444,-0.1069 3.09993,-0.26724 0.85515,-0.16034 1.7103,-0.42758 2.56545,-0.80171 l 0.8017,4.70334 c -0.37412,0.21378 -0.8017,0.32068 -1.22928,0.48102 -0.58791,0.16034 -1.17583,0.32068 -1.76375,0.37413 -0.64136,0.10689 -1.28272,0.21378 -2.03098,0.32068 -0.69481,0.0534 -1.44307,0.10689 -2.19132,0.10689 -1.65686,0.0534 -3.26027,-0.21379 -4.81023,-0.8017 -1.28272,-0.48102 -2.40511,-1.22928 -3.36715,-2.19133 -0.9086,-0.96204 -1.54996,-2.13787 -1.97754,-3.36715 -0.42757,-1.44307 -0.64136,-2.88614 -0.58792,-4.27576 m 13.52208,-2.19132 c 0,-0.48102 -0.1069,-0.96205 -0.26724,-1.44307 -0.10689,-0.48102 -0.37412,-0.85515 -0.64136,-1.22928 -0.32068,-0.37413 -0.69481,-0.69481 -1.12239,-0.9086 -0.53446,-0.26723 -1.06893,-0.37412 -1.65685,-0.37412 -0.58792,0 -1.12238,0.10689 -1.65685,0.37412 -0.42758,0.21379 -0.80171,0.48103 -1.12239,0.85516 -0.32068,0.37412 -0.58792,0.8017 -0.74826,1.28272 -0.16034,0.48102 -0.26723,0.96205 -0.32068,1.44307 h 7.53602 m -35.43531,-7.48257 c 1.22927,-0.32068 2.512,-0.58792 3.79473,-0.80171 1.6034,-0.26723 3.26026,-0.37412 4.86367,-0.37412 1.44306,-0.0534 2.88613,0.21378 4.27575,0.69481 1.06894,0.37412 2.03099,1.01549 2.7258,1.87064 0.6948,0.85515 1.17583,1.87064 1.44306,2.93958 0.32068,1.22928 0.42758,2.51201 0.42758,3.79473 v 11.49109 h -5.71882 v -10.74283 c 0,-1.87064 -0.26724,-3.15337 -0.74826,-3.95507 -0.48102,-0.74826 -1.38962,-1.17584 -2.72579,-1.17584 -0.42758,0 -0.85515,0 -1.33618,0.0534 -0.48102,0 -0.85515,0.0534 -1.22928,0.1069 v 15.71339 h -5.77226 v -19.61502 m -4.06197,4.43609 c -0.53447,-0.10689 -1.12239,-0.26723 -1.8172,-0.37412 -0.74826,-0.16035 -1.49651,-0.21379 -2.24477,-0.21379 -0.42757,0 -0.85515,0.0534 -1.33617,0.10689 -0.37413,0.0534 -0.74826,0.1069 -1.12239,0.21379 v 15.55306 h -5.77227 v -19.34779 c 1.17584,-0.42758 2.40512,-0.74826 3.6344,-1.01549 1.54996,-0.37413 3.15337,-0.53447 4.70333,-0.48103 0.37412,0 0.74825,0.0534 1.12238,0.0534 0.42758,0 0.85515,0.0534 1.33618,0.16034 0.42757,0.0535 0.85514,0.1069 1.33617,0.21379 0.37413,0.0534 0.74826,0.16034 1.12238,0.32068 l -0.96204,4.81023 m -35.86289,5.2378 c -0.0534,-1.60341 0.26723,-3.20682 0.8017,-4.70333 0.48102,-1.28273 1.22928,-2.40512 2.19133,-3.42061 0.9086,-0.9086 1.92409,-1.60341 3.09992,-2.03098 1.17583,-0.48102 2.40511,-0.69481 3.63439,-0.69481 2.88613,0 5.18435,0.9086 6.84121,2.67235 1.65685,1.76374 2.512,4.38264 2.512,7.7498 0,0.32068 0,0.69481 -0.0534,1.12239 -0.0535,0.42757 -0.0535,0.74825 -0.0535,1.06893 h -13.0945 c 0.1069,1.12239 0.69481,2.19133 1.65686,2.83269 1.17583,0.74826 2.56545,1.12239 3.95507,1.06894 1.01549,0 2.08443,-0.10689 3.09992,-0.26723 0.85515,-0.16034 1.7103,-0.42758 2.51201,-0.74826 l 0.8017,4.70333 c -0.37413,0.21379 -0.8017,0.32068 -1.22928,0.48102 -0.58792,0.16034 -1.17583,0.32068 -1.76375,0.37413 -0.64136,0.10689 -1.28272,0.21379 -2.03098,0.32068 -0.69481,0.0534 -1.44307,0.1069 -2.19133,0.1069 -1.65685,0.0535 -3.26026,-0.21379 -4.81022,-0.80171 -1.28272,-0.48102 -2.40511,-1.22928 -3.36715,-2.19132 -0.9086,-0.96205 -1.54997,-2.13788 -1.97754,-3.36716 -0.32068,-1.44307 -0.53447,-2.83269 -0.53447,-4.27575 m 13.57552,-2.19133 c 0,-0.48102 -0.10689,-0.96204 -0.26724,-1.44307 -0.10689,-0.48102 -0.37412,-0.85515 -0.64136,-1.22927 -0.32068,-0.37413 -0.69481,-0.69481 -1.12238,-0.9086 -0.53447,-0.26724 -1.06894,-0.37413 -1.65686,-0.37413 -0.58792,0 -1.12239,0.10689 -1.65685,0.37413 -0.42758,0.21379 -0.85515,0.48102 -1.17584,0.85515 -0.32068,0.37413 -0.58791,0.8017 -0.74825,1.28272 -0.16034,0.48103 -0.26724,0.96205 -0.32068,1.44307 h 7.58946 m -22.928729,1.87064 c 0,-3.74128 -1.38962,-5.55848 -4.11542,-5.55848 -0.58791,0 -1.17583,0.0534 -1.76375,0.21379 -0.48102,0.1069 -0.96204,0.32068 -1.38961,0.58792 v 10.4756 c 0.26723,0.0534 0.64136,0.10689 1.06893,0.16034 0.42758,0.0534 0.9086,0.0534 1.44307,0.0534 1.38962,0.10689 2.72579,-0.48103 3.58094,-1.60341 0.80171,-1.28273 1.22928,-2.77924 1.17584,-4.3292 m 5.87916,0.21378 c 0,1.49652 -0.21379,2.99303 -0.74826,4.4361 -0.42757,1.28273 -1.12238,2.40511 -2.03098,3.36715 -0.96205,0.96205 -2.08443,1.71031 -3.31371,2.19133 -1.44307,0.53447 -2.93958,0.74826 -4.48954,0.74826 -0.69481,0 -1.44307,-0.0534 -2.19133,-0.1069 -0.74825,-0.0534 -1.49651,-0.16034 -2.24477,-0.21379 -0.69481,-0.10689 -1.38962,-0.21378 -2.08443,-0.37413 -0.69481,-0.10689 -1.28272,-0.26723 -1.76375,-0.48102 v -28.59411 l 5.77227,-0.9086 v 10.15492 c 0.64136,-0.26723 1.33617,-0.48102 2.03099,-0.64136 0.74825,-0.16034 1.49651,-0.21379 2.24477,-0.21379 1.33617,0 2.61889,0.21379 3.84817,0.8017 1.06894,0.48103 2.03099,1.22928 2.77924,2.13788 0.80171,1.01549 1.38962,2.13788 1.71031,3.36716 0.32068,1.33617 0.48102,2.83268 0.48102,4.3292 m -24.3718,9.40666 c -1.22928,0.32068 -2.51201,0.58792 -3.79473,0.74826 -1.60341,0.26723 -3.26026,0.37412 -4.86367,0.37412 -1.49652,0.0534 -2.93958,-0.21378 -4.3292,-0.69481 -1.06894,-0.42757 -1.97754,-1.06894 -2.7258,-1.92408 -0.69481,-0.9086 -1.17583,-1.92409 -1.44306,-3.04648 -0.32069,-1.22928 -0.42758,-2.56545 -0.42758,-3.84818 v -11.2773 h 5.77227 v 10.63594 c 0,1.87064 0.26723,3.20681 0.74826,4.00852 0.48102,0.8017 1.38962,1.22928 2.72579,1.22928 0.42757,0 0.85515,0 1.33617,-0.0534 0.48102,-0.0534 0.85515,-0.0534 1.22928,-0.16034 v -15.65995 h 5.77227 v 19.66847 m -33.67175,-12.2928 c 0.58791,-0.64136 1.12238,-1.28272 1.76374,-1.92408 0.58792,-0.69481 1.17584,-1.33618 1.76375,-1.97754 0.58792,-0.69481 1.12239,-1.28273 1.60341,-1.87064 0.48102,-0.58792 0.96204,-1.12239 1.33617,-1.54996 h 6.84121 c -1.38962,1.54996 -2.72579,3.09992 -4.00852,4.54298 -1.33617,1.44307 -2.72579,2.93959 -4.27575,4.4361 0.85515,0.8017 1.65685,1.60341 2.40511,2.512 0.8017,0.96205 1.60341,1.92409 2.40511,2.99303 0.74826,1.01549 1.49651,2.08443 2.13788,3.09993 0.64136,1.01549 1.17583,1.97753 1.6034,2.83268 h -6.62741 c -0.42758,-0.69481 -0.9086,-1.38962 -1.44307,-2.19132 -0.53447,-0.80171 -1.12239,-1.60341 -1.65686,-2.45856 -0.58791,-0.80171 -1.22928,-1.60341 -1.92409,-2.35167 -0.58791,-0.69481 -1.22928,-1.33617 -1.92408,-1.87064 v 8.92564 h -5.77227 v -29.28892 l 5.77227,-0.9086 v 17.04957"
           id="path3003"
           style="fill:#000000;stroke-width:0.53446931" />
      </g>
      <rect
         ry="0"
         y="276.68478"
         x="17.716799"
         height="2.7449598"
         width="3.1199715"
         id="rect8799-5"
         style="fill:#ffffff;fill-opacity:1;stroke:#000008;stroke-width:0.26654136;stroke-linecap:round;stroke-linejoin:miter;stroke-miterlimit:4;stroke-dasharray:none;stroke-dashoffset:0;stroke-opacity:1" />
      <g
         transform="translate(-60.044368,3.8746535)"
         id="g8478">
        <rect
           style="fill:#ffffff;fill-opacity:1;stroke:#000000;stroke-width:0.35277778;stroke-linecap:round;stroke-linejoin:miter;stroke-miterlimit:4;stroke-dasharray:none;stroke-dashoffset:0;stroke-opacity:1"
           id="rect8146-4"
           width="26.080357"
           height="13.985119"
           x="66.280975"
           y="259.29062"
           ry="4.3467131" />
        <g
           id="g8144"
           transform="matrix(0.15,0,0,0.15,63.970694,251.59693)">
          <path
             style="fill:none;stroke:#394d54;stroke-width:2.77812505;stroke-linecap:round;stroke-linejoin:round"
             id="path12"
             d="m 142.85576,108.98764 -0.0112,-6.76218 -0.0336,-12.080126 m 6.84056,5.20598 -6.80697,6.874146 6.84055,6.78457 m -45.59993,-6.69501 c 0.0329,-1.45016 -0.38868,-2.931956 -1.24271,-4.131196 -1.23065,-1.72808 -3.222417,-2.90788 -5.407507,-2.93327 -0.14568,0 -0.28988,0 -0.43664,0.0112 -0.86381,0.0534 -1.70037,0.1734 -2.44065,0.48142 -4.86849,2.02565 -5.73109,8.786266 -1.62337,11.845006 3.55725,2.64885 8.731657,1.5673 10.523927,-2.47424 0.37873,-0.85404 0.62695,-1.9307 0.62695,-2.79891 V 90.089374 m 32.84843,5.96729 c -1.00805,-0.65135 -2.18402,-0.88634 -3.34751,-0.88446 -0.12616,0 -0.25587,0.006 -0.36946,0.0112 -3.36361,0.14467 -6.48229,2.52158 -6.48229,7.131646 0,5.45049 5.84414,8.39217 10.21045,5.82174 m 19.61482,-0.59337 c 3.44013,-2.94679 10.3336,-8.855746 10.3336,-8.855746 0,0 -0.25132,-0.4755 -0.41424,-0.69414 -1.39102,-1.86677 -3.51612,-2.79892 -5.75457,-2.79892 -5.5321,0 -9.67887,7.153396 -4.16479,12.348816 0.38179,0.35973 0.90626,0.64149 1.48902,0.88445 2.0234,0.84359 4.79334,0.7744 6.29197,-0.33587 M 115.39202,95.217014 c -0.15682,0.003 -0.31272,0.0195 -0.47022,0.0224 -4.1949,0.0771 -7.21946,4.43419 -6.30316,8.475116 0.89291,3.93778 5.19483,6.26953 8.91175,4.98207 4.32821,-1.13487 6.09351,-6.58515 3.71696,-10.266426 -1.29979,-2.01338 -3.50288,-3.25787 -5.85533,-3.21316 z m 63.69216,0.13434 c -1.69865,0.005 -3.35299,0.5995 -4.57902,1.74653 -1.93349,1.59579 -2.35333,3.610876 -2.3287,6.157616 l 0.056,5.78816"
             inkscape:connector-curvature="0" />
          <path
             style="fill:#394d54;stroke-width:0.26458332"
             id="path14"
             d="m 58.101153,91.125914 h 6.04997 v 6.18456 h 3.05905 c 1.41262,0 2.86563,-0.25166 4.20343,-0.70497 0.65736,-0.22289 1.3952,-0.53308 2.04362,-0.92318 -0.85403,-1.11505 -1.29005,-2.523 -1.41843,-3.91082 -0.17429,-1.88761 0.20646,-4.34457 1.48404,-5.82195 l 0.63596,-0.73558 0.75782,0.60918 c 1.90801,1.53293 3.51264,3.67489 3.79547,6.11669 2.29741,-0.67578 4.9947,-0.51594 7.01976,0.65282 l 0.83079,0.47937 -0.43729,0.85347 c -1.71262,3.34258 -5.29299,4.37799 -8.79345,4.19477 -5.23799,13.046176 -16.64171,19.222666 -30.46866,19.222666 -7.14346,0 -13.69744,-2.67037 -17.42957,-9.00825 -0.21882,-0.3937 -0.4062,-0.80537 -0.60493,-1.20971 -1.26156,-2.78982 -1.68058,-5.84604 -1.39632,-8.899696 l 0.0853,-0.91469 h 5.17338 v -6.18456 h 6.04997 v -6.04996 h 12.09992 v -6.04997 h 7.26008 v 12.09993"
             inkscape:connector-curvature="0" />
          <g
             id="g16"
             clip-path="url(#clipPath8)"
             transform="matrix(0.26458333,0,0,0.26458333,19.078393,79.025984)">
            <g
               id="g18">
              <g
                 id="g20"
                 transform="translate(0,-22.866)">
                <path
                   inkscape:connector-curvature="0"
                   style="fill:#00acd3"
                   id="path22"
                   d="m 123.85901,3.8110794 h 19.81751 V 23.62805 h -19.81751 z" />
                <path
                   inkscape:connector-curvature="0"
                   style="fill:#20c2ef"
                   id="path24"
                   d="m 123.85901,26.676485 h 19.81751 v 19.818043 h -19.81751 z" />
                <path
                   inkscape:connector-curvature="0"
                   style="stroke:#394d54;stroke-width:1.55999994"
                   id="path26"
                   d="M 126.29235,21.976904 V 5.4611548 M 129.2642,21.976904 V 5.4611548 m 3.00184,16.5157492 V 5.4611548 m 3.00344,16.5157492 V 5.4611548 M 138.2724,21.976904 V 5.4611548 m 2.97131,16.5157492 V 5.4611548" />
                <use
                   height="100%"
                   width="100%"
                   y="0"
                   x="0"
                   xlink:href="#path26"
                   id="use28"
                   transform="translate(0,22.866)" />
              </g>
              <use
                 height="100%"
                 width="100%"
                 y="0"
                 x="0"
                 xlink:href="#g20"
                 id="use30"
                 transform="matrix(1,0,0,-1,22.866,4.572651)" />
            </g>
            <use
               height="100%"
               width="100%"
               y="0"
               x="0"
               xlink:href="#g18"
               id="use32"
               transform="translate(-91.464,45.732)" />
            <use
               height="100%"
               width="100%"
               y="0"
               x="0"
               xlink:href="#g18"
               id="use34"
               transform="translate(-45.732,45.732)" />
            <use
               height="100%"
               width="100%"
               y="0"
               x="0"
               xlink:href="#g18"
               id="use36"
               transform="translate(0,45.732)" />
          </g>
          <path
             style="fill:#17b5eb"
             id="path38"
             clip-path="url(#clipPath8)"
             d="m 221.57014,54.379649 c 1.53332,-11.915247 -7.38383,-21.274779 -12.91407,-25.71836 -6.37269,7.367765 -7.36295,26.677556 2.63498,34.807431 -5.57952,4.956117 -17.33731,9.448435 -29.37574,9.448435 L 34,72.917155 C 32.829255,85.484184 34,146 34,146 h 217 l -0.98657,-91.424 c -9.39863,-5.423665 -21.48419,-3.694326 -28.44332,-0.196552"
             inkscape:connector-curvature="0"
             transform="matrix(0.26458333,0,0,0.26458333,19.078393,79.025984)" />
          <path
             style="fill-opacity:0.17000002"
             id="path40"
             clip-path="url(#clipPath8)"
             d="m 34,89 v 57 H 251 V 89"
             inkscape:connector-curvature="0"
             transform="matrix(0.26458333,0,0,0.26458333,19.078393,79.025984)" />
          <path
             style="fill:#d4edf1"
             id="path42"
             clip-path="url(#clipPath8)"
             d="M 111.23736,140.88997 C 97.697741,134.4648 90.265707,125.73081 86.130611,116.19562 L 45,118 l 21,28 45.23736,-5.11003"
             inkscape:connector-curvature="0"
             transform="matrix(0.26458333,0,0,0.26458333,19.078393,79.025984)" />
          <path
             style="fill-opacity:0.08500001"
             id="path44"
             clip-path="url(#clipPath8)"
             d="m 222.5,53.9375 v 0.03125 c -20.86119,26.889144 -50.78312,50.37872 -82.90625,62.71875 -28.65478,11.00767 -53.638381,11.06039 -70.875,2.21875 -1.85607,-1.04832 -3.675701,-2.21152 -5.5,-3.3125 C 50.582097,106.76175 43.464274,92.152308 44.0625,72.90625 H 34 V 146 H 251 V 50 h -25 z"
             inkscape:connector-curvature="0"
             transform="matrix(0.26458333,0,0,0.26458333,19.078393,79.025984)" />
          <path
             style="fill:none;stroke:#394d54;stroke-width:0.89958334;stroke-linecap:round"
             id="path46"
             d="m 31.150013,109.9905 c 3.74786,0.20513 7.74765,0.24191 11.23652,-0.85163"
             inkscape:connector-curvature="0" />
          <path
             style="fill:#d4edf1;stroke-width:0.26458332"
             id="path48"
             d="m 46.110943,107.32562 c 0,0.79877 -0.64758,1.44634 -1.44635,1.44634 -0.79891,0 -1.44663,-0.64757 -1.44663,-1.44634 0,-0.79877 0.64772,-1.44663 1.44663,-1.44663 0.79877,0 1.44635,0.64786 1.44635,1.44663 z"
             inkscape:connector-curvature="0" />
          <path
             style="fill:#394d54;stroke-width:0.26458332"
             id="path50"
             d="m 45.039673,106.3595 c -0.12625,0.073 -0.2117,0.20972 -0.2117,0.36615 0,0.23353 0.18931,0.42256 0.42284,0.42256 0.15998,0 0.29899,-0.0888 0.37083,-0.22007 0.0507,0.12229 0.0789,0.25663 0.0789,0.39748 0,0.57205 -0.46379,1.03584 -1.03598,1.03584 -0.57205,0 -1.03612,-0.46379 -1.03612,-1.03584 0,-0.57233 0.46407,-1.03627 1.03612,-1.03627 0.13235,0 0.25861,0.0249 0.37509,0.0701 z"
             inkscape:connector-curvature="0" />
          <path
             style="fill:#394d54;stroke-width:0.26458332"
             id="path52"
             d="m 19.078393,102.88143 h 67.2908 c -1.46519,-0.37168 -4.63576,-0.87373 -4.11288,-2.79393 -2.66413,3.08286 -9.08917,2.1628 -10.71066,0.64262 -1.8057,2.61893 -12.31754,1.62348 -13.05071,-0.41674 -2.26368,2.65662 -9.27819,2.65662 -11.54201,0 -0.73345,2.04022 -11.24515,3.03567 -13.051,0.41674 -1.62149,1.52018 -8.04595,2.44024 -10.71037,-0.64262 0.52288,1.9202 -2.64769,2.42225 -4.11317,2.79393"
             inkscape:connector-curvature="0" />
        </g>
      </g>
      <rect
         y="261.06622"
         x="17.812517"
         height="2.5713046"
         width="2.9285383"
         id="rect8803-9"
         style="fill:#ffffff;fill-opacity:1;stroke:none;stroke-width:0.26654136;stroke-linecap:round;stroke-linejoin:miter;stroke-miterlimit:4;stroke-dasharray:none;stroke-dashoffset:0;stroke-opacity:1" />
      <g
         transform="translate(-18.709823,32.12798)"
         id="g8443">
        <rect
           style="fill:#ffffff;fill-opacity:1;stroke:#000000;stroke-width:0.35277778;stroke-linecap:round;stroke-linejoin:miter;stroke-miterlimit:4;stroke-dasharray:none;stroke-dashoffset:0;stroke-opacity:1"
           id="rect8146-4-8"
           width="26.080357"
           height="13.985119"
           x="24.94643"
           y="246.38895"
           ry="4.3467131" />
        <g
           id="g8116"
           transform="matrix(0.1215,0,0,0.1215,31.256127,223.99743)">
          <path
             id="path38-7"
             d="m 57.312985,291.1163 c -0.515054,0 -1.026581,-0.13512 -1.478137,-0.39511 l -4.704988,-2.78553 c -0.702731,-0.393 -0.359833,-0.53199 -0.128058,-0.61207 0.936977,-0.32808 1.127122,-0.40217 2.127247,-0.97014 0.105127,-0.06 0.24271,-0.0388 0.350306,0.0247 l 3.614555,2.14489 c 0.130529,0.0705 0.315735,0.0705 0.436739,0 l 14.093447,-8.13505 c 0.130527,-0.0741 0.215194,-0.22577 0.215194,-0.381 v -16.26302 c 0,-0.16228 -0.08467,-0.30692 -0.218017,-0.38806 L 57.53347,255.22792 c -0.130527,-0.0776 -0.303387,-0.0776 -0.433914,0 l -14.08498,8.12798 c -0.136525,0.0776 -0.223308,0.22931 -0.223308,0.38453 v 16.26303 c 0,0.15522 0.08467,0.30338 0.21872,0.37747 l 3.859382,2.22955 c 2.095497,1.04775 3.376078,-0.18697 3.376078,-1.42875 v -16.05136 c 0,-0.2293 0.179917,-0.40569 0.40922,-0.40569 h 1.785054 c 0.22225,0 0.405694,0.17639 0.405694,0.40569 v 16.05842 c 0,2.79399 -1.523998,4.39913 -4.173355,4.39913 -0.814914,0 -1.456968,0 -3.249076,-0.88194 L 41.72588,282.5752 c -0.913693,-0.52916 -1.478137,-1.51694 -1.478137,-2.57174 v -16.26303 c 0,-1.05833 0.564444,-2.04611 1.478137,-2.56822 l 14.107557,-8.13856 c 0.892527,-0.50448 2.077858,-0.50448 2.963328,0 l 14.08992,8.14209 c 0.910164,0.52564 1.478135,1.50989 1.478135,2.56822 v 16.26302 c 0,1.05481 -0.567971,2.03906 -1.478135,2.56822 l -14.08992,8.13857 c -0.451553,0.26106 -0.96308,0.39511 -1.485191,0.39511"
             style="fill:#689f63;stroke-width:0.35277712"
             inkscape:connector-curvature="0" />
          <path
             id="path40-1"
             d="m 61.666254,279.90998 c -6.166544,0 -7.459472,-2.83068 -7.459472,-5.20487 0,-0.22578 0.182033,-0.4057 0.408164,-0.4057 h 1.820328 c 0.201084,0 0.370417,0.1464 0.402167,0.34502 0.275167,1.8549 1.09361,2.79046 4.822463,2.79046 2.970384,0 4.233328,-0.67098 4.233328,-2.24613 0,-0.90664 -0.359834,-1.58044 -4.974159,-2.03199 -3.859382,-0.381 -6.244156,-1.2312 -6.244156,-4.318 0,-2.84338 2.398884,-4.53671 6.417016,-4.53671 4.512019,0 6.748627,1.56633 7.03085,4.93182 0.01058,0.11642 -0.03175,0.22931 -0.109363,0.31397 -0.07761,0.0811 -0.186971,0.13053 -0.29986,0.13053 h -1.830912 c -0.1905,0 -0.356306,-0.13405 -0.395113,-0.3175 -0.44097,-1.95085 -1.506357,-2.57527 -4.402656,-2.57527 -3.242024,0 -3.619494,1.12889 -3.619494,1.97555 0,1.02658 0.4445,1.32644 4.818935,1.905 4.332103,0.57503 6.388793,1.38641 6.388793,4.43088 0,3.06916 -2.561161,4.82952 -7.02732,4.82952 m 17.166135,-17.24728 h 0.472723 c 0.388054,0 0.462138,-0.27163 0.462138,-0.43038 0,-0.41628 -0.28575,-0.41628 -0.4445,-0.41628 h -0.486831 z m -0.575027,-1.33349 h 1.04775 c 0.359831,0 1.065392,0 1.065392,0.80433 0,0.56091 -0.359838,0.67733 -0.575031,0.74789 0.419801,0.0282 0.448031,0.30338 0.504471,0.69144 0.0282,0.24342 0.0741,0.66322 0.15875,0.80433 h -0.645584 c -0.01765,-0.14111 -0.116417,-0.91722 -0.116417,-0.95955 -0.04233,-0.17286 -0.102304,-0.25753 -0.317497,-0.25753 h -0.532694 v 1.22061 h -0.58914 z m -1.259414,1.51694 c 0,1.26294 1.019527,2.286 2.271885,2.286 1.262941,0 2.282471,-1.04422 2.282471,-2.286 0,-1.26647 -1.03364,-2.27189 -2.285998,-2.27189 -1.23472,0 -2.271885,0.99131 -2.271885,2.26836 m 4.995323,0.0106 c 0,1.49578 -1.22413,2.71639 -2.716382,2.71639 -1.481664,0 -2.716384,-1.2065 -2.716384,-2.71639 0,-1.53811 1.262941,-2.71638 2.716384,-2.71638 1.464022,0 2.712852,1.1818 2.712852,2.71638"
             style="fill:#689f63;stroke-width:0.35277712"
             inkscape:connector-curvature="0" />
          <path
             id="path42-0"
             d="m 13.670572,227.48236 c 0,-0.64911 -0.342193,-1.2453 -0.902403,-1.5681 l -14.9422277,-8.59718 c -0.252236,-0.14816 -0.53481,-0.22577 -0.821265,-0.23636 h -0.154517 c -0.286455,0.0106 -0.569029,0.0882 -0.825498,0.23636 l -14.9415233,8.59718 c -0.556682,0.32456 -0.903815,0.92075 -0.903815,1.56986 l 0.03281,23.15629 c 0,0.32103 0.165805,0.62089 0.448027,0.77964 0.275166,0.16933 0.620887,0.16933 0.896054,0 l 8.8829283,-5.08705 c 0.560915,-0.33372 0.903109,-0.92357 0.903109,-1.56633 v -10.81791 c 0,-0.64558 0.342194,-1.24177 0.901345,-1.5628 l 3.781771,-2.17805 c 0.280811,-0.16227 0.589138,-0.24271 0.90311,-0.24271 0.309032,0 0.624415,0.0797 0.897465,0.24236 l 3.780007,2.17734 c 0.559504,0.32103 0.903109,0.91722 0.903109,1.5628 v 10.81721 c 0,0.64205 0.34678,1.23472 0.904874,1.56633 l 8.8772837,5.08352 c 0.278693,0.1658 0.625472,0.1658 0.90311,0 0.273754,-0.15875 0.44732,-0.45861 0.44732,-0.77964 z m 70.508861,12.05651 c 0,0.16122 -0.0857,0.31044 -0.22578,0.39017 l -5.1322,2.95839 c -0.139345,0.0801 -0.311502,0.0801 -0.450495,0 l -5.132909,-2.95839 c -0.14111,-0.0801 -0.225777,-0.2293 -0.225777,-0.39017 v -5.92524 c 0,-0.16158 0.08467,-0.31045 0.22225,-0.39159 l 5.129379,-2.96333 c 0.141113,-0.0811 0.313974,-0.0811 0.455084,0 l 5.132908,2.96333 c 0.14111,0.0811 0.22578,0.23001 0.22578,0.39159 z m 1.38641,-43.88618 c -0.2801,-0.15593 -0.62088,-0.1517 -0.89746,0.01 -0.27517,0.16228 -0.4452,0.45861 -0.4452,0.77964 v 22.93051 c 0,0.22578 -0.11995,0.43392 -0.31539,0.54681 -0.19402,0.11289 -0.43568,0.11289 -0.63147,0 l -3.742966,-2.15582 c -0.557387,-0.32244 -1.243891,-0.32244 -1.803395,0 l -14.947167,8.62646 c -0.558448,0.32102 -0.90311,0.91722 -0.90311,1.55927 v 17.25786 c 0,0.64558 0.344662,1.23825 0.90311,1.5628 l 14.947167,8.63246 c 0.558094,0.32102 1.245304,0.32102 1.80516,0 l 14.947171,-8.63599 c 0.55738,-0.32455 0.90311,-0.91722 0.90311,-1.5628 V 202.1933 c 0,-0.65475 -0.35631,-1.25694 -0.92781,-1.57691 z m 49.774387,37.80501 c 0.55527,-0.32244 0.89711,-0.91793 0.89711,-1.55998 v -4.18253 c 0,-0.64346 -0.34219,-1.23719 -0.89852,-1.56104 l -14.85192,-8.62187 c -0.56092,-0.32456 -1.24883,-0.32456 -1.80975,0 l -14.94364,8.6254 c -0.56091,0.32455 -0.90311,0.91722 -0.90311,1.5628 v 17.2508 c 0,0.64911 0.34925,1.24884 0.91017,1.56986 l 14.84839,8.46312 c 0.5468,0.31398 1.21708,0.3175 1.77094,0.0106 l 8.98171,-4.99179 c 0.28222,-0.15875 0.46213,-0.45861 0.46213,-0.78317 0,-0.32455 -0.17286,-0.62794 -0.45508,-0.78669 l -15.03536,-8.62893 c -0.28222,-0.15875 -0.45508,-0.45861 -0.45508,-0.77964 v -5.4116 c 0,-0.32314 0.16933,-0.62088 0.45155,-0.78175 l 4.67783,-2.69874 c 0.27869,-0.16228 0.62088,-0.16228 0.89958,0 l 4.68135,2.69874 c 0.2787,0.15875 0.45156,0.45861 0.45156,0.77964 v 4.25449 c 0,0.32103 0.17286,0.62089 0.45155,0.78316 0.27869,0.15875 0.62442,0.15875 0.90311,-0.004 z m 0,0"
             style="fill:#333333;fill-rule:evenodd;stroke-width:0.35277712"
             inkscape:connector-curvature="0" />
          <path
             id="path44-6"
             d="m 119.36331,232.65054 c 0.10583,-0.0624 0.23847,-0.0624 0.34572,0 l 2.86807,1.65453 c 0.10725,0.0621 0.17286,0.17639 0.17286,0.29986 v 3.31257 c 0,0.12348 -0.0656,0.23778 -0.17286,0.29986 l -2.86807,1.65453 c -0.10725,0.0624 -0.23989,0.0624 -0.34572,0 l -2.86632,-1.65453 c -0.10936,-0.0621 -0.17639,-0.17638 -0.17639,-0.29986 v -3.31257 c 0,-0.12347 0.0635,-0.23777 0.17286,-0.29986 z m 0,0"
             style="fill:#689f63;fill-rule:evenodd;stroke-width:0.35277712"
             inkscape:connector-curvature="0" />
          <g
             id="g48"
             transform="matrix(0.35277713,0,0,0.35277713,-47.445243,137.67729)"
             clip-path="url(#a)">
            <path
               style="fill:url(#b)"
               inkscape:connector-curvature="0"
               id="path46-1"
               d="m 331.363,246.793 -118.715,-58.19 -60.87,124.174 118.712,58.193 z m 0,0" />
          </g>
          <g
             id="g52"
             transform="matrix(0.35277713,0,0,0.35277713,-47.445243,137.67729)"
             clip-path="url(#c)">
            <path
               style="fill:url(#d)"
               inkscape:connector-curvature="0"
               id="path50-5"
               d="m 144.07,264.004 83.825,113.453 110.86,-81.906 -83.83,-113.45 z m 0,0" />
          </g>
          <g
             id="g56"
             transform="matrix(0.35277713,0,0,0.35277713,-47.445243,137.67729)"
             clip-path="url(#e)">
            <path
               style="fill:url(#f)"
               inkscape:connector-curvature="0"
               id="path54"
               d="m 197.02,225.934 v 107.43 h 91.683 v -107.43 z m 0,0" />
          </g>
        </g>
      </g>
      <rect
         y="276.63467"
         x="17.812517"
         height="2.5713046"
         width="2.9285383"
         id="rect8803-94"
         style="fill:#ffffff;fill-opacity:1;stroke:none;stroke-width:0.26654136;stroke-linecap:round;stroke-linejoin:miter;stroke-miterlimit:4;stroke-dasharray:none;stroke-dashoffset:0;stroke-opacity:1" />
      <g
         transform="matrix(0.18,0,0,0.18,9.3943846,193.83951)"
         id="g8389">
        <g
           id="g50"
           transform="matrix(0.35277777,0,0,-0.35277777,15.843061,336.23014)">
          <path
             d="m 0,0 h -30.267 c -0.781,0 -1.415,-0.634 -1.415,-1.415 v -14.798 c 0,-0.781 0.634,-1.416 1.415,-1.416 h 11.807 v -18.386 c 0,0 -2.651,-0.903 -9.981,-0.903 -8.647,0 -20.727,3.159 -20.727,29.723 0,26.569 12.579,30.065 24.388,30.065 10.222,0 14.626,-1.8 17.428,-2.667 0.881,-0.269 1.695,0.607 1.695,1.388 l 3.377,14.298 c 0,0.366 -0.124,0.806 -0.54,1.105 -1.138,0.812 -8.081,4.697 -25.621,4.697 -20.205,0 -40.932,-8.597 -40.932,-49.922 0,-41.326 23.73,-47.484 43.727,-47.484 16.557,0 26.601,7.075 26.601,7.075 0.414,0.228 0.459,0.807 0.459,1.072 V -1.415 C 1.414,-0.634 0.781,0 0,0"
             style="fill:#0f0e0f;fill-opacity:1;fill-rule:nonzero;stroke:none"
             id="path52-3"
             inkscape:connector-curvature="0" />
        </g>
        <g
           id="g54"
           transform="matrix(0.35277777,0,0,-0.35277777,70.870537,323.26933)">
          <path
             d="m 0,0 c 0,0.787 -0.624,1.423 -1.405,1.423 h -17.042 c -0.779,0 -1.411,-0.636 -1.411,-1.423 0,-0.004 0.004,-32.935 0.004,-32.935 H -46.418 V 0 c 0,0.787 -0.627,1.423 -1.407,1.423 h -17.041 c -0.775,0 -1.407,-0.636 -1.407,-1.423 v -89.178 c 0,-0.786 0.632,-1.426 1.407,-1.426 h 17.041 c 0.78,0 1.407,0.64 1.407,1.426 v 38.145 h 26.564 c 0,0 -0.046,-38.142 -0.046,-38.145 0,-0.786 0.631,-1.426 1.412,-1.426 h 17.082 c 0.78,0 1.404,0.64 1.406,1.426 z"
             style="fill:#0f0e0f;fill-opacity:1;fill-rule:nonzero;stroke:none"
             id="path56"
             inkscape:connector-curvature="0" />
        </g>
        <g
           id="g58"
           transform="matrix(0.35277777,0,0,-0.35277777,27.188112,327.3976)">
          <path
             d="m 0,0 c 0,6.136 -4.92,11.095 -10.99,11.095 -6.064,0 -10.987,-4.959 -10.987,-11.095 0,-6.13 4.923,-11.103 10.987,-11.103 C -4.92,-11.103 0,-6.13 0,0"
             style="fill:#0f0e0f;fill-opacity:1;fill-rule:nonzero;stroke:none"
             id="path60"
             inkscape:connector-curvature="0" />
        </g>
        <g
           id="g62"
           transform="matrix(0.35277777,0,0,-0.35277777,26.758182,348.09296)">
          <path
             d="m 0,0 v 41.165 c 0,0.781 -0.63,1.42 -1.41,1.42 h -16.988 c -0.78,0 -1.477,-0.803 -1.477,-1.585 v -58.977 c 0,-1.732 1.08,-2.248 2.478,-2.248 h 15.306 c 1.679,0 2.091,0.825 2.091,2.276 z"
             style="fill:#0f0e0f;fill-opacity:1;fill-rule:nonzero;stroke:none"
             id="path64"
             inkscape:connector-curvature="0" />
        </g>
        <g
           id="g66"
           transform="matrix(0.35277777,0,0,-0.35277777,93.719108,333.11715)">
          <path
             d="m 0,0 h -16.911 c -0.776,0 -1.407,-0.639 -1.407,-1.426 v -43.726 c 0,0 -4.297,-3.144 -10.395,-3.144 -6.098,0 -7.716,2.767 -7.716,8.738 v 38.132 c 0,0.787 -0.63,1.426 -1.406,1.426 h -17.164 c -0.774,0 -1.409,-0.639 -1.409,-1.426 v -41.019 c 0,-17.735 9.884,-22.074 23.481,-22.074 11.156,0 20.15,6.163 20.15,6.163 0,0 0.427,-3.248 0.622,-3.633 0.193,-0.384 0.698,-0.772 1.244,-0.772 l 10.919,0.048 c 0.774,0 1.409,0.64 1.409,1.424 L 1.411,-1.426 C 1.411,-0.639 0.779,0 0,0"
             style="fill:#0f0e0f;fill-opacity:1;fill-rule:nonzero;stroke:none"
             id="path68"
             inkscape:connector-curvature="0" />
        </g>
        <g
           id="g70"
           transform="matrix(0.35277777,0,0,-0.35277777,107.6721,350.13575)">
          <path
             d="m 0,0 c -5.866,0.179 -9.845,2.84 -9.845,2.84 v 28.241 c 0,0 3.925,2.406 8.741,2.836 6.09,0.545 11.958,-1.294 11.958,-15.822 C 10.854,2.776 8.206,-0.248 0,0 m 6.67,50.245 c -9.605,0 -16.138,-4.286 -16.138,-4.286 v 30.198 c 0,0.787 -0.63,1.423 -1.406,1.423 h -17.091 c -0.777,0 -1.408,-0.636 -1.408,-1.423 v -89.178 c 0,-0.787 0.631,-1.427 1.41,-1.427 h 11.858 c 0.534,0 0.938,0.276 1.237,0.758 0.295,0.479 0.72,4.111 0.72,4.111 0,0 6.988,-6.622 20.217,-6.622 15.532,0 24.439,7.878 24.439,35.366 0,27.488 -14.226,31.08 -23.838,31.08"
             style="fill:#0f0e0f;fill-opacity:1;fill-rule:nonzero;stroke:none"
             id="path72"
             inkscape:connector-curvature="0" />
        </g>
        <g
           id="g74"
           transform="matrix(0.35277777,0,0,-0.35277777,44.037237,333.06702)">
          <path
             d="m 0,0 h -12.784 c 0,0 -0.019,16.885 -0.019,16.889 0,0.639 -0.329,0.959 -1.069,0.959 h -17.42 c -0.677,0 -1.041,-0.299 -1.041,-0.95 V -0.554 c 0,0 -8.73,-2.107 -9.32,-2.278 -0.588,-0.17 -1.021,-0.712 -1.021,-1.359 v -10.967 c 0,-0.788 0.63,-1.425 1.409,-1.425 h 8.932 v -26.384 c 0,-19.596 13.746,-21.521 23.021,-21.521 4.239,0 9.309,1.361 10.146,1.67 0.506,0.186 0.801,0.71 0.801,1.278 l 0.014,12.065 c 0,0.787 -0.665,1.424 -1.413,1.424 -0.745,0 -2.651,-0.303 -4.613,-0.303 -6.279,0 -8.407,2.919 -8.407,6.698 0,3.777 -10e-4,25.073 -10e-4,25.073 H 0 c 0.779,0 1.411,0.637 1.411,1.425 V -1.421 C 1.411,-0.634 0.779,0 0,0"
             style="fill:#0f0e0f;fill-opacity:1;fill-rule:nonzero;stroke:none"
             id="path76"
             inkscape:connector-curvature="0" />
        </g>
      </g>
      <g
         transform="matrix(0.11638441,0.02172042,-0.02337551,0.11764405,3.1789115,210.33646)"
         id="g941">
        <g
           id="g836"
           style="fill:#ffffff;fill-opacity:1"
           transform="translate(14.2875,-2.2489584)">
          <path
             style="color:#000000;font-style:normal;font-variant:normal;font-weight:normal;font-stretch:normal;font-size:medium;line-height:normal;font-family:sans-serif;font-variant-ligatures:normal;font-variant-position:normal;font-variant-caps:normal;font-variant-numeric:normal;font-variant-alternates:normal;font-feature-settings:normal;text-indent:0;text-align:start;text-decoration:none;text-decoration-line:none;text-decoration-style:solid;text-decoration-color:#000000;letter-spacing:normal;word-spacing:normal;text-transform:none;writing-mode:lr-tb;direction:ltr;text-orientation:mixed;dominant-baseline:auto;baseline-shift:baseline;text-anchor:start;white-space:normal;shape-padding:0;clip-rule:nonzero;display:inline;overflow:visible;visibility:visible;opacity:1;isolation:auto;mix-blend-mode:normal;color-interpolation:sRGB;color-interpolation-filters:linearRGB;solid-color:#000000;solid-opacity:1;vector-effect:none;fill:#010000;fill-opacity:1;fill-rule:nonzero;stroke:none;stroke-width:0.26471084;stroke-linecap:round;stroke-linejoin:miter;stroke-miterlimit:4;stroke-dasharray:none;stroke-dashoffset:0;stroke-opacity:1;color-rendering:auto;image-rendering:auto;shape-rendering:auto;text-rendering:auto;enable-background:accumulate"
             d="m 77.8125,110.30273 c -5.521282,0 -10.000003,4.47872 -10,10 2e-6,5.52128 4.478722,10 10,10 5.521278,0 9.999998,-4.47872 10,-10 3e-6,-5.52128 -4.478718,-10 -10,-10 z m 0,0.26563 c 5.378221,0 9.736331,4.35615 9.736328,9.73437 -2e-6,5.37822 -4.35811,9.73438 -9.736328,9.73438 -5.378218,0 -9.734373,-4.35616 -9.734375,-9.73438 -3e-6,-5.37822 4.356154,-9.73437 9.734375,-9.73437 z"
             id="path819"
             inkscape:connector-curvature="0" />
          <path
             style="color:#000000;font-style:normal;font-variant:normal;font-weight:normal;font-stretch:normal;font-size:medium;line-height:normal;font-family:sans-serif;font-variant-ligatures:normal;font-variant-position:normal;font-variant-caps:normal;font-variant-numeric:normal;font-variant-alternates:normal;font-feature-settings:normal;text-indent:0;text-align:start;text-decoration:none;text-decoration-line:none;text-decoration-style:solid;text-decoration-color:#000000;letter-spacing:normal;word-spacing:normal;text-transform:none;writing-mode:lr-tb;direction:ltr;text-orientation:mixed;dominant-baseline:auto;baseline-shift:baseline;text-anchor:start;white-space:normal;shape-padding:0;clip-rule:nonzero;display:inline;overflow:visible;visibility:visible;opacity:1;isolation:auto;mix-blend-mode:normal;color-interpolation:sRGB;color-interpolation-filters:linearRGB;solid-color:#000000;solid-opacity:1;vector-effect:none;fill:#010000;fill-opacity:1;fill-rule:nonzero;stroke:none;stroke-width:0.26458332px;stroke-linecap:butt;stroke-linejoin:miter;stroke-miterlimit:4;stroke-dasharray:none;stroke-dashoffset:0;stroke-opacity:1;color-rendering:auto;image-rendering:auto;shape-rendering:auto;text-rendering:auto;enable-background:accumulate"
             d="m 98.994141,105.48242 -0.126953,0.0215 c 0,0 -4.684585,0.82689 -11.900391,4.54101 -3.018059,1.55346 -6.482268,3.61262 -10.234375,6.32813 -6.357026,4.60076 -11.352017,8.89788 -14.681641,11.98437 -1.664811,1.54325 -2.912538,2.78463 -3.707031,3.60938 -0.397247,0.41237 -0.68066,0.72001 -0.847656,0.91211 -0.0835,0.096 -0.136213,0.15936 -0.167969,0.20703 -0.0079,0.0119 -0.01466,0.0214 -0.02344,0.043 -0.0022,0.005 -0.0036,0.0105 -0.0059,0.0195 -0.0023,0.009 -0.0039,0.0385 -0.0039,0.0391 2.1e-5,6.1e-4 0.02318,0.0738 0.02344,0.0742 2.59e-4,3.6e-4 0.07958,0.0526 0.08008,0.0527 3.59e-4,8e-5 0.02493,-2.3e-4 0.04102,0 l 8.837891,6.96289 34.896484,-23.62304 z m -0.207032,0.31641 2.093751,10.73437 -34.591798,23.41602 -8.65625,-6.82031 c 0.02337,-0.0285 0.02817,-0.0367 0.0625,-0.0762 0.161577,-0.18586 0.444656,-0.4921 0.839844,-0.90234 0.790377,-0.82047 2.033979,-2.05763 3.695313,-3.59766 3.322667,-3.08004 8.311244,-7.37136 14.658203,-11.96484 3.740932,-2.70742 7.192522,-4.75903 10.199219,-6.30664 7.04913,-3.62833 11.523512,-4.45063 11.699218,-4.48242 z"
             id="path817"
             inkscape:connector-curvature="0" />
          <path
             style="color:#000000;font-style:normal;font-variant:normal;font-weight:normal;font-stretch:normal;font-size:medium;line-height:normal;font-family:sans-serif;font-variant-ligatures:normal;font-variant-position:normal;font-variant-caps:normal;font-variant-numeric:normal;font-variant-alternates:normal;font-feature-settings:normal;text-indent:0;text-align:start;text-decoration:none;text-decoration-line:none;text-decoration-style:solid;text-decoration-color:#000000;letter-spacing:normal;word-spacing:normal;text-transform:none;writing-mode:lr-tb;direction:ltr;text-orientation:mixed;dominant-baseline:auto;baseline-shift:baseline;text-anchor:start;white-space:normal;shape-padding:0;clip-rule:nonzero;display:inline;overflow:visible;visibility:visible;opacity:1;isolation:auto;mix-blend-mode:normal;color-interpolation:sRGB;color-interpolation-filters:linearRGB;solid-color:#000000;solid-opacity:1;vector-effect:none;fill:#000000;fill-opacity:1;fill-rule:nonzero;stroke:#010000;stroke-width:0.58449972;stroke-linecap:butt;stroke-linejoin:miter;stroke-miterlimit:4;stroke-dasharray:none;stroke-dashoffset:0;stroke-opacity:1;color-rendering:auto;image-rendering:auto;shape-rendering:auto;text-rendering:auto;enable-background:accumulate"
             d="m 68.439453,117.51367 c 0,0 -2.321305,2.06886 -4.203125,4.6875 -1.883271,2.62067 -6.886719,10.89453 -6.886719,10.89453 l 0.226563,0.13672 c 0,0 5.016309,-8.29048 6.875,-10.87695 1.860142,-2.58848 4.164062,-4.64453 4.164062,-4.64453 z"
             id="path827"
             inkscape:connector-curvature="0" />
          <path
             style="color:#000000;font-style:normal;font-variant:normal;font-weight:normal;font-stretch:normal;font-size:medium;line-height:normal;font-family:sans-serif;font-variant-ligatures:normal;font-variant-position:normal;font-variant-caps:normal;font-variant-numeric:normal;font-variant-alternates:normal;font-feature-settings:normal;text-indent:0;text-align:start;text-decoration:none;text-decoration-line:none;text-decoration-style:solid;text-decoration-color:#000000;letter-spacing:normal;word-spacing:normal;text-transform:none;writing-mode:lr-tb;direction:ltr;text-orientation:mixed;dominant-baseline:auto;baseline-shift:baseline;text-anchor:start;white-space:normal;shape-padding:0;clip-rule:nonzero;display:inline;overflow:visible;visibility:visible;opacity:1;isolation:auto;mix-blend-mode:normal;color-interpolation:sRGB;color-interpolation-filters:linearRGB;solid-color:#000000;solid-opacity:1;vector-effect:none;fill:#000000;fill-opacity:1;fill-rule:nonzero;stroke:#010000;stroke-width:0.45915702;stroke-linecap:butt;stroke-linejoin:miter;stroke-miterlimit:4;stroke-dasharray:none;stroke-dashoffset:0;stroke-opacity:1;color-rendering:auto;image-rendering:auto;shape-rendering:auto;text-rendering:auto;enable-background:accumulate"
             d="m 98.873047,105.50391 c 0,0 -7.251152,0.89306 -10.621094,1.71679 -3.368355,0.82335 -9.453125,3.125 -9.453125,3.125 l 0.09375,0.2461 c 0,0 6.092794,-2.30149 9.421875,-3.11524 3.327494,-0.81336 10.591797,-1.71094 10.591797,-1.71094 z"
             id="path829"
             inkscape:connector-curvature="0" />
          <path
             style="fill:#ffffff;fill-opacity:1;stroke:#010000;stroke-width:2.81296253;stroke-linecap:round;stroke-linejoin:miter;stroke-miterlimit:4;stroke-dasharray:none;stroke-dashoffset:0;stroke-opacity:1"
             d="m 258.35023,462.98835 c -0.20075,-0.49312 -0.48413,-3.40963 -0.62974,-6.48113 -0.31054,-6.5509 0.56736,-11.30665 3.13333,-16.97375 2.10067,-4.63945 3.57315,-6.75996 7.36649,-10.60842 5.73896,-5.82235 13.34213,-9.52942 21.74591,-10.60264 4.55871,-0.58218 8.45974,-0.26913 13.62545,1.09339 3.75049,0.98924 10,3.74983 10,4.41728 0,0.19473 -1.96875,1.54709 -4.375,3.00526 -11.70078,7.09058 -38.20347,26.47772 -49.68822,36.34771 -0.70534,0.60617 -0.86165,0.57994 -1.17822,-0.1977 z"
             id="path861"
             inkscape:connector-curvature="0"
             transform="scale(0.26458333)" />
        </g>
        <g
           id="g868"
           transform="translate(15.478125,7.4083316)">
          <path
             sodipodi:nodetypes="cccczc"
             inkscape:connector-curvature="0"
             id="path865"
             d="m 56.442181,123.47162 8.735713,6.68613 34.512341,-23.28184 -2.00782,-11.029292 c 0,0 -12.96866,3.88909 -23.05486,11.601912 -10.086201,7.71281 -18.185374,16.02309 -18.185374,16.02309 z"
             style="fill:#ffffff;fill-opacity:1;stroke:#000000;stroke-width:0.71893466;stroke-linecap:butt;stroke-linejoin:miter;stroke-miterlimit:4;stroke-dasharray:none;stroke-opacity:1" />
        </g>
      </g>
      <g
         style="fill:#3a7fff;fill-opacity:1"
         transform="matrix(0.17605067,0,0,0.16050577,-4.1909445,204.96298)"
         id="g946">
        <path
           style="fill:#3a7fff;fill-opacity:1;stroke:#000000;stroke-width:0.54094672;stroke-linecap:butt;stroke-linejoin:miter;stroke-miterlimit:4;stroke-dasharray:none;stroke-opacity:1"
           d="m 90.504084,146.76654 c 0,0 1.683599,4.15971 -1.08476,9.04171 l -7.870607,5.08968 c 0,0 2.495874,-6.61834 4.123175,-8.96405 1.627303,-2.34572 4.832192,-5.16734 4.832192,-5.16734 z"
           id="path912"
           inkscape:connector-curvature="0"
           sodipodi:nodetypes="ccczc" />
        <path
           style="fill:#3a7fff;fill-opacity:1;stroke:#000000;stroke-width:0.54094672;stroke-linecap:butt;stroke-linejoin:miter;stroke-miterlimit:4;stroke-dasharray:none;stroke-opacity:1"
           d="m 92.620752,146.76654 c 0,0 -1.815966,4.10366 0.794616,9.07182 l 7.703562,5.33914 c 0,0 -2.282627,-6.69488 -3.833965,-9.09151 -1.551339,-2.39663 -4.664213,-5.31945 -4.664213,-5.31945 z"
           id="path912-0"
           inkscape:connector-curvature="0"
           sodipodi:nodetypes="ccczc" />
        <ellipse
           style="fill:#3a7fff;fill-opacity:1;stroke:#010000;stroke-width:0.51240313;stroke-linecap:round;stroke-linejoin:miter;stroke-miterlimit:4;stroke-dasharray:none;stroke-dashoffset:0;stroke-opacity:1"
           id="path910"
           cx="91.215103"
           cy="145.98906"
           rx="3.3734374"
           ry="3.5057292" />
      </g>
      <g
         id="flowRoot3726"
         style="font-style:normal;font-weight:normal;font-size:133.33332825px;line-height:1.25;font-family:sans-serif;letter-spacing:0px;word-spacing:0px;fill:#f9ffff;fill-opacity:1;stroke:none"
         transform="matrix(0.02638459,0,0,0.02557063,7.2486575,222.67236)"
         aria-label="firstmate">
        <path
           inkscape:connector-curvature="0"
           id="path3753"
           style="font-style:normal;font-variant:normal;font-weight:normal;font-stretch:normal;font-size:120px;font-family:'Kristen ITC';-inkscape-font-specification:'Kristen ITC';fill:#f9ffff;fill-opacity:1"
           d="m 390.95117,173.82958 q 0,2.05079 -1.58203,3.75 -1.58203,1.64063 -3.57422,1.64063 -0.46875,0 -6.38672,-2.69531 -5.91797,-2.69532 -12.24609,-2.69532 -9.90234,0 -13.88672,8.14454 -1.875,3.86718 -2.28516,11.60156 -0.23437,8.20312 -0.46875,16.40625 15.9375,1.28906 21.03516,2.57812 6.79688,1.75782 6.79688,5.80078 0,2.28516 -1.23047,3.8086 -1.17188,1.46484 -2.75391,1.46484 -0.9375,0 -8.08594,-1.23047 -8.32031,-1.40625 -15.8789,-1.99218 -0.87891,26.36718 -1.81641,32.51953 -1.58203,10.54687 -6.85547,10.54687 -5.625,0 -5.625,-6.5039 0,0 1.23047,-12.01172 1.28906,-12.48047 1.52344,-25.13672 -7.14844,-0.11719 -9.4336,-0.9961 -2.92968,-1.11328 -2.92968,-4.6875 0,-5.03906 5.39062,-5.03906 h 0.23438 l 6.85547,0.23438 q 0.23437,-7.79297 0.41015,-15.52735 0.35156,-7.32422 1.52344,-11.07422 6.09375,-19.6875 25.66406,-19.6875 10.83985,0 17.92969,3.45704 6.44531,3.16406 6.44531,7.32421 z" />
        <path
           inkscape:connector-curvature="0"
           id="path3755"
           style="font-style:normal;font-variant:normal;font-weight:normal;font-stretch:normal;font-size:120px;font-family:'Kristen ITC';-inkscape-font-specification:'Kristen ITC';fill:#f9ffff;fill-opacity:1"
           d="m 409.93555,162.16943 q 0,8.32031 -8.14453,8.32031 -3.28125,0 -5.56641,-2.28516 -2.22656,-2.28515 -2.22656,-5.50781 0,-3.51562 2.46093,-5.97656 2.46094,-2.46094 6.03516,-2.46094 3.33984,0 5.39063,2.16797 2.05078,2.16797 2.05078,5.74219 z m -2.51953,22.32422 q 0,35.33203 -2.51954,52.20703 -0.99609,6.79687 -2.22656,9.14062 -1.58203,3.10547 -5.09765,3.10547 -2.34375,0 -3.98438,-1.52344 -1.64062,-1.58203 -1.64062,-3.75 0,0.29297 0.9375,-4.04296 1.11328,-4.92188 1.8164,-11.19141 0.9375,-8.90625 0.9375,-19.92188 0,-4.80468 -0.11719,-10.13671 -0.11718,-5.33204 -0.11718,-5.80079 0,-7.91015 1.34765,-11.01562 1.40625,-3.39844 5.27344,-3.39844 5.39063,0 5.39063,6.32813 z" />
        <path
           inkscape:connector-curvature="0"
           id="path3757"
           style="font-style:normal;font-variant:normal;font-weight:normal;font-stretch:normal;font-size:120px;font-family:'Kristen ITC';-inkscape-font-specification:'Kristen ITC';fill:#f9ffff;fill-opacity:1"
           d="m 469.99414,192.57958 q 0,2.22657 -1.34766,3.75 -1.34765,1.52344 -3.22265,1.52344 -1.40625,0 -4.16016,-2.05078 -2.7539,-2.05078 -4.98047,-2.05078 -5.5664,0 -9.02343,4.92187 -3.45704,4.86329 -3.45704,13.1836 v 7.67578 q 0,12.83203 -2.69531,20.39062 -2.51953,7.08985 -6.5039,7.08985 -5.33204,0 -5.33204,-5.27344 0,-1.05469 1.64063,-7.73437 1.64062,-6.73829 1.64062,-12.65625 0,-16.40625 -4.6875,-26.25 -0.11718,-0.29297 -3.22265,-5.91797 -1.58203,-2.8711 -1.58203,-4.57032 0,-1.875 1.8164,-3.51562 1.81641,-1.64063 3.92578,-1.64063 6.21094,0 10.3125,15.23438 6.09375,-11.71875 17.75391,-11.71875 5.85938,0 9.49219,2.75391 3.63281,2.69531 3.63281,6.85546 z" />
        <path
           inkscape:connector-curvature="0"
           id="path3759"
           style="font-style:normal;font-variant:normal;font-weight:normal;font-stretch:normal;font-size:120px;font-family:'Kristen ITC';-inkscape-font-specification:'Kristen ITC';fill:#f9ffff;fill-opacity:1"
           d="m 523.90039,187.54052 q 0,5.85938 -5.91797,5.85938 -2.05078,0 -3.22265,-1.46485 -0.82032,-1.34765 -1.69922,-2.7539 -3.63282,-4.6875 -9.66797,-4.6875 -10.3711,0 -10.3711,11.77734 0,4.10156 1.875,7.03125 1.58204,2.51953 5.6836,5.68359 9.25781,7.08985 11.54297,9.78516 4.80468,5.50781 4.80468,12.65625 0,9.375 -6.09375,15.29297 -6.09375,5.85937 -15.8789,5.85937 -9.31641,0 -15.29297,-4.86328 -5.80078,-4.6875 -5.80078,-11.83593 0,-7.20704 6.21094,-7.20704 5.21484,0 5.39062,8.02735 4.21875,5.03906 9.49219,5.03906 4.39453,0 7.14844,-2.63672 2.8125,-2.69531 2.8125,-6.67969 0,-3.63281 -3.39844,-6.85546 -0.0586,-0.11719 -8.61328,-6.85547 -11.83594,-9.375 -11.83594,-21.97266 0,-10.25391 6.26953,-16.58203 6.32813,-6.32813 16.52344,-6.32813 8.3789,0 14.35547,4.39454 5.68359,4.16015 5.68359,9.3164 z" />
        <path
           inkscape:connector-curvature="0"
           id="path3761"
           style="font-style:normal;font-variant:normal;font-weight:normal;font-stretch:normal;font-size:120px;font-family:'Kristen ITC';-inkscape-font-specification:'Kristen ITC';fill:#f9ffff;fill-opacity:1"
           d="m 582.08398,196.38818 q 0,2.05078 -1.28906,3.51562 -1.28906,1.40625 -3.04687,1.40625 -0.87891,0 -6.73828,-2.28515 -5.80079,-2.28516 -11.36719,-2.28516 -1.75781,0 -3.69141,0.23438 -2.16797,9.55078 -2.16797,17.51953 0,10.2539 3.45703,15.76172 3.45704,5.50781 9.60938,5.50781 1.875,0 4.92187,-1.17188 3.10547,-1.23047 4.45313,-1.23047 4.6875,0 4.6875,5.50782 0,3.57422 -3.86719,5.80078 -3.86719,2.22656 -10.54687,2.22656 -24.84375,0 -24.84375,-33.10547 0,-6.97265 1.69922,-15.35156 -1.64063,0.23437 -7.08985,1.34766 -3.57422,0.70312 -5.27344,0.70312 -6.26953,0 -6.26953,-4.80469 0,-6.5625 21.6211,-8.55468 4.45312,-14.1211 10.89843,-14.1211 1.99219,0 3.39844,1.46485 1.40625,1.40625 1.40625,3.45703 0,1.52343 -0.8789,3.86718 -0.87891,2.28516 -1.75782,4.62891 22.67578,0.76172 22.67578,9.96094 z" />
        <path
           inkscape:connector-curvature="0"
           id="path3763"
           style="font-style:normal;font-variant:normal;font-weight:normal;font-stretch:normal;font-size:120px;font-family:'Kristen ITC';-inkscape-font-specification:'Kristen ITC';fill:#f9ffff;fill-opacity:1"
           d="m 673.02148,210.2163 q 0,44.88282 -10.66406,44.88282 -4.10156,0 -4.10156,-5.15625 0,-0.0586 1.99219,-13.35938 1.99218,-13.35937 1.99218,-26.60156 0,-22.08985 -10.42968,-22.08985 -9.14063,0 -12.01172,11.13282 -2.16797,8.55468 -2.16797,33.63281 0,3.86719 0.58594,8.55469 0.58593,4.6289 0.58593,5.44922 0,5.80078 -5.50781,5.80078 -6.62109,0 -6.62109,-21.15235 0,-8.90625 0.64453,-18.57422 0.70312,-9.72656 0.70312,-10.42968 0,-8.67188 -9.14062,-8.67188 -8.55469,0 -12.42188,7.67578 -3.75,7.44141 -3.75,23.55469 0,10.37109 0.58594,19.33594 0.58594,8.90625 0.58594,7.5 0,2.22656 -1.64063,3.6914 -1.58203,1.46485 -4.10156,1.46485 -5.21484,0 -6.44531,-9.96094 -0.41016,-2.87109 -0.41016,-14.88281 0,-25.13672 4.10157,-47.98828 1.34765,-7.5 2.69531,-9.96094 1.58203,-2.98828 5.09765,-2.98828 5.50782,0 5.50782,5.85937 0,0 -2.63672,13.24219 5.03906,-7.08984 14.41406,-7.08984 7.5,0 11.77734,6.21093 7.44141,-12.24609 20.97657,-12.24609 19.80468,0 19.80468,33.16406 z" />
        <path
           inkscape:connector-curvature="0"
           id="path3765"
           style="font-style:normal;font-variant:normal;font-weight:normal;font-stretch:normal;font-size:120px;font-family:'Kristen ITC';-inkscape-font-specification:'Kristen ITC';fill:#f9ffff;fill-opacity:1"
           d="m 738.58789,215.48974 q 0,16.05469 -4.6875,33.57422 -2.34375,8.78906 -6.97266,8.78906 -4.74609,0 -4.74609,-5.39062 0,-1.23047 0.11719,-1.81641 -5.97656,3.22266 -12.36328,3.22266 -11.3086,0 -17.69532,-6.38672 -6.32812,-6.38672 -6.32812,-17.8711 0,-11.66015 6.85547,-18.45703 6.85547,-6.85547 18.22265,-6.85547 9.90235,0 16.69922,6.6211 -1.11328,-23.14453 -17.16797,-23.14453 -3.57421,0 -7.67578,2.16797 -4.04297,2.10937 -5.27343,2.10937 -1.99219,0 -3.57422,-1.64062 -1.58203,-1.64063 -1.58203,-3.75 0,-3.51563 5.09765,-6.50391 5.44922,-3.22266 13.00781,-3.22266 28.06641,0 28.06641,38.55469 z m -11.89453,13.76953 q 0,-14.88281 -14.00391,-14.88281 -15.35156,0 -15.35156,14.76562 0,14.88282 15.23438,14.88282 6.62109,0 10.37109,-3.86719 3.75,-3.92578 3.75,-10.89844 z" />
        <path
           inkscape:connector-curvature="0"
           id="path3767"
           style="font-style:normal;font-variant:normal;font-weight:normal;font-stretch:normal;font-size:120px;font-family:'Kristen ITC';-inkscape-font-specification:'Kristen ITC';fill:#f9ffff;fill-opacity:1"
           d="m 802.39648,196.38818 q 0,2.05078 -1.28906,3.51562 -1.28906,1.40625 -3.04687,1.40625 -0.87891,0 -6.73828,-2.28515 -5.80079,-2.28516 -11.36719,-2.28516 -1.75781,0 -3.69141,0.23438 -2.16797,9.55078 -2.16797,17.51953 0,10.2539 3.45703,15.76172 3.45704,5.50781 9.60938,5.50781 1.875,0 4.92187,-1.17188 3.10547,-1.23047 4.45313,-1.23047 4.6875,0 4.6875,5.50782 0,3.57422 -3.86719,5.80078 -3.86719,2.22656 -10.54687,2.22656 -24.84375,0 -24.84375,-33.10547 0,-6.97265 1.69922,-15.35156 -1.64063,0.23437 -7.08985,1.34766 -3.57422,0.70312 -5.27344,0.70312 -6.26953,0 -6.26953,-4.80469 0,-6.5625 21.6211,-8.55468 4.45312,-14.1211 10.89843,-14.1211 1.99219,0 3.39844,1.46485 1.40625,1.40625 1.40625,3.45703 0,1.52343 -0.8789,3.86718 -0.87891,2.28516 -1.75782,4.62891 22.67578,0.76172 22.67578,9.96094 z" />
        <path
           inkscape:connector-curvature="0"
           id="path3769"
           style="font-style:normal;font-variant:normal;font-weight:normal;font-stretch:normal;font-size:120px;font-family:'Kristen ITC';-inkscape-font-specification:'Kristen ITC';fill:#f9ffff;fill-opacity:1"
           d="m 867.78711,200.95849 q 0,6.09375 -4.21875,9.02344 -1.875,1.28906 -11.89453,3.33984 -13.30078,2.75391 -22.67578,2.75391 -4.27735,0 -10.3125,-0.58594 0,22.08984 16.8164,22.08984 4.62891,0 8.37891,-2.63671 1.875,-1.28907 6.73828,-6.26954 1.75781,-1.8164 3.69141,-1.8164 2.46093,0 4.21875,1.875 1.8164,1.8164 1.8164,4.51172 0,2.22656 -1.69922,4.10156 -10.07812,11.01562 -23.61328,11.01562 -28.00781,0 -28.00781,-32.40234 0,-16.69922 8.90625,-28.82812 10.13672,-13.76954 25.07813,-13.76954 11.66015,0 19.21875,7.79297 7.55859,7.79297 7.55859,19.80469 z m -11.66016,0.70313 q -0.35156,-8.14454 -4.27734,-12.89063 -3.86719,-4.74609 -9.72656,-4.74609 -7.61719,0 -13.41797,5.44922 -5.97656,5.50781 -8.90625,15.58593 4.16015,0.46875 8.84765,0.46875 11.36719,0 27.48047,-3.86718 z" />
      </g>
      <path
         inkscape:connector-curvature="0"
         id="path835"
         d="m 8.9437036,226.86302 c 0.15464,-0.18838 0.798757,-0.82102 0.924818,-0.90833 0.123856,-0.0858 0.127296,-0.0866 0.110306,-0.0258 -0.0096,0.0345 -0.02511,0.13904 -0.03437,0.23232 -0.01683,0.1695 -0.01691,0.16963 -0.14064,0.23704 -0.06809,0.0371 -0.301462,0.17863 -0.518604,0.31453 -0.217142,0.13589 -0.400694,0.24708 -0.407895,0.24708 -0.0072,0 0.02268,-0.0436 0.0664,-0.0968 z"
         style="fill:#ffffff;fill-opacity:1;stroke:none;stroke-width:0.09010685;stroke-linecap:round;stroke-linejoin:miter;stroke-miterlimit:4;stroke-dasharray:none;stroke-dashoffset:0;stroke-opacity:1" />
      <path
         inkscape:connector-curvature="0"
         id="path837"
         d="m 11.817146,225.22207 -0.155302,-0.10834 0.284895,-0.0441 c 0.457879,-0.0709 0.762368,-0.098 1.083663,-0.0966 l 0.300769,0.001 -0.506191,0.12563 c -0.278405,0.0691 -0.577003,0.14982 -0.663551,0.17939 -0.08655,0.0296 -0.164475,0.0532 -0.173171,0.0524 -0.0087,-7.6e-4 -0.0857,-0.0501 -0.171112,-0.10973 z"
         style="fill:#ffffff;fill-opacity:1;stroke:none;stroke-width:0.09010685;stroke-linecap:round;stroke-linejoin:miter;stroke-miterlimit:4;stroke-dasharray:none;stroke-dashoffset:0;stroke-opacity:1" />
      <rect
         y="245.82983"
         x="17.812517"
         height="2.5713043"
         width="2.9285383"
         id="rect8803"
         style="fill:#ffffff;fill-opacity:1;stroke:none;stroke-width:0.26654136;stroke-linecap:round;stroke-linejoin:miter;stroke-miterlimit:4;stroke-dasharray:none;stroke-dashoffset:0;stroke-opacity:1" />
    </g>
    <g
       transform="matrix(0.02635147,0,0,0.02486217,50.926419,234.16385)"
       id="orginal"
       style="clip-rule:nonzero;fill-rule:nonzero;stroke:#000000;stroke-miterlimit:4" />
    <g
       id="g9559">
      <rect
         ry="4.3467131"
         y="247.81363"
         x="44.008152"
         height="13.985119"
         width="26.080357"
         id="rect8146-4-8-2"
         style="fill:#ffffff;fill-opacity:1;stroke:#000000;stroke-width:0.35277778;stroke-linecap:round;stroke-linejoin:miter;stroke-miterlimit:4;stroke-dasharray:none;stroke-dashoffset:0;stroke-opacity:1" />
      <g
         style="clip-rule:nonzero;fill:none;fill-rule:nonzero;stroke:#ffffff;stroke-width:12.46510029;stroke-linecap:round;stroke-linejoin:round;stroke-miterlimit:4"
         id="Layer_x0020_3"
         transform="matrix(0.02635147,0,0,0.02486217,51.351739,249.27292)">
        <path
           inkscape:connector-curvature="0"
           id="path3"
           d="m 323.205,324.227 c 2.833,-23.601 1.984,-27.062 19.563,-23.239 l 4.463,0.392 c 13.517,0.615 31.199,-2.174 41.587,-7 22.362,-10.376 35.622,-27.7 13.572,-23.148 -50.297,10.376 -53.755,-6.655 -53.755,-6.655 C 401.746,185.774 423.948,85.741 404.784,61.255 352.514,-5.534 262.036,26.049 260.522,26.869 l -0.482,0.089 c -9.938,-2.062 -21.06,-3.294 -33.554,-3.496 -22.761,-0.374 -40.032,5.967 -53.133,15.904 0,0 -161.408,-66.498 -153.899,83.628 1.597,31.936 45.777,241.655 98.47,178.31 19.259,-23.163 37.871,-42.748 37.871,-42.748 9.242,6.14 20.307,9.272 31.912,8.147 l 0.897,-0.765 c -0.281,2.876 -0.157,5.689 0.359,9.019 -13.572,15.167 -9.584,17.83 -36.723,23.416 -27.457,5.659 -11.326,15.734 -0.797,18.367 12.768,3.193 42.305,7.716 62.268,-20.224 l -0.795,3.188 c 5.325,4.26 4.965,30.619 5.72,49.452 0.756,18.834 2.017,36.409 5.856,46.771 3.839,10.36 8.369,37.05 44.036,29.406 29.809,-6.388 52.6,-15.582 54.677,-101.107"
           style="fill:#000000;stroke:#000000;stroke-width:37.39530182;stroke-linecap:butt;stroke-linejoin:miter" />
        <path
           inkscape:connector-curvature="0"
           id="path5"
           d="m 402.395,271.23 c -50.302,10.376 -53.76,-6.655 -53.76,-6.655 53.111,-78.808 75.313,-178.843 56.153,-203.326 -52.27,-66.785 -142.752,-35.2 -144.262,-34.38 l -0.486,0.087 c -9.938,-2.063 -21.06,-3.292 -33.56,-3.496 -22.761,-0.373 -40.026,5.967 -53.127,15.902 0,0 -161.411,-66.495 -153.904,83.63 1.597,31.938 45.776,241.657 98.471,178.312 19.26,-23.163 37.869,-42.748 37.869,-42.748 9.243,6.14 20.308,9.272 31.908,8.147 l 0.901,-0.765 c -0.28,2.876 -0.152,5.689 0.361,9.019 -13.575,15.167 -9.586,17.83 -36.723,23.416 -27.459,5.659 -11.328,15.734 -0.796,18.367 12.768,3.193 42.307,7.716 62.266,-20.224 l -0.796,3.188 c 5.319,4.26 9.054,27.711 8.428,48.969 -0.626,21.259 -1.044,35.854 3.147,47.254 4.191,11.4 8.368,37.05 44.042,29.406 29.809,-6.388 45.256,-22.942 47.405,-50.555 1.525,-19.631 4.976,-16.729 5.194,-34.28 l 2.768,-8.309 c 3.192,-26.611 0.507,-35.196 18.872,-31.203 l 4.463,0.392 c 13.517,0.615 31.208,-2.174 41.591,-7 22.358,-10.376 35.618,-27.7 13.573,-23.148 z"
           style="fill:#336791;stroke:none" />
        <path
           inkscape:connector-curvature="0"
           id="path7"
           d="m 215.866,286.484 c -1.385,49.516 0.348,99.377 5.193,111.495 4.848,12.118 15.223,35.688 50.9,28.045 29.806,-6.39 40.651,-18.756 45.357,-46.051 3.466,-20.082 10.148,-75.854 11.005,-87.281" />
        <path
           inkscape:connector-curvature="0"
           id="path9"
           d="m 173.104,38.256 c 0,0 -161.521,-66.016 -154.012,84.109 1.597,31.938 45.779,241.664 98.473,178.316 19.256,-23.166 36.671,-41.335 36.671,-41.335" />
        <path
           inkscape:connector-curvature="0"
           id="path11"
           d="m 260.349,26.207 c -5.591,1.753 89.848,-34.889 144.087,34.417 19.159,24.484 -3.043,124.519 -56.153,203.329" />
        <path
           inkscape:connector-curvature="0"
           id="path13"
           d="m 348.282,263.953 c 0,0 3.461,17.036 53.764,6.653 22.04,-4.552 8.776,12.774 -13.577,23.155 -18.345,8.514 -59.474,10.696 -60.146,-1.069 -1.729,-30.355 21.647,-21.133 19.96,-28.739 -1.525,-6.85 -11.979,-13.573 -18.894,-30.338 -6.037,-14.633 -82.796,-126.849 21.287,-110.183 3.813,-0.789 -27.146,-99.002 -124.553,-100.599 -97.385,-1.597 -94.19,119.762 -94.19,119.762"
           style="stroke-linejoin:bevel" />
        <path
           inkscape:connector-curvature="0"
           id="path15"
           d="m 188.604,274.334 c -13.577,15.166 -9.584,17.829 -36.723,23.417 -27.459,5.66 -11.326,15.733 -0.797,18.365 12.768,3.195 42.307,7.718 62.266,-20.229 6.078,-8.509 -0.036,-22.086 -8.385,-25.547 -4.034,-1.671 -9.428,-3.765 -16.361,3.994 z" />
        <path
           inkscape:connector-curvature="0"
           id="path17"
           d="m 187.715,274.069 c -1.368,-8.917 2.93,-19.528 7.536,-31.942 6.922,-18.626 22.893,-37.255 10.117,-96.339 -9.523,-44.029 -73.396,-9.163 -73.436,-3.193 -0.039,5.968 2.889,30.26 -1.067,58.548 -5.162,36.913 23.488,68.132 56.479,64.938" />
        <path
           inkscape:connector-curvature="0"
           id="path19"
           d="m 172.517,141.7 c -0.288,2.039 3.733,7.48 8.976,8.207 5.234,0.73 9.714,-3.522 9.998,-5.559 0.284,-2.039 -3.732,-4.285 -8.977,-5.015 -5.237,-0.731 -9.719,0.333 -9.996,2.367 z"
           style="fill:#ffffff;stroke-width:4.15500021;stroke-linecap:butt;stroke-linejoin:miter" />
        <path
           inkscape:connector-curvature="0"
           id="path21"
           d="m 331.941,137.543 c 0.284,2.039 -3.732,7.48 -8.976,8.207 -5.238,0.73 -9.718,-3.522 -10.005,-5.559 -0.277,-2.039 3.74,-4.285 8.979,-5.015 5.239,-0.73 9.718,0.333 10.002,2.368 z"
           style="fill:#ffffff;stroke-width:2.0775001;stroke-linecap:butt;stroke-linejoin:miter" />
        <path
           inkscape:connector-curvature="0"
           id="path23"
           d="m 350.676,123.432 c 0.863,15.994 -3.445,26.888 -3.988,43.914 -0.804,24.748 11.799,53.074 -7.191,81.435" />
        <path
           inkscape:connector-curvature="0"
           id="path25"
           d="M 0,60.232"
           style="stroke-width:3" />
      </g>
    </g>
  </g>
</svg>
