<?xml version="1.0" encoding="UTF-8" standalone="no"?>
<!-- Created with Inkscape (http://www.inkscape.org/) -->

<svg
   xmlns:dc="http://purl.org/dc/elements/1.1/"
   xmlns:cc="http://creativecommons.org/ns#"
   xmlns:rdf="http://www.w3.org/1999/02/22-rdf-syntax-ns#"
   xmlns:svg="http://www.w3.org/2000/svg"
   xmlns="http://www.w3.org/2000/svg"
   xmlns:sodipodi="http://sodipodi.sourceforge.net/DTD/sodipodi-0.dtd"
   xmlns:inkscape="http://www.inkscape.org/namespaces/inkscape"
   width="300"
   height="300"
   version="1.1"
   viewBox="0 0 79.375 79.375"
   id="svg38"
   sodipodi:docname="logo.svg"
   inkscape:version="0.92.2 (5c3e80d, 2017-08-06)">
  <defs
     id="defs42" />
  <sodipodi:namedview
     pagecolor="#ffffff"
     bordercolor="#666666"
     borderopacity="1"
     objecttolerance="10"
     gridtolerance="10"
     guidetolerance="10"
     inkscape:pageopacity="0"
     inkscape:pageshadow="2"
     inkscape:window-width="1920"
     inkscape:window-height="1017"
     id="namedview40"
     showgrid="false"
     inkscape:pagecheckerboard="true"
     inkscape:zoom="0.78666667"
     inkscape:cx="-230.72034"
     inkscape:cy="150"
     inkscape:window-x="-8"
     inkscape:window-y="-8"
     inkscape:window-maximized="1"
     inkscape:current-layer="svg38" />
  <metadata
     id="metadata2">
    <rdf:RDF>
      <cc:Work
         rdf:about="">
        <dc:format>image/svg+xml</dc:format>
        <dc:type
           rdf:resource="http://purl.org/dc/dcmitype/StillImage" />
        <dc:title />
      </cc:Work>
    </rdf:RDF>
  </metadata>
  <g
     transform="translate(0 -217.62)"
     id="g36">
    <g
       transform="translate(-11.955 30.725)"
       id="g34">
      <rect
         x="12.227"
         y="187.17"
         width="78.831"
         height="78.831"
         ry="7.3742"
         fill="none"
         stroke="#000"
         stroke-linecap="round"
         stroke-width=".54393"
         id="rect4" />
      <g
         transform="matrix(1.1671 .22474 -.23441 1.2173 -34.374 45.32)"
         id="g24">
        <g
           transform="translate(14.288 -2.249)"
           fill="#fff"
           id="g18">
          <g
             shape-rendering="auto"
             id="g14">
            <path
               d="m77.812 110.3c-5.5213 0-10 4.4787-10 10 2e-6 5.5213 4.4787 10 10 10s10-4.4787 10-10c3e-6 -5.5213-4.4787-10-10-10zm0 0.26563c5.3782 0 9.7363 4.3562 9.7363 9.7344-2e-6 5.3782-4.3581 9.7344-9.7363 9.7344s-9.7344-4.3562-9.7344-9.7344c-3e-6 -5.3782 4.3562-9.7344 9.7344-9.7344z"
               color="#000000"
               color-rendering="auto"
               dominant-baseline="auto"
               fill="#010000"
               image-rendering="auto"
               solid-color="#000000"
               style="font-feature-settings:normal;font-variant-alternates:normal;font-variant-caps:normal;font-variant-ligatures:normal;font-variant-numeric:normal;font-variant-position:normal;isolation:auto;mix-blend-mode:normal;shape-padding:0;text-decoration-color:#000000;text-decoration-line:none;text-decoration-style:solid;text-indent:0;text-orientation:mixed;text-transform:none;white-space:normal"
               id="path6" />
            <path
               d="m98.994 105.48-0.12695 0.0215s-4.6846 0.82689-11.9 4.541c-3.0181 1.5535-6.4823 3.6126-10.234 6.3281-6.357 4.6008-11.352 8.8979-14.682 11.984-1.6648 1.5432-2.9125 2.7846-3.707 3.6094-0.39725 0.41237-0.68066 0.72001-0.84766 0.91211-0.0835 0.096-0.13621 0.15936-0.16797 0.20703-0.0079 0.0119-0.01466 0.0214-0.02344 0.043-0.0022 5e-3 -0.0036 0.0105-0.0059 0.0195s-0.0039 0.0385-0.0039 0.0391c2.1e-5 6.1e-4 0.02318 0.0738 0.02344 0.0742 2.59e-4 3.6e-4 0.07958 0.0526 0.08008 0.0527 3.59e-4 8e-5 0.02493-2.3e-4 0.04102 0l8.8379 6.9629 34.896-23.623zm-0.20703 0.31641 2.0938 10.734-34.592 23.416-8.6562-6.8203c0.02337-0.0285 0.02817-0.0367 0.0625-0.0762 0.16158-0.18586 0.44466-0.4921 0.83984-0.90234 0.79038-0.82047 2.034-2.0576 3.6953-3.5977 3.3227-3.08 8.3112-7.3714 14.658-11.965 3.7409-2.7074 7.1925-4.759 10.199-6.3066 7.0491-3.6283 11.524-4.4506 11.699-4.4824z"
               color="#000000"
               color-rendering="auto"
               dominant-baseline="auto"
               fill="#010000"
               image-rendering="auto"
               solid-color="#000000"
               style="font-feature-settings:normal;font-variant-alternates:normal;font-variant-caps:normal;font-variant-ligatures:normal;font-variant-numeric:normal;font-variant-position:normal;isolation:auto;mix-blend-mode:normal;shape-padding:0;text-decoration-color:#000000;text-decoration-line:none;text-decoration-style:solid;text-indent:0;text-orientation:mixed;text-transform:none;white-space:normal"
               id="path8" />
            <path
               d="m68.439 117.51s-2.3213 2.0689-4.2031 4.6875c-1.8833 2.6207-6.8867 10.895-6.8867 10.895l0.22656 0.13672s5.0163-8.2905 6.875-10.877c1.8601-2.5885 4.1641-4.6445 4.1641-4.6445z"
               color="#000000"
               color-rendering="auto"
               dominant-baseline="auto"
               fill="#000"
               image-rendering="auto"
               solid-color="#000000"
               stroke="#010000"
               stroke-width=".5845"
               style="font-feature-settings:normal;font-variant-alternates:normal;font-variant-caps:normal;font-variant-ligatures:normal;font-variant-numeric:normal;font-variant-position:normal;isolation:auto;mix-blend-mode:normal;shape-padding:0;text-decoration-color:#000000;text-decoration-line:none;text-decoration-style:solid;text-indent:0;text-orientation:mixed;text-transform:none;white-space:normal"
               id="path10" />
            <path
               d="m98.873 105.5s-7.2512 0.89306-10.621 1.7168c-3.3684 0.82335-9.4531 3.125-9.4531 3.125l0.09375 0.2461s6.0928-2.3015 9.4219-3.1152c3.3275-0.81336 10.592-1.7109 10.592-1.7109z"
               color="#000000"
               color-rendering="auto"
               dominant-baseline="auto"
               fill="#000"
               image-rendering="auto"
               solid-color="#000000"
               stroke="#010000"
               stroke-width=".45916"
               style="font-feature-settings:normal;font-variant-alternates:normal;font-variant-caps:normal;font-variant-ligatures:normal;font-variant-numeric:normal;font-variant-position:normal;isolation:auto;mix-blend-mode:normal;shape-padding:0;text-decoration-color:#000000;text-decoration-line:none;text-decoration-style:solid;text-indent:0;text-orientation:mixed;text-transform:none;white-space:normal"
               id="path12" />
          </g>
          <path
             transform="scale(.26458)"
             d="m258.35 462.99c-0.20075-0.49312-0.48413-3.4096-0.62974-6.4811-0.31054-6.5509 0.56736-11.307 3.1333-16.974 2.1007-4.6394 3.5732-6.76 7.3665-10.608 5.739-5.8224 13.342-9.5294 21.746-10.603 4.5587-0.58218 8.4597-0.26913 13.625 1.0934 3.7505 0.98924 10 3.7498 10 4.4173 0 0.19473-1.9688 1.5471-4.375 3.0053-11.701 7.0906-38.203 26.478-49.688 36.348-0.70534 0.60617-0.86165 0.57994-1.1782-0.1977z"
             fill="#fff"
             stroke="#010000"
             stroke-linecap="round"
             stroke-width="2.813"
             id="path16" />
        </g>
        <g
           transform="translate(15.478 7.4083)"
           id="g22">
          <path
             d="m56.442 123.47 8.7357 6.6861 34.512-23.282-2.0078-11.029s-12.969 3.8891-23.055 11.602c-10.086 7.7128-18.185 16.023-18.185 16.023z"
             fill="#fff"
             stroke="#000"
             stroke-width=".71893"
             id="path20" />
        </g>
      </g>
      <g
         transform="matrix(1.7654 0 0 1.6608 -108.28 -10.28)"
         fill="#3a7fff"
         id="g32">
        <path
           d="m90.504 146.77s1.6836 4.1597-1.0848 9.0417l-7.8706 5.0897s2.4959-6.6183 4.1232-8.964c1.6273-2.3457 4.8322-5.1673 4.8322-5.1673z"
           stroke="#000"
           stroke-width=".54095"
           id="path26" />
        <path
           d="m92.621 146.77s-1.816 4.1037 0.79462 9.0718l7.7036 5.3391s-2.2826-6.6949-3.834-9.0915c-1.5513-2.3966-4.6642-5.3194-4.6642-5.3194z"
           stroke="#000"
           stroke-width=".54095"
           id="path28" />
        <ellipse
           cx="91.215"
           cy="145.99"
           rx="3.3734"
           ry="3.5057"
           stroke="#010000"
           stroke-linecap="round"
           stroke-width=".5124"
           id="ellipse30" />
      </g>
    </g>
  </g>
  <path
     style="fill:#ffffff;fill-opacity:1;stroke:none;stroke-width:4.36727619;stroke-linecap:round;stroke-linejoin:miter;stroke-miterlimit:4;stroke-dasharray:none;stroke-dashoffset:0;stroke-opacity:1"
     d="M 51.013027,102.94874 C 63.117366,89.762242 80.352033,73.220339 81.986433,73.220339 c 0.554696,0 0.510394,2.145127 -0.09845,4.766949 -0.608845,2.621822 -1.12122,6.483051 -1.13861,8.580509 -0.02682,3.234343 -0.986425,4.349823 -6.318063,7.344316 -3.457545,1.941917 -12.33807,7.519247 -19.734502,12.394067 -7.39643,4.87482 -13.775109,8.86331 -14.17484,8.86331 -0.399731,0 4.321247,-5.49934 10.491062,-12.22075 z"
     id="path849"
     inkscape:connector-curvature="0"
     transform="scale(0.26458333)" />
  <path
     style="fill:#ffffff;fill-opacity:1;stroke:none;stroke-width:4.36727619;stroke-linecap:round;stroke-linejoin:miter;stroke-miterlimit:4;stroke-dasharray:none;stroke-dashoffset:0;stroke-opacity:1"
     d="m 152.50491,46.94779 c -3.44929,-2.329759 -5.996,-4.23856 -5.65936,-4.24178 0.33664,-0.0032 8.33453,-1.144653 17.77309,-2.536518 9.43856,-1.391866 22.88136,-2.494197 29.87289,-2.449625 l 12.71186,0.08104 -16.52542,4.231346 c -9.08899,2.327241 -19.98507,5.338373 -24.21353,6.691405 l -7.6881,2.460059 z"
     id="path851"
     inkscape:connector-curvature="0"
     transform="scale(0.26458333)" />
  <path
     style="fill:#ffffff;fill-opacity:1;stroke:none;stroke-width:4.36727619;stroke-linecap:round;stroke-linejoin:miter;stroke-miterlimit:4;stroke-dasharray:none;stroke-dashoffset:0;stroke-opacity:1"
     d="m 16.646268,294.06807 c -2.730146,-1.56159 -6.7343839,-5.03734 -8.8983056,-7.72389 L 3.8135593,281.45953 3.4356372,152.8696 C 3.1795523,65.735457 3.4880365,22.794015 4.3925104,19.671399 6.3886564,12.779883 15.278509,5.1906676 23.393579,3.4502967 c 9.268134,-1.9876589 243.944711,-1.9876589 253.212841,0 8.11508,1.7403709 17.00493,9.3295863 19.00107,16.2211023 0.90448,3.122616 1.21295,46.064058 0.95687,133.198201 l -0.37792,128.58993 -3.9344,4.88465 c -2.16393,2.68655 -6.16816,6.1623 -8.8983,7.72389 l -4.96391,2.83926 H 150 21.610169 Z m 202.691922,-36.2079 c -13.91161,-35.66467 -20.19977,-47.47056 -33.19199,-62.31732 -9.98823,-11.41399 -10.27131,-11.91365 -8.92987,-15.76172 3.36884,-9.66387 0.85387,-19.51743 -6.66691,-26.12076 -15.99424,-14.04312 -40.71116,-3.45398 -40.71116,17.44132 0,3.14619 1.02179,7.85583 2.27064,10.46589 l 2.27063,4.74554 -10.11593,10.81215 c -7.96514,8.51333 -11.75895,13.99091 -17.84356,25.76293 -8.320768,16.09836 -21.003566,44.85879 -20.155739,45.7066 0.984996,0.98501 57.035429,-33.78392 59.012189,-36.60614 3.21335,-4.58771 9.13562,-22.96535 9.17512,-28.47171 0.0201,-2.79661 0.59098,-5.9428 1.26873,-6.99153 0.92647,-1.4336 1.24256,-0.80271 1.27379,2.54238 0.0627,6.71081 3.26106,20.49621 6.50495,28.03683 2.82237,6.56075 3.48608,7.10499 30.28648,24.83424 15.07049,9.96957 28.07279,18.16899 28.89402,18.22093 0.89431,0.0566 -0.44572,-4.87613 -3.34139,-12.29963 z M 147.0238,129.0271 l 85.93223,-38.645745 0.77789,-6.355932 c 0.42783,-3.495763 0.78286,-16.223517 0.78893,-28.283898 l 0.011,-21.927966 -18.11441,-0.282089 c -27.3388,-0.425737 -37.86014,0.161442 -59.42796,3.316576 -11.34911,1.660247 -23.10959,2.65621 -27.73682,2.348953 -14.48633,-0.961921 -30.805895,6.958183 -38.814119,18.837019 -2.208141,3.275403 -8.738123,9.502148 -14.577394,13.900459 -6.960888,5.243145 -17.392179,15.562376 -30.508475,30.180733 -10.962046,12.21741 -20.391383,23.01807 -20.95408,24.00148 -1.36698,2.38902 31.936148,42.64541 34.746833,42.00153 1.069247,-0.24496 40.613589,-17.83595 87.876325,-39.09112 z"
     id="path830"
     inkscape:connector-curvature="0"
     transform="scale(0.26458333)" />
</svg>
