<?xml version="1.0" encoding="UTF-8" standalone="no"?>
<!-- Created with Inkscape (http://www.inkscape.org/) -->

<svg
   xmlns:dc="http://purl.org/dc/elements/1.1/"
   xmlns:cc="http://creativecommons.org/ns#"
   xmlns:rdf="http://www.w3.org/1999/02/22-rdf-syntax-ns#"
   xmlns:svg="http://www.w3.org/2000/svg"
   xmlns="http://www.w3.org/2000/svg"
   xmlns:sodipodi="http://sodipodi.sourceforge.net/DTD/sodipodi-0.dtd"
   xmlns:inkscape="http://www.inkscape.org/namespaces/inkscape"
   width="900"
   height="300"
   viewBox="0 0 238.125 79.375002"
   version="1.1"
   id="svg8"
   inkscape:version="0.92.2 (5c3e80d, 2017-08-06)"
   sodipodi:docname="logo-name-noborder.svg"
   inkscape:export-filename="C:\Users\Duncan\Remote\firstmate-bp-website-basic\node-react-next-jest\frontend\public\images\logo-name-1200px.png"
   inkscape:export-xdpi="128"
   inkscape:export-ydpi="128">
  <defs
     id="defs2" />
  <sodipodi:namedview
     id="base"
     pagecolor="#ffffff"
     bordercolor="#666666"
     borderopacity="1.0"
     inkscape:pageopacity="0.0"
     inkscape:pageshadow="2"
     inkscape:zoom="0.9903517"
     inkscape:cx="411.48705"
     inkscape:cy="68.484501"
     inkscape:document-units="mm"
     inkscape:current-layer="layer1"
     showgrid="false"
     inkscape:window-width="1920"
     inkscape:window-height="1017"
     inkscape:window-x="-8"
     inkscape:window-y="-8"
     inkscape:window-maximized="1"
     units="px"
     inkscape:pagecheckerboard="true" />
  <metadata
     id="metadata5">
    <rdf:RDF>
      <cc:Work
         rdf:about="">
        <dc:format>image/svg+xml</dc:format>
        <dc:type
           rdf:resource="http://purl.org/dc/dcmitype/StillImage" />
        <dc:title></dc:title>
      </cc:Work>
    </rdf:RDF>
  </metadata>
  <g
     inkscape:label="Layer 1"
     inkscape:groupmode="layer"
     id="layer1"
     transform="translate(0,-217.62498)">
    <g
       id="g941"
       transform="matrix(1.1670971,0.22474454,-0.23440841,1.2172814,-46.3288,76.044992)">
      <g
         transform="translate(14.2875,-2.2489584)"
         style="fill:#ffffff;fill-opacity:1"
         id="g836">
        <path
           inkscape:connector-curvature="0"
           id="path819"
           d="m 77.8125,110.30273 c -5.521282,0 -10.000003,4.47872 -10,10 2e-6,5.52128 4.478722,10 10,10 5.521278,0 9.999998,-4.47872 10,-10 3e-6,-5.52128 -4.478718,-10 -10,-10 z m 0,0.26563 c 5.378221,0 9.736331,4.35615 9.736328,9.73437 -2e-6,5.37822 -4.35811,9.73438 -9.736328,9.73438 -5.378218,0 -9.734373,-4.35616 -9.734375,-9.73438 -3e-6,-5.37822 4.356154,-9.73437 9.734375,-9.73437 z"
           style="color:#000000;font-style:normal;font-variant:normal;font-weight:normal;font-stretch:normal;font-size:medium;line-height:normal;font-family:sans-serif;font-variant-ligatures:normal;font-variant-position:normal;font-variant-caps:normal;font-variant-numeric:normal;font-variant-alternates:normal;font-feature-settings:normal;text-indent:0;text-align:start;text-decoration:none;text-decoration-line:none;text-decoration-style:solid;text-decoration-color:#000000;letter-spacing:normal;word-spacing:normal;text-transform:none;writing-mode:lr-tb;direction:ltr;text-orientation:mixed;dominant-baseline:auto;baseline-shift:baseline;text-anchor:start;white-space:normal;shape-padding:0;clip-rule:nonzero;display:inline;overflow:visible;visibility:visible;opacity:1;isolation:auto;mix-blend-mode:normal;color-interpolation:sRGB;color-interpolation-filters:linearRGB;solid-color:#000000;solid-opacity:1;vector-effect:none;fill:#010000;fill-opacity:1;fill-rule:nonzero;stroke:none;stroke-width:0.26471084;stroke-linecap:round;stroke-linejoin:miter;stroke-miterlimit:4;stroke-dasharray:none;stroke-dashoffset:0;stroke-opacity:1;color-rendering:auto;image-rendering:auto;shape-rendering:auto;text-rendering:auto;enable-background:accumulate" />
        <path
           inkscape:connector-curvature="0"
           id="path817"
           d="m 98.994141,105.48242 -0.126953,0.0215 c 0,0 -4.684585,0.82689 -11.900391,4.54101 -3.018059,1.55346 -6.482268,3.61262 -10.234375,6.32813 -6.357026,4.60076 -11.352017,8.89788 -14.681641,11.98437 -1.664811,1.54325 -2.912538,2.78463 -3.707031,3.60938 -0.397247,0.41237 -0.68066,0.72001 -0.847656,0.91211 -0.0835,0.096 -0.136213,0.15936 -0.167969,0.20703 -0.0079,0.0119 -0.01466,0.0214 -0.02344,0.043 -0.0022,0.005 -0.0036,0.0105 -0.0059,0.0195 -0.0023,0.009 -0.0039,0.0385 -0.0039,0.0391 2.1e-5,6.1e-4 0.02318,0.0738 0.02344,0.0742 2.59e-4,3.6e-4 0.07958,0.0526 0.08008,0.0527 3.59e-4,8e-5 0.02493,-2.3e-4 0.04102,0 l 8.837891,6.96289 34.896484,-23.62304 z m -0.207032,0.31641 2.093751,10.73437 -34.591798,23.41602 -8.65625,-6.82031 c 0.02337,-0.0285 0.02817,-0.0367 0.0625,-0.0762 0.161577,-0.18586 0.444656,-0.4921 0.839844,-0.90234 0.790377,-0.82047 2.033979,-2.05763 3.695313,-3.59766 3.322667,-3.08004 8.311244,-7.37136 14.658203,-11.96484 3.740932,-2.70742 7.192522,-4.75903 10.199219,-6.30664 7.04913,-3.62833 11.523512,-4.45063 11.699218,-4.48242 z"
           style="color:#000000;font-style:normal;font-variant:normal;font-weight:normal;font-stretch:normal;font-size:medium;line-height:normal;font-family:sans-serif;font-variant-ligatures:normal;font-variant-position:normal;font-variant-caps:normal;font-variant-numeric:normal;font-variant-alternates:normal;font-feature-settings:normal;text-indent:0;text-align:start;text-decoration:none;text-decoration-line:none;text-decoration-style:solid;text-decoration-color:#000000;letter-spacing:normal;word-spacing:normal;text-transform:none;writing-mode:lr-tb;direction:ltr;text-orientation:mixed;dominant-baseline:auto;baseline-shift:baseline;text-anchor:start;white-space:normal;shape-padding:0;clip-rule:nonzero;display:inline;overflow:visible;visibility:visible;opacity:1;isolation:auto;mix-blend-mode:normal;color-interpolation:sRGB;color-interpolation-filters:linearRGB;solid-color:#000000;solid-opacity:1;vector-effect:none;fill:#010000;fill-opacity:1;fill-rule:nonzero;stroke:none;stroke-width:0.26458332px;stroke-linecap:butt;stroke-linejoin:miter;stroke-miterlimit:4;stroke-dasharray:none;stroke-dashoffset:0;stroke-opacity:1;color-rendering:auto;image-rendering:auto;shape-rendering:auto;text-rendering:auto;enable-background:accumulate" />
        <path
           inkscape:connector-curvature="0"
           id="path827"
           d="m 68.439453,117.51367 c 0,0 -2.321305,2.06886 -4.203125,4.6875 -1.883271,2.62067 -6.886719,10.89453 -6.886719,10.89453 l 0.226563,0.13672 c 0,0 5.016309,-8.29048 6.875,-10.87695 1.860142,-2.58848 4.164062,-4.64453 4.164062,-4.64453 z"
           style="color:#000000;font-style:normal;font-variant:normal;font-weight:normal;font-stretch:normal;font-size:medium;line-height:normal;font-family:sans-serif;font-variant-ligatures:normal;font-variant-position:normal;font-variant-caps:normal;font-variant-numeric:normal;font-variant-alternates:normal;font-feature-settings:normal;text-indent:0;text-align:start;text-decoration:none;text-decoration-line:none;text-decoration-style:solid;text-decoration-color:#000000;letter-spacing:normal;word-spacing:normal;text-transform:none;writing-mode:lr-tb;direction:ltr;text-orientation:mixed;dominant-baseline:auto;baseline-shift:baseline;text-anchor:start;white-space:normal;shape-padding:0;clip-rule:nonzero;display:inline;overflow:visible;visibility:visible;opacity:1;isolation:auto;mix-blend-mode:normal;color-interpolation:sRGB;color-interpolation-filters:linearRGB;solid-color:#000000;solid-opacity:1;vector-effect:none;fill:#000000;fill-opacity:1;fill-rule:nonzero;stroke:#010000;stroke-width:0.58449972;stroke-linecap:butt;stroke-linejoin:miter;stroke-miterlimit:4;stroke-dasharray:none;stroke-dashoffset:0;stroke-opacity:1;color-rendering:auto;image-rendering:auto;shape-rendering:auto;text-rendering:auto;enable-background:accumulate" />
        <path
           inkscape:connector-curvature="0"
           id="path829"
           d="m 98.873047,105.50391 c 0,0 -7.251152,0.89306 -10.621094,1.71679 -3.368355,0.82335 -9.453125,3.125 -9.453125,3.125 l 0.09375,0.2461 c 0,0 6.092794,-2.30149 9.421875,-3.11524 3.327494,-0.81336 10.591797,-1.71094 10.591797,-1.71094 z"
           style="color:#000000;font-style:normal;font-variant:normal;font-weight:normal;font-stretch:normal;font-size:medium;line-height:normal;font-family:sans-serif;font-variant-ligatures:normal;font-variant-position:normal;font-variant-caps:normal;font-variant-numeric:normal;font-variant-alternates:normal;font-feature-settings:normal;text-indent:0;text-align:start;text-decoration:none;text-decoration-line:none;text-decoration-style:solid;text-decoration-color:#000000;letter-spacing:normal;word-spacing:normal;text-transform:none;writing-mode:lr-tb;direction:ltr;text-orientation:mixed;dominant-baseline:auto;baseline-shift:baseline;text-anchor:start;white-space:normal;shape-padding:0;clip-rule:nonzero;display:inline;overflow:visible;visibility:visible;opacity:1;isolation:auto;mix-blend-mode:normal;color-interpolation:sRGB;color-interpolation-filters:linearRGB;solid-color:#000000;solid-opacity:1;vector-effect:none;fill:#000000;fill-opacity:1;fill-rule:nonzero;stroke:#010000;stroke-width:0.45915702;stroke-linecap:butt;stroke-linejoin:miter;stroke-miterlimit:4;stroke-dasharray:none;stroke-dashoffset:0;stroke-opacity:1;color-rendering:auto;image-rendering:auto;shape-rendering:auto;text-rendering:auto;enable-background:accumulate" />
        <path
           transform="scale(0.26458333)"
           inkscape:connector-curvature="0"
           id="path861"
           d="m 258.35023,462.98835 c -0.20075,-0.49312 -0.48413,-3.40963 -0.62974,-6.48113 -0.31054,-6.5509 0.56736,-11.30665 3.13333,-16.97375 2.10067,-4.63945 3.57315,-6.75996 7.36649,-10.60842 5.73896,-5.82235 13.34213,-9.52942 21.74591,-10.60264 4.55871,-0.58218 8.45974,-0.26913 13.62545,1.09339 3.75049,0.98924 10,3.74983 10,4.41728 0,0.19473 -1.96875,1.54709 -4.375,3.00526 -11.70078,7.09058 -38.20347,26.47772 -49.68822,36.34771 -0.70534,0.60617 -0.86165,0.57994 -1.17822,-0.1977 z"
           style="fill:#ffffff;fill-opacity:1;stroke:#010000;stroke-width:2.81296253;stroke-linecap:round;stroke-linejoin:miter;stroke-miterlimit:4;stroke-dasharray:none;stroke-dashoffset:0;stroke-opacity:1" />
      </g>
      <g
         transform="translate(15.478125,7.4083316)"
         id="g868">
        <path
           style="fill:#ffffff;fill-opacity:1;stroke:#000000;stroke-width:0.71893466;stroke-linecap:butt;stroke-linejoin:miter;stroke-miterlimit:4;stroke-dasharray:none;stroke-opacity:1"
           d="m 56.442181,123.47162 8.735713,6.68613 34.512341,-23.28184 -2.00782,-11.029292 c 0,0 -12.96866,3.88909 -23.05486,11.601912 -10.086201,7.71281 -18.185374,16.02309 -18.185374,16.02309 z"
           id="path865"
           inkscape:connector-curvature="0"
           sodipodi:nodetypes="cccczc" />
      </g>
    </g>
    <g
       id="g946"
       transform="matrix(1.7654275,0,0,1.6607783,-120.2334,20.444812)"
       style="fill:#3a7fff;fill-opacity:1">
      <path
         sodipodi:nodetypes="ccczc"
         inkscape:connector-curvature="0"
         id="path912"
         d="m 90.504084,146.76654 c 0,0 1.683599,4.15971 -1.08476,9.04171 l -7.870607,5.08968 c 0,0 2.495874,-6.61834 4.123175,-8.96405 1.627303,-2.34572 4.832192,-5.16734 4.832192,-5.16734 z"
         style="fill:#3a7fff;fill-opacity:1;stroke:#000000;stroke-width:0.54094672;stroke-linecap:butt;stroke-linejoin:miter;stroke-miterlimit:4;stroke-dasharray:none;stroke-opacity:1" />
      <path
         sodipodi:nodetypes="ccczc"
         inkscape:connector-curvature="0"
         id="path912-0"
         d="m 92.620752,146.76654 c 0,0 -1.815966,4.10366 0.794616,9.07182 l 7.703562,5.33914 c 0,0 -2.282627,-6.69488 -3.833965,-9.09151 -1.551339,-2.39663 -4.664213,-5.31945 -4.664213,-5.31945 z"
         style="fill:#3a7fff;fill-opacity:1;stroke:#000000;stroke-width:0.54094672;stroke-linecap:butt;stroke-linejoin:miter;stroke-miterlimit:4;stroke-dasharray:none;stroke-opacity:1" />
      <ellipse
         ry="3.5057292"
         rx="3.3734374"
         cy="145.98906"
         cx="91.215103"
         id="path910"
         style="fill:#3a7fff;fill-opacity:1;stroke:#010000;stroke-width:0.51240313;stroke-linecap:round;stroke-linejoin:miter;stroke-miterlimit:4;stroke-dasharray:none;stroke-dashoffset:0;stroke-opacity:1" />
    </g>
    <g
       aria-label="firstmate"
       transform="matrix(0.26458333,0,0,0.26458333,-5.5175857,203.68656)"
       style="font-style:normal;font-weight:normal;font-size:133.33332825px;line-height:1.25;font-family:sans-serif;letter-spacing:0px;word-spacing:0px;fill:#000000;fill-opacity:1;stroke:none"
       id="flowRoot3726">
      <path
         d="m 390.95117,173.82958 q 0,2.05079 -1.58203,3.75 -1.58203,1.64063 -3.57422,1.64063 -0.46875,0 -6.38672,-2.69531 -5.91797,-2.69532 -12.24609,-2.69532 -9.90234,0 -13.88672,8.14454 -1.875,3.86718 -2.28516,11.60156 -0.23437,8.20312 -0.46875,16.40625 15.9375,1.28906 21.03516,2.57812 6.79688,1.75782 6.79688,5.80078 0,2.28516 -1.23047,3.8086 -1.17188,1.46484 -2.75391,1.46484 -0.9375,0 -8.08594,-1.23047 -8.32031,-1.40625 -15.8789,-1.99218 -0.87891,26.36718 -1.81641,32.51953 -1.58203,10.54687 -6.85547,10.54687 -5.625,0 -5.625,-6.5039 0,0 1.23047,-12.01172 1.28906,-12.48047 1.52344,-25.13672 -7.14844,-0.11719 -9.4336,-0.9961 -2.92968,-1.11328 -2.92968,-4.6875 0,-5.03906 5.39062,-5.03906 h 0.23438 l 6.85547,0.23438 q 0.23437,-7.79297 0.41015,-15.52735 0.35156,-7.32422 1.52344,-11.07422 6.09375,-19.6875 25.66406,-19.6875 10.83985,0 17.92969,3.45704 6.44531,3.16406 6.44531,7.32421 z"
         style="font-style:normal;font-variant:normal;font-weight:normal;font-stretch:normal;font-size:120px;font-family:'Kristen ITC';-inkscape-font-specification:'Kristen ITC'"
         id="path3753"
         inkscape:connector-curvature="0" />
      <path
         d="m 409.93555,162.16943 q 0,8.32031 -8.14453,8.32031 -3.28125,0 -5.56641,-2.28516 -2.22656,-2.28515 -2.22656,-5.50781 0,-3.51562 2.46093,-5.97656 2.46094,-2.46094 6.03516,-2.46094 3.33984,0 5.39063,2.16797 2.05078,2.16797 2.05078,5.74219 z m -2.51953,22.32422 q 0,35.33203 -2.51954,52.20703 -0.99609,6.79687 -2.22656,9.14062 -1.58203,3.10547 -5.09765,3.10547 -2.34375,0 -3.98438,-1.52344 -1.64062,-1.58203 -1.64062,-3.75 0,0.29297 0.9375,-4.04296 1.11328,-4.92188 1.8164,-11.19141 0.9375,-8.90625 0.9375,-19.92188 0,-4.80468 -0.11719,-10.13671 -0.11718,-5.33204 -0.11718,-5.80079 0,-7.91015 1.34765,-11.01562 1.40625,-3.39844 5.27344,-3.39844 5.39063,0 5.39063,6.32813 z"
         style="font-style:normal;font-variant:normal;font-weight:normal;font-stretch:normal;font-size:120px;font-family:'Kristen ITC';-inkscape-font-specification:'Kristen ITC'"
         id="path3755"
         inkscape:connector-curvature="0" />
      <path
         d="m 469.99414,192.57958 q 0,2.22657 -1.34766,3.75 -1.34765,1.52344 -3.22265,1.52344 -1.40625,0 -4.16016,-2.05078 -2.7539,-2.05078 -4.98047,-2.05078 -5.5664,0 -9.02343,4.92187 -3.45704,4.86329 -3.45704,13.1836 v 7.67578 q 0,12.83203 -2.69531,20.39062 -2.51953,7.08985 -6.5039,7.08985 -5.33204,0 -5.33204,-5.27344 0,-1.05469 1.64063,-7.73437 1.64062,-6.73829 1.64062,-12.65625 0,-16.40625 -4.6875,-26.25 -0.11718,-0.29297 -3.22265,-5.91797 -1.58203,-2.8711 -1.58203,-4.57032 0,-1.875 1.8164,-3.51562 1.81641,-1.64063 3.92578,-1.64063 6.21094,0 10.3125,15.23438 6.09375,-11.71875 17.75391,-11.71875 5.85938,0 9.49219,2.75391 3.63281,2.69531 3.63281,6.85546 z"
         style="font-style:normal;font-variant:normal;font-weight:normal;font-stretch:normal;font-size:120px;font-family:'Kristen ITC';-inkscape-font-specification:'Kristen ITC'"
         id="path3757"
         inkscape:connector-curvature="0" />
      <path
         d="m 523.90039,187.54052 q 0,5.85938 -5.91797,5.85938 -2.05078,0 -3.22265,-1.46485 -0.82032,-1.34765 -1.69922,-2.7539 -3.63282,-4.6875 -9.66797,-4.6875 -10.3711,0 -10.3711,11.77734 0,4.10156 1.875,7.03125 1.58204,2.51953 5.6836,5.68359 9.25781,7.08985 11.54297,9.78516 4.80468,5.50781 4.80468,12.65625 0,9.375 -6.09375,15.29297 -6.09375,5.85937 -15.8789,5.85937 -9.31641,0 -15.29297,-4.86328 -5.80078,-4.6875 -5.80078,-11.83593 0,-7.20704 6.21094,-7.20704 5.21484,0 5.39062,8.02735 4.21875,5.03906 9.49219,5.03906 4.39453,0 7.14844,-2.63672 2.8125,-2.69531 2.8125,-6.67969 0,-3.63281 -3.39844,-6.85546 -0.0586,-0.11719 -8.61328,-6.85547 -11.83594,-9.375 -11.83594,-21.97266 0,-10.25391 6.26953,-16.58203 6.32813,-6.32813 16.52344,-6.32813 8.3789,0 14.35547,4.39454 5.68359,4.16015 5.68359,9.3164 z"
         style="font-style:normal;font-variant:normal;font-weight:normal;font-stretch:normal;font-size:120px;font-family:'Kristen ITC';-inkscape-font-specification:'Kristen ITC'"
         id="path3759"
         inkscape:connector-curvature="0" />
      <path
         d="m 582.08398,196.38818 q 0,2.05078 -1.28906,3.51562 -1.28906,1.40625 -3.04687,1.40625 -0.87891,0 -6.73828,-2.28515 -5.80079,-2.28516 -11.36719,-2.28516 -1.75781,0 -3.69141,0.23438 -2.16797,9.55078 -2.16797,17.51953 0,10.2539 3.45703,15.76172 3.45704,5.50781 9.60938,5.50781 1.875,0 4.92187,-1.17188 3.10547,-1.23047 4.45313,-1.23047 4.6875,0 4.6875,5.50782 0,3.57422 -3.86719,5.80078 -3.86719,2.22656 -10.54687,2.22656 -24.84375,0 -24.84375,-33.10547 0,-6.97265 1.69922,-15.35156 -1.64063,0.23437 -7.08985,1.34766 -3.57422,0.70312 -5.27344,0.70312 -6.26953,0 -6.26953,-4.80469 0,-6.5625 21.6211,-8.55468 4.45312,-14.1211 10.89843,-14.1211 1.99219,0 3.39844,1.46485 1.40625,1.40625 1.40625,3.45703 0,1.52343 -0.8789,3.86718 -0.87891,2.28516 -1.75782,4.62891 22.67578,0.76172 22.67578,9.96094 z"
         style="font-style:normal;font-variant:normal;font-weight:normal;font-stretch:normal;font-size:120px;font-family:'Kristen ITC';-inkscape-font-specification:'Kristen ITC'"
         id="path3761"
         inkscape:connector-curvature="0" />
      <path
         d="m 673.02148,210.2163 q 0,44.88282 -10.66406,44.88282 -4.10156,0 -4.10156,-5.15625 0,-0.0586 1.99219,-13.35938 1.99218,-13.35937 1.99218,-26.60156 0,-22.08985 -10.42968,-22.08985 -9.14063,0 -12.01172,11.13282 -2.16797,8.55468 -2.16797,33.63281 0,3.86719 0.58594,8.55469 0.58593,4.6289 0.58593,5.44922 0,5.80078 -5.50781,5.80078 -6.62109,0 -6.62109,-21.15235 0,-8.90625 0.64453,-18.57422 0.70312,-9.72656 0.70312,-10.42968 0,-8.67188 -9.14062,-8.67188 -8.55469,0 -12.42188,7.67578 -3.75,7.44141 -3.75,23.55469 0,10.37109 0.58594,19.33594 0.58594,8.90625 0.58594,7.5 0,2.22656 -1.64063,3.6914 -1.58203,1.46485 -4.10156,1.46485 -5.21484,0 -6.44531,-9.96094 -0.41016,-2.87109 -0.41016,-14.88281 0,-25.13672 4.10157,-47.98828 1.34765,-7.5 2.69531,-9.96094 1.58203,-2.98828 5.09765,-2.98828 5.50782,0 5.50782,5.85937 0,0 -2.63672,13.24219 5.03906,-7.08984 14.41406,-7.08984 7.5,0 11.77734,6.21093 7.44141,-12.24609 20.97657,-12.24609 19.80468,0 19.80468,33.16406 z"
         style="font-style:normal;font-variant:normal;font-weight:normal;font-stretch:normal;font-size:120px;font-family:'Kristen ITC';-inkscape-font-specification:'Kristen ITC'"
         id="path3763"
         inkscape:connector-curvature="0" />
      <path
         d="m 738.58789,215.48974 q 0,16.05469 -4.6875,33.57422 -2.34375,8.78906 -6.97266,8.78906 -4.74609,0 -4.74609,-5.39062 0,-1.23047 0.11719,-1.81641 -5.97656,3.22266 -12.36328,3.22266 -11.3086,0 -17.69532,-6.38672 -6.32812,-6.38672 -6.32812,-17.8711 0,-11.66015 6.85547,-18.45703 6.85547,-6.85547 18.22265,-6.85547 9.90235,0 16.69922,6.6211 -1.11328,-23.14453 -17.16797,-23.14453 -3.57421,0 -7.67578,2.16797 -4.04297,2.10937 -5.27343,2.10937 -1.99219,0 -3.57422,-1.64062 -1.58203,-1.64063 -1.58203,-3.75 0,-3.51563 5.09765,-6.50391 5.44922,-3.22266 13.00781,-3.22266 28.06641,0 28.06641,38.55469 z m -11.89453,13.76953 q 0,-14.88281 -14.00391,-14.88281 -15.35156,0 -15.35156,14.76562 0,14.88282 15.23438,14.88282 6.62109,0 10.37109,-3.86719 3.75,-3.92578 3.75,-10.89844 z"
         style="font-style:normal;font-variant:normal;font-weight:normal;font-stretch:normal;font-size:120px;font-family:'Kristen ITC';-inkscape-font-specification:'Kristen ITC'"
         id="path3765"
         inkscape:connector-curvature="0" />
      <path
         d="m 802.39648,196.38818 q 0,2.05078 -1.28906,3.51562 -1.28906,1.40625 -3.04687,1.40625 -0.87891,0 -6.73828,-2.28515 -5.80079,-2.28516 -11.36719,-2.28516 -1.75781,0 -3.69141,0.23438 -2.16797,9.55078 -2.16797,17.51953 0,10.2539 3.45703,15.76172 3.45704,5.50781 9.60938,5.50781 1.875,0 4.92187,-1.17188 3.10547,-1.23047 4.45313,-1.23047 4.6875,0 4.6875,5.50782 0,3.57422 -3.86719,5.80078 -3.86719,2.22656 -10.54687,2.22656 -24.84375,0 -24.84375,-33.10547 0,-6.97265 1.69922,-15.35156 -1.64063,0.23437 -7.08985,1.34766 -3.57422,0.70312 -5.27344,0.70312 -6.26953,0 -6.26953,-4.80469 0,-6.5625 21.6211,-8.55468 4.45312,-14.1211 10.89843,-14.1211 1.99219,0 3.39844,1.46485 1.40625,1.40625 1.40625,3.45703 0,1.52343 -0.8789,3.86718 -0.87891,2.28516 -1.75782,4.62891 22.67578,0.76172 22.67578,9.96094 z"
         style="font-style:normal;font-variant:normal;font-weight:normal;font-stretch:normal;font-size:120px;font-family:'Kristen ITC';-inkscape-font-specification:'Kristen ITC'"
         id="path3767"
         inkscape:connector-curvature="0" />
      <path
         d="m 867.78711,200.95849 q 0,6.09375 -4.21875,9.02344 -1.875,1.28906 -11.89453,3.33984 -13.30078,2.75391 -22.67578,2.75391 -4.27735,0 -10.3125,-0.58594 0,22.08984 16.8164,22.08984 4.62891,0 8.37891,-2.63671 1.875,-1.28907 6.73828,-6.26954 1.75781,-1.8164 3.69141,-1.8164 2.46093,0 4.21875,1.875 1.8164,1.8164 1.8164,4.51172 0,2.22656 -1.69922,4.10156 -10.07812,11.01562 -23.61328,11.01562 -28.00781,0 -28.00781,-32.40234 0,-16.69922 8.90625,-28.82812 10.13672,-13.76954 25.07813,-13.76954 11.66015,0 19.21875,7.79297 7.55859,7.79297 7.55859,19.80469 z m -11.66016,0.70313 q -0.35156,-8.14454 -4.27734,-12.89063 -3.86719,-4.74609 -9.72656,-4.74609 -7.61719,0 -13.41797,5.44922 -5.97656,5.50781 -8.90625,15.58593 4.16015,0.46875 8.84765,0.46875 11.36719,0 27.48047,-3.86718 z"
         style="font-style:normal;font-variant:normal;font-weight:normal;font-stretch:normal;font-size:120px;font-family:'Kristen ITC';-inkscape-font-specification:'Kristen ITC'"
         id="path3769"
         inkscape:connector-curvature="0" />
    </g>
    <path
       style="fill:#ffffff;fill-opacity:1;stroke:none;stroke-width:3.46906114;stroke-linecap:round;stroke-linejoin:miter;stroke-miterlimit:4;stroke-dasharray:none;stroke-dashoffset:0;stroke-opacity:1"
       d="m 43.389914,111.2047 c 5.86101,-7.367 30.273618,-32.107597 35.051428,-35.522354 4.694283,-3.355059 4.824642,-3.386544 4.180704,-1.009742 -0.365564,1.349314 -0.951863,5.437817 -1.302886,9.085564 -0.637871,6.628611 -0.640808,6.633718 -5.33039,9.269861 -2.580691,1.450678 -11.425702,6.985861 -19.655578,12.300401 -8.229876,5.31454 -15.186688,9.66281 -15.459582,9.66281 -0.272894,0 0.859443,-1.70394 2.516304,-3.78654 z"
       id="path835"
       inkscape:connector-curvature="0"
       transform="matrix(0.26458333,0,0,0.26458333,0,217.62498)" />
    <path
       style="fill:#ffffff;fill-opacity:1;stroke:none;stroke-width:3.46906114;stroke-linecap:round;stroke-linejoin:miter;stroke-miterlimit:4;stroke-dasharray:none;stroke-dashoffset:0;stroke-opacity:1"
       d="m 152.29603,47.031634 -5.88607,-4.23697 10.79775,-1.724465 c 17.35404,-2.771539 28.89445,-3.8327 41.07186,-3.776628 l 11.3994,0.05249 -19.1851,4.912858 c -10.55181,2.702072 -21.86895,5.85914 -25.1492,7.015706 -3.28025,1.156567 -6.23375,2.078353 -6.56333,2.048414 -0.32957,-0.02994 -3.24796,-1.961071 -6.48531,-4.291405 z"
       id="path837"
       inkscape:connector-curvature="0"
       transform="matrix(0.26458333,0,0,0.26458333,0,217.62498)" />
  </g>
</svg>
