<?xml version="1.0" encoding="UTF-8" standalone="no"?>
<!-- Created with Inkscape (http://www.inkscape.org/) -->

<svg
   xmlns:dc="http://purl.org/dc/elements/1.1/"
   xmlns:cc="http://creativecommons.org/ns#"
   xmlns:rdf="http://www.w3.org/1999/02/22-rdf-syntax-ns#"
   xmlns:svg="http://www.w3.org/2000/svg"
   xmlns="http://www.w3.org/2000/svg"
   xmlns:sodipodi="http://sodipodi.sourceforge.net/DTD/sodipodi-0.dtd"
   xmlns:inkscape="http://www.inkscape.org/namespaces/inkscape"
   width="317"
   height="317"
   version="1.1"
   viewBox="0 0 83.873 83.873"
   id="svg26"
   sodipodi:docname="fav-dark.svg"
   inkscape:version="0.92.2 (5c3e80d, 2017-08-06)">
  <defs
     id="defs30" />
  <sodipodi:namedview
     pagecolor="#ffffff"
     bordercolor="#666666"
     borderopacity="1"
     objecttolerance="10"
     gridtolerance="10"
     guidetolerance="10"
     inkscape:pageopacity="0"
     inkscape:pageshadow="2"
     inkscape:window-width="1641"
     inkscape:window-height="862"
     id="namedview28"
     showgrid="false"
     inkscape:pagecheckerboard="false"
     inkscape:zoom="1.052853"
     inkscape:cx="-125.30644"
     inkscape:cy="208.61443"
     inkscape:window-x="0"
     inkscape:window-y="0"
     inkscape:window-maximized="0"
     inkscape:current-layer="svg26" />
  <metadata
     id="metadata2">
    <rdf:RDF>
      <cc:Work
         rdf:about="">
        <dc:format>image/svg+xml</dc:format>
        <dc:type
           rdf:resource="http://purl.org/dc/dcmitype/StillImage" />
        <dc:title />
      </cc:Work>
    </rdf:RDF>
  </metadata>
  <g
     transform="translate(0 -213.13)"
     id="g24"
     style="fill:#ffffff">
    <g
       transform="matrix(1.7497 .337 -.35143 1.8253 -78.625 4.9444)"
       id="g22"
       style="fill:#ffffff">
      <g
         transform="translate(14.288 -2.249)"
         fill="#fff"
         id="g16"
         style="fill:#ffffff">
        <g
           shape-rendering="auto"
           id="g12"
           style="fill:#ffffff">
          <path
             d="m77.812 110.3c-5.5213 0-10 4.4787-10 10 2e-6 5.5213 4.4787 10 10 10s10-4.4787 10-10c3e-6 -5.5213-4.4787-10-10-10zm0 0.26563c5.3782 0 9.7363 4.3562 9.7363 9.7344-2e-6 5.3782-4.3581 9.7344-9.7363 9.7344s-9.7344-4.3562-9.7344-9.7344c-3e-6 -5.3782 4.3562-9.7344 9.7344-9.7344z"
             color="#000000"
             color-rendering="auto"
             dominant-baseline="auto"
             fill="#010000"
             image-rendering="auto"
             solid-color="#000000"
             style="font-feature-settings:normal;font-variant-alternates:normal;font-variant-caps:normal;font-variant-ligatures:normal;font-variant-numeric:normal;font-variant-position:normal;isolation:auto;mix-blend-mode:normal;shape-padding:0;text-decoration-color:#000000;text-decoration-line:none;text-decoration-style:solid;text-indent:0;text-orientation:mixed;text-transform:none;white-space:normal;fill:#ffffff"
             id="path4" />
          <path
             d="m98.994 105.48-0.12695 0.0215s-4.6846 0.82689-11.9 4.541c-3.0181 1.5535-6.4823 3.6126-10.234 6.3281-6.357 4.6008-11.352 8.8979-14.682 11.984-1.6648 1.5432-2.9125 2.7846-3.707 3.6094-0.39725 0.41237-0.68066 0.72001-0.84766 0.91211-0.0835 0.096-0.13621 0.15936-0.16797 0.20703-0.0079 0.0119-0.01466 0.0214-0.02344 0.043-0.0022 5e-3 -0.0036 0.0105-0.0059 0.0195s-0.0039 0.0385-0.0039 0.0391c2.1e-5 6.1e-4 0.02318 0.0738 0.02344 0.0742 2.59e-4 3.6e-4 0.07958 0.0526 0.08008 0.0527 3.59e-4 8e-5 0.02493-2.3e-4 0.04102 0l8.8379 6.9629 34.896-23.623zm-0.20703 0.31641 2.0938 10.734-34.592 23.416-8.6562-6.8203c0.02337-0.0285 0.02817-0.0367 0.0625-0.0762 0.16158-0.18586 0.44466-0.4921 0.83984-0.90234 0.79038-0.82047 2.034-2.0576 3.6953-3.5977 3.3227-3.08 8.3112-7.3714 14.658-11.965 3.7409-2.7074 7.1925-4.759 10.199-6.3066 7.0491-3.6283 11.524-4.4506 11.699-4.4824z"
             color="#000000"
             color-rendering="auto"
             dominant-baseline="auto"
             fill="#010000"
             image-rendering="auto"
             solid-color="#000000"
             style="font-feature-settings:normal;font-variant-alternates:normal;font-variant-caps:normal;font-variant-ligatures:normal;font-variant-numeric:normal;font-variant-position:normal;isolation:auto;mix-blend-mode:normal;shape-padding:0;text-decoration-color:#000000;text-decoration-line:none;text-decoration-style:solid;text-indent:0;text-orientation:mixed;text-transform:none;white-space:normal;fill:#ffffff"
             id="path6" />
          <path
             d="m68.439 117.51s-2.3213 2.0689-4.2031 4.6875c-1.8833 2.6207-6.8867 10.895-6.8867 10.895l0.22656 0.13672s5.0163-8.2905 6.875-10.877c1.8601-2.5885 4.1641-4.6445 4.1641-4.6445z"
             color="#000000"
             color-rendering="auto"
             dominant-baseline="auto"
             fill="#000"
             image-rendering="auto"
             solid-color="#000000"
             stroke="#010000"
             stroke-width=".5845"
             style="font-feature-settings:normal;font-variant-alternates:normal;font-variant-caps:normal;font-variant-ligatures:normal;font-variant-numeric:normal;font-variant-position:normal;isolation:auto;mix-blend-mode:normal;shape-padding:0;text-decoration-color:#000000;text-decoration-line:none;text-decoration-style:solid;text-indent:0;text-orientation:mixed;text-transform:none;white-space:normal;fill:#ffffff"
             id="path8" />
          <path
             d="m98.873 105.5s-7.2512 0.89306-10.621 1.7168c-3.3684 0.82335-9.4531 3.125-9.4531 3.125l0.09375 0.2461s6.0928-2.3015 9.4219-3.1152c3.3275-0.81336 10.592-1.7109 10.592-1.7109z"
             color="#000000"
             color-rendering="auto"
             dominant-baseline="auto"
             fill="#000"
             image-rendering="auto"
             solid-color="#000000"
             stroke="#010000"
             stroke-width=".45916"
             style="font-feature-settings:normal;font-variant-alternates:normal;font-variant-caps:normal;font-variant-ligatures:normal;font-variant-numeric:normal;font-variant-position:normal;isolation:auto;mix-blend-mode:normal;shape-padding:0;text-decoration-color:#000000;text-decoration-line:none;text-decoration-style:solid;text-indent:0;text-orientation:mixed;text-transform:none;white-space:normal;fill:#ffffff"
             id="path10" />
        </g>
        <path
           transform="scale(.26458)"
           d="m258.35 462.99c-0.20075-0.49312-0.48413-3.4096-0.62974-6.4811-0.31054-6.5509 0.56736-11.307 3.1333-16.974 2.1007-4.6394 3.5732-6.76 7.3665-10.608 5.739-5.8224 13.342-9.5294 21.746-10.603 4.5587-0.58218 8.4597-0.26913 13.625 1.0934 3.7505 0.98924 10 3.7498 10 4.4173 0 0.19473-1.9688 1.5471-4.375 3.0053-11.701 7.0906-38.203 26.478-49.688 36.348-0.70534 0.60617-0.86165 0.57994-1.1782-0.1977z"
           fill="#fff"
           stroke="#010000"
           stroke-linecap="round"
           stroke-width="2.813"
           id="path14"
           style="fill:#ffffff" />
      </g>
      <g
         transform="translate(15.478 7.4083)"
         id="g20"
         style="fill:#ffffff">
        <path
           d="m56.442 123.47 8.7357 6.6861 34.512-23.282-2.0078-11.029s-12.969 3.8891-23.055 11.602c-10.086 7.7128-18.185 16.023-18.185 16.023z"
           fill="#fff"
           stroke="#000"
           stroke-width=".71893"
           id="path18"
           style="fill:#ffffff" />
      </g>
    </g>
  </g>
  <path
     style="fill:#ffffff;fill-opacity:1;stroke:none;stroke-width:1.14226615;stroke-linecap:round;stroke-linejoin:miter;stroke-miterlimit:4;stroke-dasharray:none;stroke-dashoffset:0;stroke-opacity:1"
     d="m 20.777149,192.56087 c 0.939125,-1.19594 19.797991,-22.32768 26.298189,-29.46766 15.40958,-16.92625 22.211363,-23.6473 31.753257,-31.37637 5.150092,-4.17165 11.791927,-9.16133 11.964739,-8.98851 0.05661,0.0566 -0.340335,1.90847 -0.8821,4.11526 -1.838616,7.48928 -3.308496,20.20613 -2.61804,22.65029 0.215113,0.76147 0.02616,0.96978 -2.014831,2.22117 -1.238711,0.75949 -5.652231,3.46616 -9.807819,6.01482 -14.661706,8.99217 -26.712586,16.72676 -43.231492,27.74718 -6.323851,4.2189 -11.593506,7.67072 -11.710344,7.67072 -0.116838,0 -0.005,-0.26411 0.248441,-0.5869 z"
     id="path3722"
     inkscape:connector-curvature="0"
     transform="scale(0.2645836)" />
  <path
     style="fill:#ffffff;fill-opacity:1;stroke:none;stroke-width:1.14226615;stroke-linecap:round;stroke-linejoin:miter;stroke-miterlimit:4;stroke-dasharray:none;stroke-dashoffset:0;stroke-opacity:1"
     d="m 201.72828,92.732744 c -0.93499,-1.747047 -9.59263,-7.830451 -15.60996,-10.96855 -2.21631,-1.155829 -3.87473,-2.105341 -3.68537,-2.110026 0.18936,-0.0047 2.45604,-0.378914 5.03707,-0.83162 7.58216,-1.32989 23.24386,-3.762515 31.3893,-4.875485 15.01794,-2.052012 19.50213,-2.407722 32.78146,-2.600404 14.67697,-0.212962 33.37332,0.183407 31.0215,0.657666 -28.83168,5.814081 -54.93881,12.704793 -77.88164,20.556065 -1.37138,0.469297 -2.53718,0.853268 -2.59068,0.853268 -0.0535,0 -0.26126,-0.306411 -0.46168,-0.680914 z"
     id="path3724"
     inkscape:connector-curvature="0"
     transform="scale(0.2645836)" />
</svg>
