<?xml version="1.0" encoding="UTF-8" standalone="no"?>
<!-- Created with Inkscape (http://www.inkscape.org/) -->

<svg
   xmlns:dc="http://purl.org/dc/elements/1.1/"
   xmlns:cc="http://creativecommons.org/ns#"
   xmlns:rdf="http://www.w3.org/1999/02/22-rdf-syntax-ns#"
   xmlns:svg="http://www.w3.org/2000/svg"
   xmlns="http://www.w3.org/2000/svg"
   xmlns:sodipodi="http://sodipodi.sourceforge.net/DTD/sodipodi-0.dtd"
   xmlns:inkscape="http://www.inkscape.org/namespaces/inkscape"
   width="309"
   height="309"
   version="1.1"
   viewBox="0 0 81.75625 81.75625"
   id="svg38"
   sodipodi:docname="logo-noborder.svg"
   inkscape:version="0.92.2 (5c3e80d, 2017-08-06)">
  <defs
     id="defs42" />
  <sodipodi:namedview
     pagecolor="#ffffff"
     bordercolor="#666666"
     borderopacity="1"
     objecttolerance="10"
     gridtolerance="10"
     guidetolerance="10"
     inkscape:pageopacity="0"
     inkscape:pageshadow="2"
     inkscape:window-width="1920"
     inkscape:window-height="1017"
     id="namedview40"
     showgrid="false"
     inkscape:pagecheckerboard="true"
     inkscape:zoom="0.78666667"
     inkscape:cx="-8.2627119"
     inkscape:cy="150"
     inkscape:window-x="-8"
     inkscape:window-y="-8"
     inkscape:window-maximized="1"
     inkscape:current-layer="svg38"
     units="in" />
  <metadata
     id="metadata2">
    <rdf:RDF>
      <cc:Work
         rdf:about="">
        <dc:format>image/svg+xml</dc:format>
        <dc:type
           rdf:resource="http://purl.org/dc/dcmitype/StillImage" />
        <dc:title></dc:title>
      </cc:Work>
    </rdf:RDF>
  </metadata>
  <g
     id="g900"
     transform="matrix(1.2997159,0,0,1.2994801,-7.9490633,-11.464479)">
    <g
       id="g24"
       transform="matrix(1.1671,0.22474,-0.23441,1.2173,-46.329,-141.575)">
      <g
         style="fill:#ffffff"
         id="g18"
         transform="translate(14.288,-2.249)">
        <g
           style="shape-rendering:auto"
           id="g14">
          <path
             inkscape:connector-curvature="0"
             id="path6"
             style="color:#000000;font-variant-ligatures:normal;font-variant-position:normal;font-variant-caps:normal;font-variant-numeric:normal;font-variant-alternates:normal;font-feature-settings:normal;text-indent:0;text-decoration:none;text-decoration-line:none;text-decoration-style:solid;text-decoration-color:#000000;text-transform:none;text-orientation:mixed;dominant-baseline:auto;white-space:normal;shape-padding:0;isolation:auto;mix-blend-mode:normal;solid-color:#000000;fill:#010000;color-rendering:auto;image-rendering:auto"
             dominant-baseline="auto"
             d="m 77.812,110.3 c -5.5213,0 -10,4.4787 -10,10 2e-6,5.5213 4.4787,10 10,10 5.5213,0 10,-4.4787 10,-10 3e-6,-5.5213 -4.4787,-10 -10,-10 z m 0,0.26563 c 5.3782,0 9.7363,4.3562 9.7363,9.7344 -2e-6,5.3782 -4.3581,9.7344 -9.7363,9.7344 -5.3782,0 -9.7344,-4.3562 -9.7344,-9.7344 -3e-6,-5.3782 4.3562,-9.7344 9.7344,-9.7344 z" />
          <path
             inkscape:connector-curvature="0"
             id="path8"
             style="color:#000000;font-variant-ligatures:normal;font-variant-position:normal;font-variant-caps:normal;font-variant-numeric:normal;font-variant-alternates:normal;font-feature-settings:normal;text-indent:0;text-decoration:none;text-decoration-line:none;text-decoration-style:solid;text-decoration-color:#000000;text-transform:none;text-orientation:mixed;dominant-baseline:auto;white-space:normal;shape-padding:0;isolation:auto;mix-blend-mode:normal;solid-color:#000000;fill:#010000;color-rendering:auto;image-rendering:auto"
             dominant-baseline="auto"
             d="m 98.994,105.48 -0.12695,0.0215 c 0,0 -4.6846,0.82689 -11.9,4.541 -3.0181,1.5535 -6.4823,3.6126 -10.234,6.3281 -6.357,4.6008 -11.352,8.8979 -14.682,11.984 -1.6648,1.5432 -2.9125,2.7846 -3.707,3.6094 -0.39725,0.41237 -0.68066,0.72001 -0.84766,0.91211 -0.0835,0.096 -0.13621,0.15936 -0.16797,0.20703 -0.0079,0.0119 -0.01466,0.0214 -0.02344,0.043 -0.0022,0.005 -0.0036,0.0105 -0.0059,0.0195 -0.0023,0.009 -0.0039,0.0385 -0.0039,0.0391 2.1e-5,6.1e-4 0.02318,0.0738 0.02344,0.0742 2.59e-4,3.6e-4 0.07958,0.0526 0.08008,0.0527 3.59e-4,8e-5 0.02493,-2.3e-4 0.04102,0 l 8.8379,6.9629 34.896,-23.623 z m -0.20703,0.31641 2.0938,10.734 -34.592,23.416 -8.6562,-6.8203 c 0.02337,-0.0285 0.02817,-0.0367 0.0625,-0.0762 0.16158,-0.18586 0.44466,-0.4921 0.83984,-0.90234 0.79038,-0.82047 2.034,-2.0576 3.6953,-3.5977 3.3227,-3.08 8.3112,-7.3714 14.658,-11.965 3.7409,-2.7074 7.1925,-4.759 10.199,-6.3066 7.0491,-3.6283 11.524,-4.4506 11.699,-4.4824 z" />
          <path
             inkscape:connector-curvature="0"
             id="path10"
             style="color:#000000;font-variant-ligatures:normal;font-variant-position:normal;font-variant-caps:normal;font-variant-numeric:normal;font-variant-alternates:normal;font-feature-settings:normal;text-indent:0;text-decoration:none;text-decoration-line:none;text-decoration-style:solid;text-decoration-color:#000000;text-transform:none;text-orientation:mixed;dominant-baseline:auto;white-space:normal;shape-padding:0;isolation:auto;mix-blend-mode:normal;solid-color:#000000;fill:#000000;stroke:#010000;stroke-width:0.58450001;color-rendering:auto;image-rendering:auto"
             dominant-baseline="auto"
             d="m 68.439,117.51 c 0,0 -2.3213,2.0689 -4.2031,4.6875 -1.8833,2.6207 -6.8867,10.895 -6.8867,10.895 l 0.22656,0.13672 c 0,0 5.0163,-8.2905 6.875,-10.877 1.8601,-2.5885 4.1641,-4.6445 4.1641,-4.6445 z" />
          <path
             inkscape:connector-curvature="0"
             id="path12"
             style="color:#000000;font-variant-ligatures:normal;font-variant-position:normal;font-variant-caps:normal;font-variant-numeric:normal;font-variant-alternates:normal;font-feature-settings:normal;text-indent:0;text-decoration:none;text-decoration-line:none;text-decoration-style:solid;text-decoration-color:#000000;text-transform:none;text-orientation:mixed;dominant-baseline:auto;white-space:normal;shape-padding:0;isolation:auto;mix-blend-mode:normal;solid-color:#000000;fill:#000000;stroke:#010000;stroke-width:0.45916;color-rendering:auto;image-rendering:auto"
             dominant-baseline="auto"
             d="m 98.873,105.5 c 0,0 -7.2512,0.89306 -10.621,1.7168 -3.3684,0.82335 -9.4531,3.125 -9.4531,3.125 l 0.09375,0.2461 c 0,0 6.0928,-2.3015 9.4219,-3.1152 3.3275,-0.81336 10.592,-1.7109 10.592,-1.7109 z" />
        </g>
        <path
           style="fill:#ffffff;stroke:#010000;stroke-width:2.81299996;stroke-linecap:round"
           inkscape:connector-curvature="0"
           id="path16"
           d="m 258.35,462.99 c -0.20075,-0.49312 -0.48413,-3.4096 -0.62974,-6.4811 -0.31054,-6.5509 0.56736,-11.307 3.1333,-16.974 2.1007,-4.6394 3.5732,-6.76 7.3665,-10.608 5.739,-5.8224 13.342,-9.5294 21.746,-10.603 4.5587,-0.58218 8.4597,-0.26913 13.625,1.0934 3.7505,0.98924 10,3.7498 10,4.4173 0,0.19473 -1.9688,1.5471 -4.375,3.0053 -11.701,7.0906 -38.203,26.478 -49.688,36.348 -0.70534,0.60617 -0.86165,0.57994 -1.1782,-0.1977 z"
           transform="scale(0.26458)" />
      </g>
      <g
         id="g22"
         transform="translate(15.478,7.4083)">
        <path
           style="fill:#ffffff;stroke:#000000;stroke-width:0.71893001"
           inkscape:connector-curvature="0"
           id="path20"
           d="m 56.442,123.47 8.7357,6.6861 34.512,-23.282 -2.0078,-11.029 c 0,0 -12.969,3.8891 -23.055,11.602 -10.086,7.7128 -18.185,16.023 -18.185,16.023 z" />
      </g>
    </g>
    <g
       style="fill:#3a7fff"
       id="g32"
       transform="matrix(1.7654,0,0,1.6608,-120.235,-197.175)">
      <path
         style="stroke:#000000;stroke-width:0.54095"
         inkscape:connector-curvature="0"
         id="path26"
         d="m 90.504,146.77 c 0,0 1.6836,4.1597 -1.0848,9.0417 l -7.8706,5.0897 c 0,0 2.4959,-6.6183 4.1232,-8.964 1.6273,-2.3457 4.8322,-5.1673 4.8322,-5.1673 z" />
      <path
         style="stroke:#000000;stroke-width:0.54095"
         inkscape:connector-curvature="0"
         id="path28"
         d="m 92.621,146.77 c 0,0 -1.816,4.1037 0.79462,9.0718 l 7.7036,5.3391 c 0,0 -2.2826,-6.6949 -3.834,-9.0915 -1.5513,-2.3966 -4.6642,-5.3194 -4.6642,-5.3194 z" />
      <ellipse
         style="stroke:#010000;stroke-width:0.51239997;stroke-linecap:round"
         id="ellipse30"
         ry="3.5057001"
         rx="3.3734"
         cy="145.99001"
         cx="91.214996" />
    </g>
    <path
       transform="scale(0.26458333)"
       inkscape:connector-curvature="0"
       id="path849"
       d="M 51.013027,102.94874 C 63.117366,89.762242 80.352033,73.220339 81.986433,73.220339 c 0.554696,0 0.510394,2.145127 -0.09845,4.766949 -0.608845,2.621822 -1.12122,6.483051 -1.13861,8.580509 -0.02682,3.234343 -0.986425,4.349823 -6.318063,7.344316 -3.457545,1.941917 -12.33807,7.519247 -19.734502,12.394067 -7.39643,4.87482 -13.775109,8.86331 -14.17484,8.86331 -0.399731,0 4.321247,-5.49934 10.491062,-12.22075 z"
       style="fill:#ffffff;fill-opacity:1;stroke:none;stroke-width:4.36727619;stroke-linecap:round;stroke-linejoin:miter;stroke-miterlimit:4;stroke-dasharray:none;stroke-dashoffset:0;stroke-opacity:1" />
    <path
       transform="scale(0.26458333)"
       inkscape:connector-curvature="0"
       id="path851"
       d="m 152.50491,46.94779 c -3.44929,-2.329759 -5.996,-4.23856 -5.65936,-4.24178 0.33664,-0.0032 8.33453,-1.144653 17.77309,-2.536518 9.43856,-1.391866 22.88136,-2.494197 29.87289,-2.449625 l 12.71186,0.08104 -16.52542,4.231346 c -9.08899,2.327241 -19.98507,5.338373 -24.21353,6.691405 l -7.6881,2.460059 z"
       style="fill:#ffffff;fill-opacity:1;stroke:none;stroke-width:4.36727619;stroke-linecap:round;stroke-linejoin:miter;stroke-miterlimit:4;stroke-dasharray:none;stroke-dashoffset:0;stroke-opacity:1" />
  </g>
</svg>
