<?xml version="1.0" standalone="no"?>
<!DOCTYPE svg PUBLIC "-//W3C//DTD SVG 20010904//EN"
 "http://www.w3.org/TR/2001/REC-SVG-20010904/DTD/svg10.dtd">
<svg version="1.0" xmlns="http://www.w3.org/2000/svg"
 width="700.000000pt" height="700.000000pt" viewBox="0 0 700.000000 700.000000"
 preserveAspectRatio="xMidYMid meet">
<metadata>
Created by potrace 1.14, written by Peter Selinger 2001-2017
</metadata>
<g transform="translate(0.000000,700.000000) scale(0.100000,-0.100000)"
fill="#000000" stroke="none">
<path d="M3265 6613 c-871 -149 -1307 -1100 -839 -1826 26 -40 49 -74 53 -77
3 -3 12 -13 20 -23 12 -15 -9 -39 -221 -250 -228 -225 -289 -288 -448 -466
-129 -145 -121 -135 -222 -262 -71 -90 -96 -124 -182 -248 -46 -68 -177 -287
-236 -396 -24 -44 -56 -104 -73 -134 -136 -249 -434 -872 -619 -1296 -38 -88
-78 -178 -88 -200 -10 -22 -37 -85 -60 -140 -42 -100 -73 -173 -90 -210 -24
-53 -192 -466 -232 -567 -10 -27 -16 -48 -13 -48 5 0 266 156 325 195 29 19
488 299 555 338 29 17 115 71 150 93 17 10 39 24 50 30 11 6 218 131 460 279
242 147 454 276 470 285 17 10 75 45 130 79 55 34 107 65 115 70 8 5 121 74
250 153 129 79 239 145 245 147 5 2 12 7 15 10 3 4 37 25 75 48 68 40 73 45
132 150 129 228 218 423 297 648 44 129 109 357 121 425 3 19 8 43 11 52 7 23
10 42 24 133 6 44 13 92 16 106 15 98 26 240 28 386 2 68 4 125 7 127 2 2 38
7 79 11 l75 7 0 -209 c1 -114 4 -239 8 -278 10 -98 18 -166 23 -195 67 -416
180 -773 361 -1135 94 -189 95 -190 202 -260 127 -82 357 -233 506 -331 66
-43 125 -81 130 -84 6 -3 42 -26 80 -51 190 -124 361 -236 695 -454 201 -131
433 -282 515 -336 137 -89 455 -297 713 -465 57 -36 105 -65 107 -62 3 2 -5
29 -16 59 -11 30 -38 104 -60 164 -21 61 -43 119 -48 130 -5 11 -43 112 -86
225 -83 219 -257 665 -280 715 -7 17 -38 91 -68 165 -242 593 -540 1222 -724
1525 -144 239 -424 599 -676 869 -148 158 -293 309 -401 418 l-126 126 50 93
c27 50 50 97 50 104 0 6 4 15 8 21 11 12 59 176 68 229 40 254 8 480 -101 710
-110 232 -286 416 -520 545 -114 62 -218 98 -377 131 -81 17 -321 18 -413 2z"/>
</g>
</svg>
